<svg width="52" height="53" viewBox="0 0 52 53" fill="none" xmlns="http://www.w3.org/2000/svg"><path d="M26 9.96c-8.86 0-16.068 7.232-16.068 16.118 0 8.887 7.208 16.118 16.068 16.118 8.86 0 16.069-7.23 16.069-16.118 0-8.886-7.209-16.117-16.069-16.117zm0 29.988c-7.625 0-13.828-6.222-13.828-13.87 0-7.647 6.203-13.87 13.828-13.87 7.625 0 13.828 6.223 13.828 13.87 0 7.648-6.203 13.87-13.828 13.87z" fill="#6A8E77"/><path d="M26 15.58c-5.771 0-10.467 4.71-10.467 10.5a1.12 1.12 0 102.241-.001c0-4.55 3.69-8.25 8.226-8.25.62 0 1.12-.505 1.12-1.125s-.5-1.123-1.12-1.123zm0-7.41c.62 0 1.12-.503 1.12-1.123V1.124C27.12.504 26.62 0 26 0c-.62 0-1.12.504-1.12 1.124v5.923c0 .62.5 1.123 1.12 1.123zm-8.294.752a1.119 1.119 0 001.465.606c.571-.238.841-.897.603-1.47l-1.008-2.427a1.12 1.12 0 10-2.068.865l1.008 2.426zm-5.916 4.494a1.115 1.115 0 001.586 0c.438-.44.438-1.15 0-1.589l-4.738-4.75a1.116 1.116 0 00-1.584 0 1.125 1.125 0 000 1.589l4.737 4.75zm-6.175 5.406l2.42 1.012A1.12 1.12 0 009.5 19.23a1.125 1.125 0 00-.604-1.47l-2.419-1.012a1.124 1.124 0 00-.863 2.074zm2.531 7.257c0-.62-.5-1.124-1.12-1.124H1.12c-.62 0-1.12.504-1.12 1.124 0 .62.5 1.124 1.12 1.124h5.906c.62 0 1.12-.504 1.12-1.124zm1.353 6.85a1.12 1.12 0 00-1.466-.605l-2.419 1.012a1.124 1.124 0 00.863 2.074l2.42-1.011c.57-.24.84-.897.602-1.47zm2.291 5.812l-4.737 4.75a1.125 1.125 0 00.793 1.919c.286 0 .573-.11.792-.33l4.737-4.75c.438-.44.438-1.15 0-1.589a1.117 1.117 0 00-1.585 0zm7.38 3.889a1.123 1.123 0 00-1.466.605l-1.007 2.427a1.125 1.125 0 001.034 1.556c.44 0 .856-.261 1.034-.693l1.008-2.426a1.123 1.123 0 00-.603-1.47zM26 43.987c-.62 0-1.12.503-1.12 1.124v5.923c0 .62.5 1.124 1.12 1.124.62 0 1.12-.504 1.12-1.124V45.11c0-.621-.5-1.124-1.12-1.124zm8.295-.751a1.12 1.12 0 10-2.069.864l1.008 2.427a1.119 1.119 0 001.465.606c.572-.238.842-.897.603-1.47l-1.007-2.427zm5.915-4.495a1.116 1.116 0 00-1.584 0 1.125 1.125 0 000 1.59l4.737 4.75a1.115 1.115 0 001.584 0c.438-.44.438-1.15 0-1.59l-4.737-4.75zm6.175-5.405l-2.419-1.012a1.124 1.124 0 00-.863 2.074l2.42 1.012c.14.06.286.088.43.088a1.124 1.124 0 00.432-2.162zm4.495-8.381h-5.906c-.62 0-1.12.504-1.12 1.124 0 .62.5 1.124 1.12 1.124h5.906c.62 0 1.12-.504 1.12-1.124 0-.62-.5-1.124-1.12-1.124zM42.5 19.23a1.12 1.12 0 001.466.604l2.42-1.011a1.124 1.124 0 00-.863-2.074l-2.42 1.01c-.571.24-.84.898-.602 1.47zm-3.084-5.485c.287 0 .574-.11.793-.329l4.737-4.75c.438-.44.438-1.15 0-1.59a1.116 1.116 0 00-1.584 0l-4.738 4.751a1.125 1.125 0 00.792 1.918zM32.83 9.528a1.12 1.12 0 001.466-.606l1.007-2.427a1.125 1.125 0 00-.603-1.47 1.123 1.123 0 00-1.465.606l-1.008 2.427a1.125 1.125 0 00.603 1.47z" fill="#6A8E77"/></svg>