<svg width="70" height="88" viewBox="0 0 70 88" fill="none" xmlns="http://www.w3.org/2000/svg"><path d="M5.957 69.5c.497.25.745.5.993 1 .497.25.497.75.497 1.25 0 .75-.248 1.5-.993 2-.497.5-1.241.75-2.234.75H0V64.25h3.972c.744 0 1.489.25 2.234.75.496.5.993 1.25.993 2 0 1.25-.497 2-1.242 2.5zM3.972 66H1.489v2.75h2.483c.496 0 .744-.25.993-.5.248-.25.496-.5.496-1s-.248-.75-.496-1c-.249 0-.497-.25-.993-.25zm.496 7.25c.497 0 .745-.25.993-.5s.496-.5.496-1-.248-.75-.496-1-.496-.5-.993-.5h-2.73v3h2.73zM10.425 66c-.248.25-.496.25-.745.25-.248 0-.496 0-.744-.25s-.248-.5-.248-.75 0-.5.248-.75.496-.25.744-.25c.249 0 .497 0 .745.25s.248.5.248.75 0 .5-.248.75zm-1.49 8.75v-7.5h1.49v7.5h-1.49zm6.952.25c-.993 0-1.986-.5-2.73-1.25C12.411 73 11.914 72 11.914 71s.497-2 1.241-2.75c.745-.75 1.738-1.25 2.73-1.25.994 0 1.986.5 2.731 1.25.745.75 1.241 1.75 1.241 2.75s-.496 2-1.24 2.75c-.745 1-1.738 1.25-2.731 1.25zm-1.738-2.25c.497.5.993.75 1.738.75.744 0 1.24-.25 1.737-.75.497-.5.745-1 .745-1.75s-.248-1.25-.745-1.75c-.496-.5-.993-.75-1.737-.75-.745 0-1.242.25-1.738.75s-.745 1-.745 1.75.249 1.25.745 1.75zM21.1 71v-1.5h5.46V71H21.1zm11.666-3.75c.992 0 1.985.5 2.482 1.25.745.75.993 1.75.993 2.75s-.248 2-.993 2.75-1.49 1.25-2.482 1.25c-1.242 0-1.986-.5-2.483-1.25v1h-1.49V64.75h1.49v4c.497-1 1.241-1.5 2.483-1.5zm-1.986 5.5c.496.5.993.75 1.737.75.745 0 1.241-.25 1.738-.75.496-.5.745-1 .745-1.75s-.249-1.25-.745-1.75c-.497-.5-.993-.75-1.738-.75-.744 0-1.24.25-1.737.75-.497.5-.745 1-.745 1.75.248.75.248 1.25.745 1.75zm12.908-5.25h1.49V75h-1.49v-1c-.497.75-1.49 1.25-2.482 1.25-.993 0-1.986-.5-2.483-1.25-.744-.75-.992-1.75-.992-2.75s.248-2 .992-2.75c.745-.75 1.49-1.25 2.483-1.25 1.24 0 1.985.5 2.482 1.25v-1zm-3.972 5.25c.497.5.993.75 1.738.75s1.241-.25 1.737-.75c.497-.5.745-1 .745-1.75s-.248-1.25-.745-1.75c-.496-.5-.992-.75-1.737-.75-.745 0-1.241.25-1.738.75-.496.5-.744 1-.744 1.75s.248 1.25.744 1.75zm8.936-3.25c0 .25.248.5.496.5.249.25.497.25.993.25.497 0 .745.25 1.242.25.496.25.744.25.992.75.249.25.497.75.497 1.25 0 .75-.248 1.25-.745 1.75-.993.5-1.737.75-2.482.75-.745 0-1.241-.25-1.986-.5a3.001 3.001 0 01-1.241-1.25l1.49-.75c.248.75.744 1 1.737 1 .745 0 1.241-.25 1.241-.75 0-.25-.248-.5-.496-.5-.249-.25-.497-.25-.993-.5-.497 0-.745-.25-1.241-.25-.497-.25-.745-.25-.993-.75-.249-.25-.497-.75-.497-1.25 0-.75.248-1.25.745-1.75.496-.5 1.241-.5 1.986-.5.496 0 1.24.25 1.737.5.497.25.745.75.993 1.25l-1.24.75c-.25-.5-.746-.75-1.49-.75-.248 0-.497 0-.745.25v.25zm6.455 2.25c0 .5.496 1 .744 1.25.497.25.993.5 1.49.5.745 0 1.49-.25 1.986-1l1.24.75c-.744 1-1.737 1.5-3.226 1.5-1.241 0-2.234-.25-2.979-1-.745-.75-.993-1.75-.993-2.75s.248-2 .993-2.75 1.738-1 2.73-1c.994 0 1.986.5 2.731 1.25.745.75.993 1.75.993 2.75V72h-5.71v-.25zm0-1.25h4.468c0-.5-.248-1-.745-1.25-.496-.25-.744-.5-1.241-.5-.496 0-.993.25-1.49.5-.496.25-.744.75-.992 1.25zm13.155-6h1.49v10.25h-1.49v-1c-.496.75-1.49 1.25-2.482 1.25-.993 0-1.986-.5-2.482-1.25-.745-.75-.993-1.75-.993-2.75s.248-2 .993-2.75c.744-.75 1.489-1.25 2.482-1.25 1.241 0 1.986.5 2.482 1.25V64.5zm-3.972 8.25c.497.5.993.75 1.738.75s1.241-.25 1.738-.75c.496-.5.744-1 .744-1.75s-.248-1.25-.744-1.75c-.497-.5-.993-.75-1.738-.75s-1.241.25-1.738.75c-.496.5-.744 1-.744 1.75s.248 1.25.744 1.75zm-43.19 7.5c.993 0 1.986.5 2.482 1.25.745.75.993 1.75.993 2.75s-.248 2-.993 2.75-1.49 1.25-2.482 1.25c-1.241 0-1.986-.5-2.483-1.25v1H16.88V77.5h1.49v4c.744-.75 1.489-1.25 2.73-1.25zm-1.986 5.5c.496.5.993.75 1.738.75.744 0 1.24-.25 1.737-.75.497-.5.745-1 .745-1.75s-.248-1.25-.745-1.75c-.496-.5-.993-.75-1.737-.75-.745 0-1.242.25-1.738.75-.497.5-.745 1-.745 1.75s.248 1.25.745 1.75zm8.688-4c.496-1 1.241-1.5 2.234-1.5V82c-.497 0-1.241 0-1.49.5-.496.25-.744 1-.744 1.75V88h-1.49v-7.5h1.49v1.25zm8.438-1.25h1.49V88h-1.49v-1c-.495.75-1.24 1.25-2.233 1.25-.745 0-1.49-.25-1.986-.75s-.745-1.25-.745-2.25v-4.5h1.49v4.5c0 .5.248 1 .496 1.25s.745.5 1.241.5c.497 0 .993-.25 1.242-.5.248-.25.496-1 .496-1.5v-4.5zm4.717 2c0 .25.248.5.497.5.248.25.496.25.993.25.496 0 .744.25 1.24.25.497.25.745.25.994.75.248.25.496.75.496 1.25 0 .75-.248 1.25-.745 1.75-.496.5-1.24.5-1.985.5-.745 0-1.242-.25-1.986-.5A3.002 3.002 0 0139.22 86l1.49-.75c.247.75.744 1 1.737 1 .744 0 1.24-.25 1.24-.75 0-.25-.247-.5-.496-.5-.248-.25-.496-.25-.992-.5-.497 0-.745-.25-1.242-.25-.496-.25-.744-.25-.993-.75-.248-.25-.496-.75-.496-1.25 0-.75.248-1.25.745-1.75.496-.5 1.24-.5 1.986-.5.496 0 1.24.25 1.737.5.496.25.745.75.993 1.25l-1.49.75c-.248-.5-.744-.75-1.489-.75-.248 0-.496 0-.745.25 0 0-.248.25-.248.5zm9.184-2.25c.745 0 1.49.25 1.986.75.497.5.745 1.25.745 2.25v4.5h-1.49v-4.5c0-.5-.248-1-.496-1.25s-.745-.5-1.241-.5c-.497 0-.993.25-1.241.5-.248.25-.497 1-.497 1.5v4h-1.489v-10h1.49v4c.496-1 1.24-1.25 2.233-1.25zM35 4.25C19.61 4.25 7.445 16.75 7.445 32S19.858 59.75 35 59.75 62.554 47.25 62.554 32 50.14 4.25 35 4.25zM56.594 17a26.22 26.22 0 014.717 15c0 14.75-11.915 26.5-26.313 26.5C20.602 58.5 8.44 46.75 8.44 32 8.44 17.5 20.354 5.5 35 5.5c8.937 0 16.88 4.5 21.596 11.5z" fill="#4D8569"/><path d="M35 60C19.61 60 7.198 47.5 7.198 32S19.61 4 35 4c15.39 0 27.8 12.5 27.8 28S50.141 60 35 60zm0-55.5C19.858 4.5 7.695 16.75 7.695 32S19.858 59.5 35 59.5 62.305 47.25 62.305 32C62.305 17 49.893 4.5 35 4.5zM35 59C20.354 59 8.44 47 8.44 32.25S20.353 5.5 35 5.5c8.688 0 16.88 4.25 21.844 11.5 2.978 4.5 4.716 9.75 4.716 15.25C61.56 46.75 49.645 59 35 59zm0-53.25C20.354 5.75 8.688 17.5 8.688 32S20.354 58.25 34.75 58.25c14.4 0 26.065-11.75 26.065-26.25 0-5.5-1.49-10.5-4.716-15-4.468-7-12.66-11.25-21.1-11.25z" fill="#4D8569"/><path d="M50.39 42c-1.24 0-2.482.25-3.971.25-1.738 0-3.227.25-4.716.75-2.235.5-4.22 1.5-5.958 3v-.5c0-.75 0-1.25-.248-2v-1.25c0-.5.248-.5.496-.5h.745c1.241.25 2.73.25 3.972 0 .992-.25 1.985-.5 2.978-1.25.745-.5 1.241-1 1.49-1.5.496-.5.744-1 1.24-1.75.745-1 1.49-1.75 2.235-2.25 0 0 .248 0 .248-.25h-.248c-1.241 0-2.234 0-3.475.25-1.49 0-2.98.25-4.468.75-1.986.5-3.724 1.5-5.213 3h-.248v-4.5c0-.25.248-.5.496-.5h.745c.993.25 2.234.25 3.227 0 1.489-.25 2.73-1 3.723-2.25.248-.5.497-.75.745-1.25.744-1 1.49-2 2.482-2.5h-2.73c-.993 0-2.234.25-3.227.5-1.986.5-3.724 1.25-5.213 2.75v-4.75h.248c.993.25 2.234.25 3.227.25 1.241 0 2.234-.5 3.227-1.25.496-.5.993-1 1.241-1.5.745-1.25 1.49-2.25 2.482-3H42.2c-.993 0-2.234.25-3.227.75-1.49.5-2.73 1.5-3.723 2.5l-.249.25V19.5c0-.25.249-.5.497-.5h.248c.993 1 1.49 1 2.234 1 .993 0 1.986-.25 2.73-.75.745-.5 1.242-1 1.738-1.75.248-.25.497-.75.497-1 .496-.75.992-1.5 1.737-2l.248-.25h-2.482c-.993 0-1.986.25-2.979.5-1.737.5-2.978 1.25-4.22 2.5L35 17.5v-4.25c.249-.75.497-.75.993-.75.248 0 .497 0 .745.25 1.241.25 2.482 0 3.475-.75.497-.5.745-1 1.241-1.5.497-.75.745-1.5 1.49-2.25l.744-.75h-1.49c-.992 0-1.737 0-2.73.25-1.489.5-2.73 1.25-3.723 2.25l-.248.25V8.5c.248-.5.496-1 .993-1.25.744-.5.993-1.25.993-2 0-.5-.249-.75-.497-1.25L34.752.25c-.496.75-.745 1.25-1.241 2-.248.5-.745 1.25-.993 1.75s-.496 1-.248 1.5c0 .5.496 1 .744 1.5l.745.75c.248.25.248.5.248 1 0 .25-.248.75-.248 1-.496-.5-.993-1-1.737-1.25-.993-.5-1.986-1-2.98-1.25-.992-.25-1.737 0-2.73 0h-.496c.248.25.248.5.496.75.497.5.993 1.25 1.241 1.75.249.5.745 1.25.993 1.75.249.5.745 1 1.49 1 .744.25 1.49.25 2.234 0 .248 0 .744 0 .993-.25v4.5s-.248 0-.248-.25c-.745-.25-1.738-1-2.731-1.5-.993-.5-1.986-.75-2.979-.75-.993 0-1.985 0-2.978.25h-.249c.497.5.993 1 1.242 1.5.496.5.744 1.25.992 1.75.993 1.25 1.986 2 3.476 2.25h2.73c.248 0 .496 0 .745-.25v4.5h-.248c-1.242-.75-2.235-1.5-3.724-2-1.986-.75-3.971-1-5.957-.75h-.745c.993.25 1.49 1 1.986 1.5.248.5.745 1.25.993 1.75.496.75.993 1.5 1.985 1.75.993.5 3.227 1 4.717.5.248 0 .744-.25.993 0 .248 0 .248 0 .248.25v4.25h-.248c-.745-.5-1.49-1-2.234-1.25-1.49-1-3.227-1.5-5.213-1.5h-3.723.248c.744.5 1.49 1.25 1.986 2 .248.5.496 1 .992 1.5.993 1.25 2.235 2 3.724 2.25h4.22V39h-.248c-.745-.5-1.49-1-2.483-1.5-1.986-1.25-4.22-1.75-6.454-1.75H19.61c.993.5 1.738 1 2.234 1.75.497.5.745 1 .993 1.5.745 1.25 1.738 2 2.979 2.5.993.5 1.986.5 2.979.75.993 0 2.234 0 3.227-.25h.744v4.5c-4.22-3.25-9.184-4.5-14.397-3.75l.248.25c1.241 0 2.234 1 2.98 2 .247.5.744 1 .992 1.5.497.75 1.241 1.25 2.234 1.75.993.5 1.986.75 3.227 1 1.49.25 2.73 0 4.22-.25h.993l.248 10.5s2.234.25 2.73 0c0 0 0-6.5-.248-10.5h.497c.248 0 .496 0 .744.25 1.738.25 3.227.25 4.965 0 1.738-.5 3.227-1.25 4.22-2.75.496-.5.745-1 1.24-1.5.746-1.25 1.49-2.25 2.731-3z" fill="#4D8569"/></svg>