<svg width="192" height="243" viewBox="0 0 192 243" fill="none" xmlns="http://www.w3.org/2000/svg"><path d="M192 0H0v242.332h192V0z" fill="#D9243A"/><path fill-rule="evenodd" clip-rule="evenodd" d="M164.672 51.409l-10.751 3.93a69.774 69.774 0 00-80.925-25.406 69.778 69.778 0 00-45.663 71.48l-11.226 4.083 1.175 3.225L165.836 54.65l-1.164-3.241zM74.157 33.115a66.396 66.396 0 0176.452 23.41L30.645 100.182a66.39 66.39 0 0143.512-67.068zm103.042 52.727l-1.175-3.219-148.538 54.071 1.175 3.219 11.26-4.099a69.795 69.795 0 00126.5-46.042l10.778-3.93zm-57.634 72.026a66.392 66.392 0 01-76.343-23.278l119.876-43.616a66.4 66.4 0 01-43.533 66.894z" fill="#fff"/><path d="M35.761 128.578l-7.296-20.048 13.232-4.815 7.296 20.048-4.137 1.503-5.712-15.692-4.957 1.804 5.712 15.697-4.138 1.503zm21.174-7.707l-7.302-20.048 7.149-2.601a5.705 5.705 0 012.427-.366c.78.058 1.537.293 2.213.688.72.422 1.35.978 1.858 1.64a9.369 9.369 0 011.361 2.547l.23.634a9.49 9.49 0 01.607 2.858 6.343 6.343 0 01-.361 2.454c-.27.729-.7 1.388-1.257 1.93a5.799 5.799 0 01-2.1 1.284l-3.005 1.093 2.317 6.362-4.137 1.525zm-1.574-17.2l1.814 4.985 2.842-1.033a1.423 1.423 0 00.913-.935c.14-.52.102-1.073-.11-1.569l-.37-1.027a2.546 2.546 0 00-.94-1.301 1.368 1.368 0 00-1.306-.153l-2.843 1.033zm31.7-.962c.347.918.551 1.884.607 2.864a6.33 6.33 0 01-.361 2.448 5.299 5.299 0 01-1.263 1.935 5.755 5.755 0 01-2.093 1.279l-2.355.853a5.817 5.817 0 01-2.427.36 5.2 5.2 0 01-2.214-.683 6.394 6.394 0 01-1.864-1.678 9.52 9.52 0 01-1.377-2.59l-2.65-7.275a9.524 9.524 0 01-.596-2.837 6.434 6.434 0 01.36-2.465 5.16 5.16 0 011.252-1.945 5.76 5.76 0 012.093-1.285l2.334-.847c.773-.296 1.6-.42 2.427-.366.78.058 1.538.293 2.213.688a6.46 6.46 0 011.859 1.64 9.483 9.483 0 011.366 2.553l2.69 7.351zm-6.87-6.012a2.514 2.514 0 00-.935-1.301 1.389 1.389 0 00-1.311-.153l-1.974.716a1.414 1.414 0 00-.929.973 2.556 2.556 0 00.12 1.59l2.815 7.734c.157.516.482.964.924 1.273a1.44 1.44 0 001.323.115l1.973-.716a1.431 1.431 0 00.918-.934 2.429 2.429 0 00-.11-1.564l-2.814-7.733zm33.416 8.089l-3.656 1.328-1.459-4.006-9.215 3.35 1.448 3.99-3.656 1.333-3.045-8.367 1.514-.547c.14-.694.19-1.403.148-2.11a20.814 20.814 0 00-.383-2.99 44.33 44.33 0 00-.912-3.738 69.807 69.807 0 00-1.422-4.372l-1.17-3.208 10.998-4.001 5.711 15.697 2.044-.743 3.055 8.384zM97.544 88.799a52.302 52.302 0 011.853 6.17c.416 1.73.634 3.502.65 5.28l4.335-1.58-4.149-11.395-2.864 1.038.175.487zm26.863 2.388a8.263 8.263 0 01-.727 4.05 4.157 4.157 0 01-2.328 2.214l-1.875.683-1.568-4.302 1.158-.415c.376-.127.689-.393.875-.743a2.99 2.99 0 00.317-1.22L109.65 79l4.455-1.64 4.11 5.378 2.11 3.28-.498-3.826-.503-6.695 4.4-1.602.683 17.293zm12.883.438l-7.297-20.048 4.138-1.509 2.771 7.62 1.093-.394 1.033-9.002 4.738-1.727-1.53 11.068 9.155 8.86-4.985 1.814-6.914-6.794-1.055.383 2.99 8.198-4.137 1.53zm11.226-26.793l13.232-4.815 1.585 4.372-4.547 1.64 5.717 15.697-4.143 1.487-5.712-15.692-4.547 1.64-1.585-4.329zM41.15 72.49l7.106-2.585c1.781-.65 3.312-.803 4.585-.47a3.777 3.777 0 012.667 2.558l.246.689a3.892 3.892 0 01-.814 4.246 4.8 4.8 0 012.65.678 4.088 4.088 0 011.64 2.186l.29.787a4.642 4.642 0 01-.235 4.067c-.705 1.213-1.946 2.148-3.727 2.793l-7.904 2.88L41.15 72.49zm5.767 2.225l1.093 3.082 2.547-.929c.42-.121.779-.396 1.005-.77a1.245 1.245 0 00.06-1.055l-.196-.547a1.225 1.225 0 00-.733-.787 1.787 1.787 0 00-1.257.071l-2.52.935zm2.372 6.52l1.333 3.662 3.28-1.186c.437-.13.804-.43 1.022-.83a1.52 1.52 0 00.043-1.23l-.24-.662a1.585 1.585 0 00-.836-.95 1.705 1.705 0 00-1.323 0l-3.28 1.196zm12.423-16.222l2.131 5.853 2.673-.973a6.274 6.274 0 014.782-.054c1.403.612 2.433 1.818 3.088 3.618l.203.547a6.94 6.94 0 01.459 2.525 5.286 5.286 0 01-.514 2.235 5.36 5.36 0 01-1.416 1.815 7.2 7.2 0 01-2.246 1.262l-7.056 2.569-6.482-17.823 4.378-1.574zm7.57 13.04a1.667 1.667 0 001.016-.858 1.765 1.765 0 000-1.377l-.355-.967a1.638 1.638 0 00-.87-1.039 1.722 1.722 0 00-1.316 0l-2.493.907 1.536 4.225 2.482-.89zm8.996 1.094L71.79 61.35l4.373-1.59 6.482 17.817-4.367 1.569zM93.27 57.848l-8.018 2.918.896 2.47 3.515-1.278a8.309 8.309 0 012.52-.547 5.614 5.614 0 012.186.323c.656.242 1.25.628 1.738 1.131a5.081 5.081 0 011.142 1.875l.623 1.705a5.12 5.12 0 01.328 2.186 4.617 4.617 0 01-.607 1.979 5.537 5.537 0 01-1.47 1.64 8.124 8.124 0 01-2.268 1.213l-7.887 2.902-6.488-17.823 12.402-4.51 1.388 3.816zm-.197 8.969a1.553 1.553 0 00-.83-.924 1.706 1.706 0 00-1.323 0l-3.334 1.213 1.383 3.794 3.334-1.214a1.683 1.683 0 001.016-.847 1.514 1.514 0 00.038-1.235l-.284-.787zm20.769-7.002a7.18 7.18 0 01.47 2.569 5.318 5.318 0 01-.47 2.246 5.63 5.63 0 01-1.41 1.826 7.099 7.099 0 01-2.246 1.278l-2.471.897a7.102 7.102 0 01-2.541.464 5.462 5.462 0 01-2.257-.502 5.392 5.392 0 01-1.842-1.421 7.27 7.27 0 01-1.296-2.285l-2.35-6.466a6.97 6.97 0 01-.464-2.541 5.373 5.373 0 011.907-4.094 7.014 7.014 0 012.247-1.279l2.47-.902a7.106 7.106 0 012.541-.464 5.432 5.432 0 014.1 1.913 7.11 7.11 0 011.279 2.246l2.333 6.515zm-6.81-5.078a1.99 1.99 0 00-.902-1.126 1.564 1.564 0 00-1.35-.07l-2.087.76a1.604 1.604 0 00-1.017.934c-.167.469-.154.983.038 1.443l2.509 6.859c.146.467.467.858.896 1.093a1.644 1.644 0 001.367.038l2.088-.76a1.644 1.644 0 001-.901 1.894 1.894 0 00-.028-1.416l-2.514-6.854zm11.932 9.62l-6.488-17.823 7.564-2.733a7.107 7.107 0 012.547-.486 5.371 5.371 0 014.094 1.907 7.228 7.228 0 011.279 2.246l.208.547c.309.82.468 1.688.47 2.563a5.29 5.29 0 01-.509 2.246 5.552 5.552 0 01-1.41 1.826 7.232 7.232 0 01-2.246 1.279l-3.181 1.159 2.055 5.651-4.383 1.618zm-.7-15.544l1.64 4.427 3.006-1.093a1.65 1.65 0 001-.896c.171-.46.161-.968-.027-1.422l-.334-.912a2.01 2.01 0 00-.902-1.132 1.578 1.578 0 00-1.35-.07l-3.033 1.098zM61.51 144.242l5.126 3.202c.383.241.46.492.23.859l-.897 1.437a.543.543 0 01-.657.318.55.55 0 01-.228-.132l-7.608-4.75a.536.536 0 01-.344-.382.543.543 0 01.125-.498l1.815-2.902c.677-1.093 1.432-1.432 2.787-1.273l4.624.612a1.094 1.094 0 001.197-.607l.503-.809c.492-.787.213-1.525-.744-2.121-.956-.595-1.721-.513-2.186.274l-.415.661c-.24.388-.492.459-.858.23l-1.897-1.181a.544.544 0 01-.318-.657.543.543 0 01.133-.228l.71-1.137c1.23-1.968 3.563-2.143 6.373-.388 2.81 1.754 3.727 4.012 2.525 5.941l-.733 1.175c-.934 1.492-2.104 2.137-3.689 1.94l-3.99-.546c-.781-.104-.962 0-1.273.486l-.312.476zm10.062 4.924l2.339-7.302c.694-2.186 2.99-2.935 6.187-1.913s4.64 2.99 3.946 5.154l-2.34 7.308c-.693 2.186-2.989 2.935-6.208 1.902-3.22-1.033-4.618-2.979-3.924-5.149zm6.919 1.558l1.957-6.111c.284-.885-.17-1.53-1.241-1.874-1.071-.345-1.798-.077-2.082.814l-1.957 6.111c-.284.885.147 1.524 1.224 1.869 1.077.344 1.815.076 2.099-.809zm14.621-8.444c.415-.039.595.191.546.644l-.803 11.341 2.574.186c.453.033.64.224.607.656l-.12 1.684c-.034.431-.241.612-.695.584l-8.821-.639c-.454-.033-.64-.241-.607-.672l.12-1.689c.033-.432.24-.59.695-.547l2.683.197.618-8.586-2.733.24c-.437.033-.645-.158-.612-.59l.12-1.689c.033-.41.24-.59.7-.645l5.728-.475zm15.653 2.257l1.213 7.575c.372 2.312-1.208 3.952-4.482 4.476-3.273.525-5.203-.546-5.574-2.864l-.104-.639c-.071-.454.087-.672.546-.744l2.186-.355c.427-.065.629.099.7.547v.131c.153.94.738 1.306 1.787 1.137 1.05-.17 1.514-.7 1.361-1.64l-.322-2.011a5.29 5.29 0 01-2.028.787c-2.886.464-4.853-.716-5.209-2.919l-.295-1.842c-.366-2.29 1.252-3.957 4.531-4.481 3.28-.525 5.302.546 5.69 2.842zm-3.411 1.049c-.147-.918-.776-1.279-1.825-1.093-1.05.186-1.552.732-1.405 1.64l.131.814c.148.918.76 1.306 1.853 1.126 1.093-.18 1.531-.705 1.383-1.64l-.137-.847zm16.747-10.734c.404-.207.656-.142.858.241l.776 1.503a.552.552 0 01.083.506.543.543 0 01-.373.352l-4.405 2.285 5.138 9.903c.213.405.147.662-.241.858l-2.077 1.093a.55.55 0 01-.502.08.546.546 0 01-.35-.369l-6.187-11.926a.543.543 0 01.034-.725.547.547 0 01.223-.139l7.023-3.662zm8.608 7.75l-4.995-5.826c-1.487-1.722-.869-4.138 1.776-6.411 2.645-2.274 5.143-2.526 6.624-.804l5.001 5.821c1.481 1.727.886 4.126-1.798 6.427-2.684 2.301-5.127 2.52-6.608.793zm5.28-5.362l-4.176-4.864c-.579-.678-1.497-.574-2.416.213-.918.787-1.142 1.667-.546 2.339l4.181 4.87c.579.672 1.476.59 2.394-.202.918-.793 1.142-1.678.563-2.356zm10.554-5.258l1.978 1.334c.377.251.443.503.203.863l-1.126 1.673a.552.552 0 01-.404.315.54.54 0 01-.487-.157l-3.87-2.596a.545.545 0 01-.186-.891l.339-.503a8.314 8.314 0 00-1.333-1.858 14.933 14.933 0 00-2.187-1.7l-5.197-3.498a.541.541 0 01-.318-.657.541.541 0 01.132-.228l5.044-7.499c.241-.361.498-.393.875-.142l9.264 6.231.629-.935c.24-.36.502-.393.88-.142l3.864 2.602c.377.257.442.508.202.869l-1.104 1.672a.55.55 0 01-.667.298.55.55 0 01-.224-.139l-1.978-1.334-4.329 6.422zm-6.63-11.303l-1.864 2.771 3.28 2.214a14.557 14.557 0 013.634 3.411l2.312-3.438-7.362-4.958zm2.848-13.237a.761.761 0 01.869-.547l13.975.64c.443.038.601.251.459.661l-.77 2.279a.714.714 0 01-.858.514l-2.148-.131-1.154 3.41 1.793 1.197a.718.718 0 01.372.929l-.7 2.072c-.136.415-.393.486-.765.246l-11.505-7.958a.77.77 0 01-.361-.967l.793-2.345zm7.952 5.176l.651-1.93-1.197-.103a39.165 39.165 0 01-4.537-.804 38.25 38.25 0 012.137 1.066c.815.432 1.47.792 1.935 1.093l1.011.678zM13.301 193.55v-8.59h2.596l1.558 5.859 1.541-5.859h2.602v8.59h-1.611v-6.762l-1.705 6.762h-1.67l-1.7-6.762v6.762h-1.611zm10.02 0v-8.59h6.369v1.453h-4.635v1.904h4.312v1.448h-4.312v2.338h4.799v1.447H23.32zm13.4-8.59v3.656c.289-.023.508-.131.656-.322.149-.191.354-.629.615-1.313.344-.894.696-1.464 1.055-1.71.356-.243.947-.364 1.776-.364l.251-.006v1.284l-.252-.006c-.351 0-.609.045-.773.134a.978.978 0 00-.398.399c-.102.18-.252.549-.452 1.107-.105.297-.22.545-.345.744-.121.2-.338.387-.65.563.386.113.704.336.954.668.254.328.532.795.832 1.4l1.172 2.356h-2.039l-1.031-2.221a1.424 1.424 0 00-.1-.182 43.012 43.012 0 01-.21-.404c-.22-.41-.399-.672-.54-.785a.806.806 0 00-.521-.17v3.762h-1.693v-3.762c-.2 0-.371.055-.516.164-.145.11-.324.373-.54.791a7.17 7.17 0 01-.216.404 2.9 2.9 0 00-.1.182l-1.03 2.221h-2.04l1.172-2.356c.29-.582.56-1.043.814-1.382.258-.344.584-.573.979-.686-.313-.176-.531-.361-.656-.557a4.24 4.24 0 01-.346-.75c-.195-.547-.344-.912-.445-1.095a.963.963 0 00-.399-.411c-.164-.089-.433-.134-.808-.134a6.36 6.36 0 00-.223.006v-1.284l.252.006c.84 0 1.438.123 1.793.369.352.25.697.819 1.037 1.705.266.688.47 1.127.615 1.319.149.187.367.293.657.316v-3.656h1.693zm6.146 0h5.936v7.148h.756v3.317h-1.442v-1.875H42.71v1.875h-1.441v-3.317h.726c.356-.734.59-1.586.703-2.554.114-.973.17-2.201.17-3.686v-.908zm1.653 1.441c0 2.61-.237 4.512-.71 5.707h3.264v-5.707H44.52zm5.49-1.441h1.94l2.003 4.459 1.711-4.459h1.81l-2.9 6.527c-.316.707-.638 1.246-.966 1.617-.328.368-.752.551-1.272.551-.512 0-.912-.033-1.201-.099v-1.289c.246.015.469.023.668.023.402 0 .69-.072.861-.217.176-.148.344-.465.504-.949l-3.158-6.164zm8.344 8.59v-8.59h1.734v3.381h3.399v-3.381h1.734v8.59h-1.734v-3.756h-3.399v3.756h-1.734zm16.412 0h-1.887l-.75-1.951h-3.434l-.708 1.951h-1.84l3.345-8.59h1.834l3.44 8.59zm-3.194-3.399l-1.183-3.187-1.16 3.187h2.344zm4.12 3.399v-8.59h2.783c1.055 0 1.742.043 2.062.129.492.129.905.41 1.237.844.332.429.498.986.498 1.67 0 .527-.096.97-.287 1.33a2.37 2.37 0 01-.733.849 2.527 2.527 0 01-.896.405c-.414.082-1.014.123-1.8.123h-1.13v3.24h-1.734zm1.734-7.137v2.438h.95c.683 0 1.14-.045 1.37-.135a1.142 1.142 0 00.738-1.09c0-.313-.091-.57-.275-.773a1.19 1.19 0 00-.697-.381c-.207-.039-.623-.059-1.248-.059h-.838zm5.754 2.895c0-.875.13-1.61.392-2.204a4.08 4.08 0 01.797-1.177 3.37 3.37 0 011.114-.774c.535-.226 1.152-.34 1.851-.34 1.266 0 2.278.393 3.035 1.178.762.785 1.143 1.877 1.143 3.276 0 1.386-.377 2.472-1.13 3.257-.755.782-1.763 1.172-3.024 1.172-1.278 0-2.293-.388-3.047-1.166-.754-.781-1.131-1.855-1.131-3.222zm1.787-.059c0 .973.225 1.711.674 2.215.45.5 1.02.75 1.71.75.692 0 1.259-.248 1.7-.744.445-.5.668-1.248.668-2.244 0-.985-.217-1.719-.65-2.204-.43-.484-1.002-.726-1.717-.726-.715 0-1.291.246-1.729.738-.437.488-.656 1.227-.656 2.215zm8.432-4.289h5.935v7.148h.756v3.317h-1.441v-1.875H93.24v1.875H91.8v-3.317h.726c.355-.734.59-1.586.703-2.554.113-.973.17-2.201.17-3.686v-.908zm1.652 1.441c0 2.61-.236 4.512-.709 5.707h3.264v-5.707H95.05zm6.217 7.149v-8.59h1.734v3.381h3.399v-3.381h1.734v8.59h-1.734v-3.756h-3.399v3.756h-1.734zm16.412 0h-1.887l-.75-1.951h-3.433l-.709 1.951h-1.84l3.345-8.59h1.834l3.44 8.59zm-3.193-3.399l-1.184-3.187-1.16 3.187h2.344zm9.257 3.399v-3.586h-.351c-.547 0-.934.082-1.16.246-.223.164-.606.654-1.149 1.471l-1.254 1.869h-2.074l1.049-1.676c.414-.664.744-1.129.99-1.395a3.76 3.76 0 01.926-.72c-.801-.125-1.379-.403-1.734-.832-.356-.434-.534-.951-.534-1.553 0-.523.131-.986.393-1.389a1.922 1.922 0 011.043-.814c.433-.141 1.08-.211 1.939-.211h3.651v8.59h-1.735zm0-7.137h-1.353c-.688 0-1.141.016-1.36.047a.895.895 0 00-.556.316c-.156.18-.235.414-.235.703 0 .301.075.542.223.721a.974.974 0 00.574.328c.235.043.709.065 1.424.065h1.283v-2.18zm6.85-1.453h6.832v8.59h-1.734v-7.149h-3.364v7.149h-1.734v-8.59zm8.602 8.59v-8.59h2.783c1.054 0 1.742.043 2.062.129.492.129.905.41 1.237.844.332.429.498.986.498 1.67 0 .527-.096.97-.287 1.33a2.377 2.377 0 01-.733.849 2.53 2.53 0 01-.896.405c-.414.082-1.014.123-1.799.123h-1.131v3.24h-1.734zm1.734-7.137v2.438h.949c.684 0 1.141-.045 1.371-.135a1.14 1.14 0 00.739-1.09c0-.313-.092-.57-.276-.773a1.189 1.189 0 00-.697-.381c-.207-.039-.623-.059-1.248-.059h-.838zm6.269 7.137v-8.59h6.37v1.453h-4.635v1.904h4.312v1.448h-4.312v2.338h4.799v1.447h-6.534zm7.981 0v-8.59h2.596l1.558 5.859 1.541-5.859h2.602v8.59h-1.612v-6.762l-1.705 6.762h-1.67l-1.699-6.762v6.762h-1.611zm10.043-8.59h1.623v5.719l3.48-5.719h1.729v8.59h-1.623v-5.608l-3.475 5.608h-1.734v-8.59zm13.74 8.59v-3.586h-.351c-.547 0-.934.082-1.161.246-.222.164-.605.654-1.148 1.471l-1.254 1.869h-2.074l1.049-1.676c.414-.664.744-1.129.99-1.395a3.76 3.76 0 01.926-.72c-.801-.125-1.379-.403-1.735-.832-.355-.434-.533-.951-.533-1.553 0-.523.131-.986.393-1.389a1.919 1.919 0 011.043-.814c.433-.141 1.08-.211 1.939-.211h3.65v8.59h-1.734zm0-7.137h-1.353c-.688 0-1.141.016-1.36.047a.893.893 0 00-.556.316c-.157.18-.235.414-.235.703 0 .301.074.542.223.721a.974.974 0 00.574.328c.234.043.709.065 1.424.065h1.283v-2.18zM38.18 202.44h-1.647v-1.177c0-.477.041-.852.123-1.125.086-.278.243-.526.47-.744a2.37 2.37 0 01.866-.516l.323.68c-.328.109-.565.261-.71.457-.14.195-.214.455-.222.779h.797v1.646zm2.748 0h-1.646v-1.177c0-.481.04-.858.123-1.131a1.74 1.74 0 01.468-.738c.23-.219.52-.391.867-.516l.323.68c-.328.109-.565.261-.71.457-.14.195-.214.455-.222.779h.797v1.646zm1.729-3.48h1.623v5.719l3.48-5.719h1.729v8.59h-1.623v-5.608l-3.475 5.608h-1.734v-8.59zm8.607 8.59v-8.59h1.734v3.381h3.399v-3.381h1.734v8.59h-1.734v-3.756h-3.399v3.756h-1.734zm8.672 0v-8.59h1.734v3.381h3.399v-3.381h1.734v8.59h-1.734v-3.756H61.67v3.756h-1.734zm8.314-4.242c0-.875.131-1.61.393-2.204.195-.437.46-.83.797-1.177.34-.348.71-.606 1.113-.774.535-.226 1.152-.34 1.852-.34 1.265 0 2.277.393 3.035 1.178.761.785 1.142 1.877 1.142 3.276 0 1.386-.377 2.472-1.13 3.257-.754.782-1.762 1.172-3.024 1.172-1.277 0-2.293-.388-3.047-1.166-.754-.781-1.13-1.855-1.13-3.222zm1.787-.059c0 .973.225 1.711.674 2.215.45.5 1.02.75 1.711.75.692 0 1.258-.248 1.7-.744.445-.5.667-1.248.667-2.244 0-.985-.216-1.719-.65-2.204-.43-.484-1.002-.726-1.717-.726-.715 0-1.29.246-1.728.738-.438.488-.657 1.227-.657 2.215zm7.91-4.289h3.434c.68 0 1.186.029 1.518.088.336.055.634.172.896.351.266.18.486.42.662.721.176.297.264.631.264 1.002 0 .402-.11.772-.328 1.107a1.997 1.997 0 01-.88.756c.524.153.927.412 1.208.78.281.367.422.798.422 1.295 0 .39-.092.771-.276 1.142-.18.367-.427.662-.744.885-.312.219-.699.353-1.16.404-.289.031-.986.051-2.092.059h-2.923v-8.59zm1.735 1.43v1.986h1.137c.675 0 1.095-.01 1.26-.029.296-.035.529-.137.697-.305.172-.172.257-.396.257-.674 0-.265-.074-.48-.222-.644-.145-.168-.362-.27-.65-.305-.172-.02-.667-.029-1.483-.029h-.996zm0 3.416v2.297h1.605c.625 0 1.022-.018 1.19-.053.258-.047.467-.16.627-.34.164-.184.246-.428.246-.732 0-.258-.063-.477-.188-.657a1.062 1.062 0 00-.545-.392c-.234-.082-.746-.123-1.535-.123h-1.4zm14.08 3.744h-1.887l-.75-1.951h-3.433l-.71 1.951h-1.84l3.347-8.59h1.834l3.439 8.59zm-3.193-3.399l-1.184-3.187-1.16 3.187h2.344zm4.148-5.191h1.734v7.148h3.364v-7.148h1.734v7.148h.715v3.317h-1.442v-1.875h-6.105v-8.59zm8.76 0h1.623v5.719l3.48-5.719h1.729v8.59h-1.623v-5.608l-3.475 5.608h-1.734v-8.59zm8.25 4.348c0-.875.131-1.61.392-2.204a4.08 4.08 0 01.797-1.177 3.37 3.37 0 011.114-.774c.535-.226 1.152-.34 1.851-.34 1.266 0 2.277.393 3.035 1.178.762.785 1.143 1.877 1.143 3.276 0 1.386-.377 2.472-1.131 3.257-.754.782-1.762 1.172-3.023 1.172-1.278 0-2.293-.388-3.047-1.166-.754-.781-1.131-1.855-1.131-3.222zm1.787-.059c0 .973.225 1.711.674 2.215.449.5 1.019.75 1.711.75.691 0 1.257-.248 1.699-.744.445-.5.668-1.248.668-2.244 0-.985-.217-1.719-.651-2.204-.429-.484-1.001-.726-1.716-.726-.715 0-1.291.246-1.729.738-.437.488-.656 1.227-.656 2.215zm7.91 4.301v-8.59h1.734v3.381h3.399v-3.381h1.734v8.59h-1.734v-3.756h-3.399v3.756h-1.734zm8.672 0v-8.59h1.734v3.381h3.399v-3.381h1.734v8.59h-1.734v-3.756h-3.399v3.756h-1.734zm8.713-8.59h1.734v3.434h2.321c.609 0 1.132.084 1.57.252.441.164.808.46 1.101.89.293.426.44.916.44 1.471 0 .582-.153 1.084-.457 1.506-.305.418-.645.695-1.02.832-.371.136-.916.205-1.634.205h-4.055v-8.59zm1.734 7.148h1.694c.539 0 .914-.025 1.125-.076.214-.054.404-.176.568-.363a.992.992 0 00.252-.686c0-.382-.137-.67-.41-.861-.27-.191-.758-.287-1.465-.287h-1.764v2.273zm6.434-7.148h1.734v8.59h-1.734v-8.59zm3.562 0h1.623v5.719l3.481-5.719h1.728v8.59h-1.623v-5.608l-3.474 5.608h-1.735v-8.59zm4.453-2.139h.803c-.047.532-.234.95-.562 1.254-.325.301-.746.451-1.266.451s-.943-.15-1.271-.451c-.325-.304-.51-.722-.557-1.254h.803c.027.278.125.489.293.633.168.141.412.211.732.211s.564-.07.732-.211c.168-.144.266-.355.293-.633zM51.328 212.96h6.832v8.59h-1.734v-7.149h-3.363v7.149h-1.735v-8.59zm8.602 8.59v-8.59h2.783c1.055 0 1.742.043 2.063.129.492.129.904.41 1.236.844.332.429.498.986.498 1.67 0 .527-.096.97-.287 1.33a2.371 2.371 0 01-.733.849 2.527 2.527 0 01-.896.405c-.414.082-1.014.123-1.799.123h-1.13v3.24H59.93zm1.734-7.137v2.438h.95c.683 0 1.14-.045 1.37-.135a1.142 1.142 0 00.738-1.09c0-.313-.09-.57-.274-.773a1.19 1.19 0 00-.698-.381c-.207-.039-.623-.059-1.248-.059h-.838zm5.754 2.895c0-.875.131-1.61.393-2.204.195-.437.46-.83.797-1.177.34-.348.71-.606 1.113-.774.535-.226 1.152-.34 1.852-.34 1.265 0 2.277.393 3.035 1.178.761.785 1.142 1.877 1.142 3.276 0 1.386-.377 2.472-1.13 3.257-.755.782-1.762 1.172-3.024 1.172-1.277 0-2.293-.388-3.047-1.166-.754-.781-1.13-1.855-1.13-3.222zm1.787-.059c0 .973.225 1.711.674 2.215.45.5 1.02.75 1.711.75.691 0 1.258-.248 1.7-.744.445-.5.667-1.248.667-2.244 0-.985-.216-1.719-.65-2.204-.43-.484-1.002-.726-1.717-.726-.715 0-1.29.246-1.728.738-.438.488-.657 1.227-.657 2.215zm8.432-4.289h5.936v7.148h.755v3.317h-1.441v-1.875h-5.408v1.875h-1.442v-3.317h.727c.355-.734.59-1.586.703-2.554.113-.973.17-2.201.17-3.686v-.908zm1.652 1.441c0 2.61-.236 4.512-.709 5.707h3.264v-5.707h-2.555zm5.49-1.441h1.94l2.004 4.459 1.71-4.459h1.811l-2.9 6.527c-.316.707-.639 1.246-.967 1.617-.328.368-.752.551-1.271.551-.512 0-.912-.033-1.201-.099v-1.289c.246.015.468.023.668.023.402 0 .689-.072.86-.217.177-.148.345-.465.505-.949l-3.159-6.164zm8.368 0h1.734v3.656c.387-.039.648-.138.785-.299.137-.16.348-.605.633-1.336.36-.929.72-1.507 1.084-1.734.36-.226.94-.34 1.74-.34l.252-.006v1.284l-.246-.006c-.355 0-.615.045-.78.134a.978.978 0 00-.398.399c-.101.18-.252.549-.45 1.107a3.821 3.821 0 01-.347.744c-.12.2-.337.387-.65.563.387.109.705.33.955.662.254.332.531.801.832 1.406l1.172 2.356h-2.039l-1.025-2.221a5.66 5.66 0 00-.1-.182c-.02-.031-.092-.166-.217-.404-.222-.422-.406-.685-.55-.791-.141-.105-.358-.16-.65-.164v3.762h-1.735v-8.59zm9.533 8.59v-7.137h-2.549v-1.453h6.826v1.453h-2.543v7.137h-1.734zm8.83-8.59h5.818v1.441h-4.084v7.149h-1.734v-8.59zm6.205 4.348c0-.875.131-1.61.393-2.204a4.06 4.06 0 01.797-1.177c.339-.348.71-.606 1.113-.774.535-.226 1.152-.34 1.851-.34 1.266 0 2.278.393 3.036 1.178.761.785 1.142 1.877 1.142 3.276 0 1.386-.377 2.472-1.131 3.257-.754.782-1.761 1.172-3.023 1.172-1.278 0-2.293-.388-3.047-1.166-.754-.781-1.131-1.855-1.131-3.222zm1.787-.059c0 .973.225 1.711.674 2.215.449.5 1.02.75 1.711.75.691 0 1.258-.248 1.699-.744.445-.5.668-1.248.668-2.244 0-.985-.217-1.719-.65-2.204-.43-.484-1.002-.726-1.717-.726-.715 0-1.291.246-1.729.738-.437.488-.656 1.227-.656 2.215zm8.432-4.289h5.935v7.148h.756v3.317h-1.441v-1.875h-5.408v1.875h-1.442v-3.317h.727c.355-.734.59-1.586.703-2.554.113-.973.17-2.201.17-3.686v-.908zm1.652 1.441c0 2.61-.236 4.512-.709 5.707h3.264v-5.707h-2.555zm13.957 7.149h-1.887l-.75-1.951h-3.433l-.709 1.951h-1.84l3.346-8.59h1.834l3.439 8.59zm-3.193-3.399l-1.184-3.187-1.16 3.187h2.344z" fill="#fff"/></svg>