<svg width="162" height="141" viewBox="0 0 162 141" fill="none" xmlns="http://www.w3.org/2000/svg"><path fill-rule="evenodd" clip-rule="evenodd" d="M148.672 26.409l-10.751 3.93A69.775 69.775 0 0056.996 4.932a69.779 69.779 0 00-45.663 71.48L.107 80.496l1.175 3.225L149.836 29.65l-1.164-3.241zM58.157 8.115a66.396 66.396 0 0176.452 23.41L14.645 75.182A66.39 66.39 0 0158.157 8.115zm103.042 52.727l-1.175-3.219-148.538 54.071 1.175 3.219 11.26-4.099a69.795 69.795 0 00126.5-46.042l10.778-3.93zm-57.634 72.026a66.392 66.392 0 01-76.343-23.278l119.876-43.616a66.4 66.4 0 01-43.533 66.894z" fill="#fff"/><path d="M19.761 103.578L12.465 83.53l13.232-4.815 7.296 20.047-4.137 1.504-5.712-15.692-4.957 1.804 5.712 15.697-4.138 1.503zm21.174-7.707l-7.302-20.048 7.149-2.601a5.705 5.705 0 012.427-.366c.78.058 1.537.293 2.213.688.72.422 1.35.978 1.858 1.64a9.375 9.375 0 011.361 2.547l.23.634c.348.916.553 1.88.606 2.858a6.345 6.345 0 01-.36 2.454c-.27.729-.7 1.388-1.257 1.93a5.787 5.787 0 01-2.1 1.284l-3.005 1.093 2.317 6.362-4.137 1.525zm-1.574-17.2l1.814 4.984 2.842-1.032a1.415 1.415 0 00.913-.935c.14-.52.102-1.073-.11-1.569l-.37-1.027a2.547 2.547 0 00-.94-1.301 1.371 1.371 0 00-1.307-.153L39.36 78.67zm31.7-.962c.347.918.551 1.884.607 2.864a6.335 6.335 0 01-.361 2.448 5.301 5.301 0 01-1.263 1.935 5.756 5.756 0 01-2.093 1.279l-2.355.853a5.81 5.81 0 01-2.427.36 5.216 5.216 0 01-2.214-.683 6.39 6.39 0 01-1.863-1.678 9.52 9.52 0 01-1.378-2.59l-2.65-7.275a9.522 9.522 0 01-.596-2.837 6.434 6.434 0 01.36-2.465 5.16 5.16 0 011.252-1.945 5.76 5.76 0 012.093-1.285l2.334-.847c.773-.296 1.6-.42 2.427-.366.78.058 1.538.293 2.213.688a6.46 6.46 0 011.859 1.64 9.483 9.483 0 011.366 2.553l2.69 7.35zm-6.87-6.012a2.514 2.514 0 00-.935-1.301 1.389 1.389 0 00-1.312-.153l-1.973.716a1.414 1.414 0 00-.929.973 2.556 2.556 0 00.12 1.59l2.815 7.734c.157.516.482.964.924 1.273a1.442 1.442 0 001.323.115l1.973-.716a1.427 1.427 0 00.918-.934 2.426 2.426 0 00-.11-1.564l-2.814-7.733zm33.416 8.089l-3.656 1.328-1.46-4.006-9.214 3.35 1.448 3.99-3.656 1.334-3.045-8.368 1.514-.547c.14-.694.19-1.403.148-2.11a20.814 20.814 0 00-.383-2.99 44.33 44.33 0 00-.912-3.738 69.807 69.807 0 00-1.422-4.372l-1.17-3.208 10.997-4.001 5.712 15.697 2.044-.743 3.055 8.384zM81.544 63.799a52.302 52.302 0 011.853 6.17c.416 1.73.634 3.502.65 5.28l4.335-1.58-4.149-11.395-2.864 1.038.175.487zm26.863 2.388a8.263 8.263 0 01-.727 4.05 4.157 4.157 0 01-2.328 2.214l-1.875.683-1.568-4.302 1.158-.415c.376-.127.689-.393.875-.743a2.99 2.99 0 00.317-1.22L93.65 54l4.455-1.64 4.11 5.378 2.11 3.28-.498-3.826-.503-6.696 4.4-1.601.683 17.293zm12.883.438l-7.297-20.048 4.138-1.509 2.771 7.62 1.093-.394 1.033-9.002 4.738-1.727-1.53 11.068 9.155 8.86-4.985 1.814-6.914-6.794-1.055.383 2.99 8.198-4.137 1.53zm11.226-26.793l13.232-4.815 1.585 4.372-4.547 1.64 5.717 15.697-4.143 1.487-5.712-15.692-4.547 1.64-1.585-4.329zM25.15 47.49l7.106-2.585c1.781-.65 3.312-.803 4.585-.47a3.777 3.777 0 012.667 2.558l.246.689a3.892 3.892 0 01-.814 4.246 4.8 4.8 0 012.65.678 4.088 4.088 0 011.64 2.186l.29.787a4.642 4.642 0 01-.235 4.067c-.705 1.213-1.946 2.148-3.727 2.793l-7.904 2.88L25.15 47.49zm5.767 2.225l1.093 3.082 2.547-.929a1.74 1.74 0 001.005-.77 1.245 1.245 0 00.06-1.055l-.196-.547a1.225 1.225 0 00-.733-.787 1.787 1.787 0 00-1.257.071l-2.52.935zm2.372 6.52l1.333 3.662 3.28-1.186c.437-.13.804-.43 1.022-.83a1.52 1.52 0 00.043-1.23l-.24-.662a1.585 1.585 0 00-.836-.95 1.705 1.705 0 00-1.323 0l-3.28 1.196zm12.423-16.222l2.131 5.853 2.673-.973a6.274 6.274 0 014.782-.054c1.403.612 2.433 1.818 3.088 3.618l.203.547a6.94 6.94 0 01.459 2.525 5.286 5.286 0 01-.514 2.235 5.36 5.36 0 01-1.416 1.815 7.2 7.2 0 01-2.246 1.262l-7.056 2.569-6.482-17.823 4.378-1.574zm7.57 13.04a1.667 1.667 0 001.016-.858 1.765 1.765 0 000-1.377l-.355-.967a1.638 1.638 0 00-.87-1.039 1.722 1.722 0 00-1.316 0l-2.493.907 1.536 4.225 2.482-.89zm8.996 1.094L55.79 36.35l4.373-1.59 6.482 17.817-4.367 1.569zM77.27 32.848l-8.018 2.918.896 2.47 3.515-1.278a8.309 8.309 0 012.52-.547 5.614 5.614 0 012.186.323c.656.242 1.25.628 1.738 1.131a5.081 5.081 0 011.142 1.875l.623 1.705a5.12 5.12 0 01.328 2.186 4.617 4.617 0 01-.607 1.979 5.537 5.537 0 01-1.47 1.64 8.124 8.124 0 01-2.268 1.213l-7.887 2.902-6.488-17.823 12.402-4.51 1.388 3.816zm-.197 8.969a1.553 1.553 0 00-.83-.924 1.706 1.706 0 00-1.323 0l-3.334 1.213 1.383 3.794 3.334-1.214a1.683 1.683 0 001.016-.847 1.514 1.514 0 00.038-1.235l-.284-.787zm20.769-7.002a7.18 7.18 0 01.47 2.569 5.328 5.328 0 01-.47 2.246 5.63 5.63 0 01-1.41 1.826 7.107 7.107 0 01-2.246 1.278l-2.47.897a7.106 7.106 0 01-2.542.464 5.464 5.464 0 01-2.257-.502 5.395 5.395 0 01-1.842-1.421 7.275 7.275 0 01-1.296-2.285l-2.35-6.466a6.97 6.97 0 01-.464-2.541 5.373 5.373 0 011.907-4.094 7.017 7.017 0 012.246-1.279l2.471-.902a7.106 7.106 0 012.541-.464 5.429 5.429 0 014.1 1.913 7.11 7.11 0 011.279 2.246l2.333 6.515zm-6.81-5.078a1.994 1.994 0 00-.901-1.125 1.568 1.568 0 00-1.35-.072l-2.088.76a1.608 1.608 0 00-1.017.935 2 2 0 00.038 1.443l2.509 6.859c.146.467.468.858.896 1.093a1.64 1.64 0 001.367.038l2.088-.76a1.639 1.639 0 001-.901 1.896 1.896 0 00-.028-1.416l-2.514-6.854zm11.932 9.62l-6.488-17.823 7.564-2.733a7.107 7.107 0 012.547-.486 5.371 5.371 0 014.094 1.907 7.228 7.228 0 011.279 2.246l.208.547c.309.82.468 1.688.47 2.563a5.29 5.29 0 01-.509 2.247 5.552 5.552 0 01-1.41 1.825 7.232 7.232 0 01-2.246 1.279l-3.181 1.159 2.055 5.651-4.383 1.618zm-.7-15.544l1.64 4.427 3.006-1.093a1.65 1.65 0 001-.896c.171-.46.161-.968-.027-1.422l-.334-.912a2.01 2.01 0 00-.902-1.132 1.578 1.578 0 00-1.35-.07l-3.033 1.098zM45.51 119.242l5.126 3.202c.383.241.46.492.23.859l-.897 1.437a.543.543 0 01-.657.318.55.55 0 01-.228-.132l-7.608-4.75a.536.536 0 01-.344-.382.543.543 0 01.125-.498l1.815-2.902c.677-1.093 1.432-1.432 2.787-1.273l4.624.612a1.094 1.094 0 001.197-.607l.503-.809c.492-.787.213-1.525-.743-2.121-.957-.595-1.722-.513-2.187.274l-.415.661c-.24.388-.492.459-.858.23l-1.897-1.181a.544.544 0 01-.318-.657.543.543 0 01.133-.228l.71-1.137c1.23-1.968 3.564-2.143 6.373-.388 2.81 1.754 3.727 4.012 2.525 5.941l-.733 1.175c-.934 1.492-2.104 2.137-3.689 1.94l-3.99-.546c-.781-.104-.962 0-1.273.486l-.312.476zm10.062 4.924l2.339-7.302c.694-2.186 2.99-2.935 6.187-1.913s4.64 2.99 3.946 5.154l-2.34 7.308c-.693 2.186-2.989 2.935-6.208 1.902-3.22-1.033-4.619-2.979-3.924-5.149zm6.919 1.558l1.957-6.111c.284-.885-.17-1.53-1.241-1.874-1.071-.345-1.798-.077-2.082.814l-1.957 6.111c-.284.885.148 1.524 1.224 1.869 1.077.344 1.815.076 2.099-.809zm14.621-8.444c.415-.039.595.191.546.644l-.803 11.341 2.574.186c.453.033.64.224.607.656l-.12 1.684c-.034.431-.241.612-.695.584l-8.821-.639c-.454-.033-.64-.241-.607-.672l.12-1.689c.033-.432.24-.59.695-.547l2.683.197.618-8.586-2.733.24c-.437.033-.645-.158-.612-.59l.12-1.689c.033-.41.24-.59.7-.645l5.728-.475zm15.653 2.257l1.213 7.575c.372 2.312-1.208 3.952-4.482 4.476-3.273.525-5.203-.546-5.574-2.864l-.104-.639c-.071-.454.087-.672.546-.744l2.186-.355c.427-.065.629.099.7.547v.131c.153.94.738 1.306 1.787 1.137 1.05-.17 1.514-.7 1.361-1.64l-.322-2.011a5.29 5.29 0 01-2.028.787c-2.886.464-4.853-.716-5.209-2.919l-.295-1.842c-.366-2.29 1.252-3.957 4.531-4.481 3.28-.525 5.302.546 5.69 2.842zm-3.41 1.049c-.148-.918-.777-1.279-1.826-1.093-1.05.186-1.552.732-1.405 1.64l.131.814c.148.918.76 1.306 1.853 1.126 1.093-.18 1.53-.705 1.383-1.64l-.137-.847zm16.746-10.734c.404-.207.656-.142.858.241l.776 1.503a.552.552 0 01.083.506.543.543 0 01-.373.352l-4.405 2.285 5.138 9.903c.213.405.147.662-.241.858l-2.077 1.093a.55.55 0 01-.502.08.546.546 0 01-.35-.369l-6.187-11.926a.548.548 0 01.257-.864l7.023-3.662zm8.608 7.75l-4.995-5.826c-1.487-1.722-.869-4.138 1.776-6.411 2.645-2.274 5.143-2.526 6.624-.804l5.001 5.821c1.481 1.727.886 4.126-1.798 6.427-2.684 2.301-5.127 2.52-6.608.793zm5.28-5.362l-4.176-4.864c-.579-.678-1.497-.574-2.416.213-.918.787-1.142 1.667-.546 2.339l4.181 4.87c.579.672 1.476.59 2.394-.202.918-.793 1.142-1.678.563-2.356zm10.554-5.258l1.978 1.334c.377.251.443.503.203.863l-1.126 1.673a.552.552 0 01-.404.315.54.54 0 01-.487-.157l-3.87-2.596a.545.545 0 01-.186-.891l.339-.503a8.314 8.314 0 00-1.333-1.858 14.933 14.933 0 00-2.187-1.7l-5.197-3.498a.543.543 0 01-.318-.657.54.54 0 01.132-.228l5.044-7.499c.241-.36.498-.393.875-.142l9.264 6.23.629-.934c.24-.36.502-.393.88-.142l3.864 2.602c.377.257.442.508.202.869l-1.104 1.672a.55.55 0 01-.667.298.55.55 0 01-.224-.139l-1.978-1.334-4.329 6.422zm-6.63-11.303l-1.864 2.771 3.28 2.214a14.557 14.557 0 013.634 3.411l2.312-3.438-7.362-4.958zm2.848-13.237a.762.762 0 01.869-.547l13.975.64c.443.038.601.251.459.661l-.77 2.28a.712.712 0 01-.858.513l-2.148-.131-1.154 3.41 1.793 1.197a.714.714 0 01.372.93l-.7 2.071c-.136.415-.393.486-.765.246l-11.505-7.958a.768.768 0 01-.361-.967l.793-2.345zm7.952 5.176l.651-1.93-1.197-.103a39.057 39.057 0 01-4.537-.804 38.25 38.25 0 012.137 1.066c.815.432 1.47.793 1.935 1.093l1.011.678z" fill="#fff"/></svg>