<svg width="16" height="17" viewBox="0 0 16 17" fill="none" xmlns="http://www.w3.org/2000/svg"><path fill-rule="evenodd" clip-rule="evenodd" d="M13.004 8.386c.638-.069 1.185-.18 1.52-.357.665-.356 1.15-.938 1.346-1.619a2.464 2.464 0 00-.294-2.015c-.386-.61-1.02-1.055-1.765-1.24a3.17 3.17 0 00-2.21.255c-.335.176-.714.552-1.099 1.023.255-.54.421-1.028.421-1.38 0-.707-.308-1.385-.856-1.885A3.07 3.07 0 008.001.386a3.07 3.07 0 00-2.066.782 2.554 2.554 0 00-.856 1.885c0 .352.166.84.42 1.38-.384-.47-.763-.847-1.098-1.023a3.17 3.17 0 00-2.21-.255c-.745.185-1.38.63-1.765 1.24A2.464 2.464 0 00.132 6.41c.197.681.681 1.263 1.347 1.62.334.175.88.287 1.52.356-.64.07-1.186.182-1.52.358a2.863 2.863 0 00-.865.684c-.236.278-.41.596-.51.935a2.44 2.44 0 00-.079 1.043c.05.348.175.685.367.99.193.304.45.57.756.784.306.214.656.37 1.028.46a3.185 3.185 0 002.225-.277c.335-.176.714-.553 1.099-1.023-.255.54-.421 1.028-.421 1.38 0 .707.308 1.385.856 1.885A3.07 3.07 0 008 16.387a3.07 3.07 0 002.066-.782c.548-.5.856-1.178.856-1.885 0-.352-.166-.84-.42-1.38.384.47.763.847 1.098 1.023a3.185 3.185 0 002.225.277c.372-.09.722-.246 1.028-.46a2.76 2.76 0 00.756-.785 2.52 2.52 0 00.367-.99 2.44 2.44 0 00-.078-1.042 2.584 2.584 0 00-.51-.935 2.863 2.863 0 00-.866-.684c-.334-.176-.88-.288-1.52-.358zM9.462 3.053c0-.353-.154-.693-.428-.943a1.535 1.535 0 00-1.033-.39c-.388 0-.76.14-1.033.39-.274.25-.428.59-.428.943.015.093.037.185.066.275a5.4 5.4 0 00.267.644c.243.504.579 1.077.93 1.63l.198.307.197-.307a16.91 16.91 0 00.93-1.63c.122-.254.211-.47.268-.646.03-.086.046-.154.056-.205.01-.044.01-.065.01-.068zm-7.787 2c-.194.306-.247.67-.146 1.012.1.341.345.633.68.81.095.034.193.063.293.085.195.042.445.08.745.11.6.06 1.312.082 2.014.08.132 0 .26 0 .39-.002a28.413 28.413 0 00-.192-.31 17.056 17.056 0 00-1.084-1.55 5.76 5.76 0 00-.478-.534c-.053-.051-.11-.1-.168-.146-.037-.03-.056-.04-.059-.043a1.584 1.584 0 00-1.108-.133 1.451 1.451 0 00-.887.621zm1.995 7.155a1.58 1.58 0 01-1.105.127 1.45 1.45 0 01-.882-.62 1.232 1.232 0 01-.147-1.007c.098-.34.34-.632.673-.81l.069-.026c.054-.018.127-.038.224-.059a6.91 6.91 0 01.745-.11c.67-.06 1.342-.087 2.014-.08.132 0 .26 0 .39.002l-.192.31c-.35.554-.726 1.106-1.084 1.55a5.608 5.608 0 01-.478.534c-.07.067-.146.13-.227.189zm5.792 1.512c0 .353-.154.693-.428.943s-.646.39-1.033.39c-.388 0-.76-.14-1.033-.39a1.277 1.277 0 01-.428-.943 1.82 1.82 0 01.066-.275c.057-.175.146-.392.267-.644.243-.504.579-1.077.93-1.63l.198-.307.197.306c.352.554.687 1.127.93 1.631.122.254.211.47.268.646.03.089.052.18.066.273zm4.865-8.667c.194.306.247.67.146 1.012a1.36 1.36 0 01-.68.81 2.313 2.313 0 01-.293.085c-.195.042-.445.08-.745.11a20.74 20.74 0 01-2.014.08c-.132 0-.26 0-.39-.002l.192-.31c.35-.554.726-1.106 1.084-1.55a5.6 5.6 0 01.478-.534c.067-.066.124-.114.167-.146.038-.03.058-.04.06-.043a1.585 1.585 0 011.108-.133c.375.091.694.315.887.621zm-1.995 7.155c.335.174.732.22 1.104.127.373-.092.69-.315.883-.62.193-.304.246-.667.147-1.007a1.355 1.355 0 00-.673-.81c-.003 0-.024-.01-.07-.026a2.32 2.32 0 00-.223-.059 6.708 6.708 0 00-.745-.11c-.67-.06-1.342-.087-2.014-.08-.132 0-.26 0-.39.002l.192.31c.35.554.726 1.106 1.084 1.55.179.223.34.4.478.534.07.067.146.13.226.189zM8 9.72c.387 0 .76-.14 1.033-.39.274-.25.428-.59.428-.944 0-.353-.154-.692-.428-.942A1.535 1.535 0 008 7.054c-.388 0-.76.14-1.033.39-.274.25-.428.589-.428.942 0 .354.154.693.428.943s.645.39 1.033.39z" fill="#FABD5D"/></svg>