<svg width="41" height="48" viewBox="0 0 41 48" fill="none" xmlns="http://www.w3.org/2000/svg"><path d="M29.579 28.981a3.527 3.527 0 00-1.768-.957 3.546 3.546 0 00-.924-3.392 3.526 3.526 0 00-1.768-.957 3.546 3.546 0 00-.923-3.391c-.36-.36-.78-.624-1.227-.796l4.096-4.096a3.551 3.551 0 000-5.018 3.552 3.552 0 00-5.018 0L7.79 24.633c-4.295 4.295-4.294 11.283 0 15.578 4.295 4.295 11.284 4.295 15.578 0L29.58 34a3.553 3.553 0 00-.001-5.019v.001zm-7.71 9.733c-3.47 3.47-9.114 3.47-12.583 0-3.47-3.469-3.47-9.114 0-12.583l14.258-14.258a1.432 1.432 0 012.023 0 1.431 1.431 0 010 2.022L14.725 24.737a1.06 1.06 0 001.498 1.498l4.452-4.452a1.432 1.432 0 012.023 0 1.432 1.432 0 010 2.023l-4.452 4.452a1.06 1.06 0 001.498 1.498l3.623-3.624a1.432 1.432 0 012.023 0 1.432 1.432 0 010 2.022l-3.624 3.624a1.06 1.06 0 001.498 1.498l2.795-2.796a1.432 1.432 0 012.023 0 1.432 1.432 0 010 2.022l-6.212 6.213h-.001z" fill="#000"/><path d="M29.53 16.588a6.415 6.415 0 000-9.062 6.415 6.415 0 00-9.062 0 6.333 6.333 0 00-1.821 3.718 1.06 1.06 0 01-2.101-.265 8.437 8.437 0 012.425-4.95c3.324-3.325 8.732-3.325 12.057 0 3.325 3.324 3.324 8.733 0 12.057a8.514 8.514 0 01-3.846 2.212 1.06 1.06 0 01-.539-2.05 6.395 6.395 0 002.887-1.66z" fill="#000"/></svg>