<svg width="140" height="140" viewBox="0 0 140 140" fill="none" xmlns="http://www.w3.org/2000/svg"><path d="M70 139.673c38.66 0 70-31.054 70-69.362C140 32.002 108.66.948 70 .948S0 32.002 0 70.31c0 38.308 31.34 69.362 70 69.362z" fill="#8B888E"/><path d="M69.603 44.174s14.266 22.165 14.44 22.418c2.372 3.46 5.06 7.383 5.06 12.523 0 10.438-8.57 18.93-19.103 18.93-10.534 0-19.104-8.492-19.104-18.93 0-3.537.901-6.835 2.606-9.539 1.56-2.476 16.1-25.402 16.1-25.402zm-.01-3.097l-1.404 2.215c-.146.23-14.557 22.957-16.103 25.406-1.872 2.968-2.86 6.57-2.86 10.417 0 11.352 9.32 20.586 20.776 20.586s20.775-9.234 20.775-20.586c0-5.645-2.961-9.97-5.343-13.445-.337-.51-9.566-14.849-14.42-22.387l-1.42-2.206h-.002z" fill="#fff"/><path d="M69.72 92.721c.001.862.095 1.72.28 2.562 9.013 0 16.318-7.239 16.318-16.168a12.013 12.013 0 00-.28-2.563c-9.012 0-16.318 7.239-16.318 16.17z" stroke="#fff" stroke-width="1.115" stroke-miterlimit="10"/><path d="M71.415 93.267a12.118 12.118 0 01-1.92 1.74c-6.765-5.899-7.423-16.115-1.47-22.82a12.146 12.146 0 011.92-1.741c6.765 5.9 7.424 16.118 1.47 22.821z" stroke="#fff" stroke-width="1.115" stroke-miterlimit="10"/><path d="M70 92.721c-.001.862-.095 1.72-.28 2.562-9.012 0-16.317-7.239-16.317-16.168 0-.862.094-1.721.28-2.563 9.01 0 16.317 7.238 16.317 16.17z" stroke="#fff" stroke-width="1.115" stroke-miterlimit="10"/><path d="M60.407 84.709l8.736 10.164m10.883-10.922l-9.088 10.575M70 79.533v15.75" stroke="#fff" stroke-width="1.115" stroke-miterlimit="10" stroke-linecap="round"/><path d="M70 136.67c36.986 0 66.969-29.71 66.969-66.36S106.986 3.95 69.999 3.95C33.014 3.95 3.03 33.66 3.03 70.31S33.013 136.67 70 136.67z" stroke="#fff" stroke-width="1.195" stroke-miterlimit="10"/><path d="M13.151 55.593l1.471-4.319a5.75 5.75 0 01.85-1.642c.32-.432.729-.794 1.198-1.063.445-.25.94-.4 1.45-.438a4.038 4.038 0 011.615.218l.032.01c.622.208 1.127.505 1.517.892.383.376.675.832.855 1.335.184.525.267 1.08.244 1.635a6.148 6.148 0 01-.338 1.792l-.743 2.18 3.553 1.19-.65 1.905-11.054-3.695zm7.163-2.231c.25-.733.262-1.373.036-1.92-.225-.548-.628-.92-1.208-1.114l-.032-.01c-.655-.22-1.222-.17-1.701.147-.48.318-.842.838-1.088 1.56l-.766 2.246 3.995 1.336.764-2.245zm-.533-13.165l1.01-1.596 12.681 1.879-1.15 1.818-3.016-.49-2.932 4.63 1.748 2.491-1.116 1.763-7.225-10.495zm7.587 1.288l-5.024-.765 2.89 4.136 2.134-3.37zm-1.248-9.937l3.746-3.573c.529-.505 1.068-.878 1.619-1.12a3.953 3.953 0 011.616-.361c.446.016.884.12 1.29.305.433.201.824.482 1.151.827l.023.024c.31.309.562.67.746 1.065.162.354.26.733.291 1.121.028.383-.01.767-.11 1.137a4.28 4.28 0 01-.481 1.112l5.33.987-1.74 1.661-4.892-.927-.024.023-1.83 1.747 2.819 2.903-1.465 1.397-8.09-8.328zm7.642.663c.53-.505.83-1.033.899-1.583.07-.55-.104-1.04-.52-1.47l-.023-.023c-.441-.455-.929-.654-1.462-.597-.534.056-1.078.348-1.632.875L28.87 31.47l2.727 2.809 2.166-2.067zm6.218-11.896l1.648-.936 10.294 7.572-1.88 1.068-2.427-1.84-4.787 2.718.359 3.013-1.82 1.034-1.387-12.63zm6.083 4.674l-4.07-3.02.585 4.998 3.485-1.978zm3.627-9.34l5.027-1.407c1.292-.362 2.362-.307 3.211.165.644.358 1.07.902 1.278 1.634l.009.031c.092.303.133.62.121.936-.013.267-.066.53-.156.781a2.56 2.56 0 01-.364.66c-.147.195-.31.379-.488.548a6.02 6.02 0 011.017.154c.302.073.592.192.858.352.26.16.487.37.667.618.204.29.355.614.445.957l.01.031c.141.499.168.966.08 1.402a2.72 2.72 0 01-.57 1.19c-.322.381-.71.702-1.148.947a7 7 0 01-1.64.674l-5.188 1.451-3.168-11.124zm5.98 3.39c.638-.18 1.114-.448 1.427-.804.313-.356.397-.788.252-1.297l-.01-.032c-.126-.446-.393-.746-.8-.9-.406-.153-.929-.142-1.569.036l-2.829.791.843 2.956 2.685-.75zm1.917 4.542c.671-.188 1.163-.463 1.474-.824.312-.362.395-.797.25-1.306l-.01-.032c-.135-.477-.43-.792-.883-.945-.453-.154-1.069-.122-1.846.096l-3.119.873.87 3.051 3.264-.913zm5.325-11.064l8.622-.447.096 1.83-6.59.342.155 2.97 5.842-.304.097 1.83-5.841.302.162 3.084 6.675-.347.097 1.831-8.705.452-.61-11.543zm12.865-.23l1.864.346 4.644 8.995 1.486-7.857 1.999.371-2.149 11.364-1.685-.313-4.783-9.256-1.53 8.083-1.998-.37 2.152-11.363zm24.167 7.949l7.142 4.864-1.048 1.513-5.466-3.724-1.82 2.627 4.849 3.303-1.048 1.511-4.851-3.305-2.69 3.878-1.676-1.141 6.608-9.526zm10.037 7.369l3.531 3.782c.498.533.864 1.075 1.098 1.627.225.506.338 1.054.332 1.607a3.321 3.321 0 01-.333 1.273 3.726 3.726 0 01-.858 1.124l-.024.022c-.319.3-.688.544-1.092.718a3.421 3.421 0 01-1.137.266 3.465 3.465 0 01-1.144-.132 4.344 4.344 0 01-1.113-.499l-1.102 5.264-1.642-1.757 1.033-4.829-.023-.024-1.726-1.849-2.985 2.737-1.38-1.479 8.565-7.851zm-.821 7.56c.5.535 1.026.842 1.579.92.553.08 1.051-.083 1.493-.488l.025-.023c.467-.427.677-.906.631-1.436-.046-.53-.33-1.074-.852-1.633l-2.032-2.176-2.887 2.647 2.043 2.188zm9.655 2.729l4.294 7.422-1.605.912-3.282-5.674-2.603 1.478 2.911 5.03-1.605.911-2.911-5.03-2.703 1.537 3.323 5.745-1.605.913-4.335-7.495 10.121-5.749zm5.871 11.128l2.584 8.163-1.766.548-1.975-6.24-2.863.89 1.752 5.53-1.768.55-1.75-5.532-2.974.925 2.001 6.319-1.768.549-2.609-8.243 11.136-3.46zm2.786 33.41l-1.27 4.379a5.733 5.733 0 01-.773 1.678c-.3.447-.691.827-1.148 1.117-.433.27-.921.442-1.429.504a4.037 4.037 0 01-1.623-.144l-.032-.01c-.631-.178-1.149-.453-1.556-.824a3.54 3.54 0 01-.917-1.294 4.39 4.39 0 01-.318-1.623c-.006-.61.08-1.218.254-1.803l.641-2.212-3.604-1.026.561-1.937 11.214 3.195zm-7.053 2.555c-.215.742-.198 1.382.052 1.92.251.537.671.89 1.261 1.057l.032.008c.665.19 1.229.115 1.693-.224.464-.34.802-.875 1.014-1.609l.661-2.277-4.055-1.154-.658 2.279zm1.135 13.133l-.935 1.638-12.755-1.306 1.067-1.868 3.034.353 2.717-4.757-1.861-2.41 1.034-1.81 7.699 10.16zm-7.637-.943l5.055.538-3.077-4.003-1.978 3.465zm1.706 9.864l-3.577 3.739c-.504.528-1.026.925-1.565 1.192a3.957 3.957 0 01-1.598.435 3.403 3.403 0 01-1.303-.247 3.774 3.774 0 01-1.188-.772l-.025-.024a3.7 3.7 0 01-.793-1.03 3.294 3.294 0 01-.286-2.247c.089-.396.233-.778.43-1.134l-5.373-.745 1.664-1.737 4.929.703.023-.024 1.748-1.827-2.954-2.773 1.399-1.462 8.469 7.953zm-7.666-.316c-.506.529-.781 1.069-.825 1.622-.045.552.152 1.033.59 1.442l.024.023c.462.433.958.61 1.488.53.53-.08 1.06-.397 1.589-.95l2.059-2.152-2.855-2.682-2.07 2.167zm-5.66 12.168l-1.603 1.01-10.636-7.097 1.83-1.152 2.508 1.727 4.656-2.933-.499-2.993 1.773-1.117 1.971 12.555zm-6.29-4.392l4.205 2.831-.816-4.966-3.39 2.135zm-3.202 9.501l-4.957 1.631c-1.274.419-2.346.412-3.215-.022-.659-.328-1.11-.852-1.352-1.574l-.011-.031a2.862 2.862 0 01-.163-.927 2.518 2.518 0 01.451-1.463 4.4 4.4 0 01.462-.567 5.944 5.944 0 01-1.022-.107c-.306-.06-.6-.165-.874-.313a2.366 2.366 0 01-.695-.589 3.029 3.029 0 01-.488-.936l-.01-.032c-.165-.491-.213-.957-.144-1.397.068-.44.245-.856.514-1.212a4.13 4.13 0 011.102-.999 7 7 0 011.609-.746l5.116-1.684 3.677 10.968zm-8.25-7.57c-.663.218-1.142.514-1.437.889-.295.375-.358.814-.188 1.316l.01.031c.157.47.465.772.925.905s1.073.074 1.84-.179l3.074-1.011-1.007-3.01-3.217 1.059zm2.12 4.454c-.63.206-1.093.494-1.39.866-.296.371-.36.807-.192 1.308l.01.03c.148.439.428.727.842.864s.936.101 1.566-.107l2.79-.917-.978-2.916-2.648.872zm-6.932 6.834l-8.592.838-.18-1.824 6.568-.64-.293-2.959-5.823.567-.182-1.824 5.823-.567-.305-3.074-6.654.648-.181-1.824 8.675-.845 1.144 11.504zm-12.837.815l-1.878-.261-5.056-8.774-1.121 7.916-2.014-.28 1.62-11.448 1.698.235 5.205 9.028 1.153-8.144 2.014.28-1.621 11.448zm-24.512-6.847l-7.358-4.539.977-1.556 5.632 3.474 1.7-2.706-4.995-3.081.978-1.556 4.995 3.081 2.51-3.996 1.726 1.064-6.165 9.815zm-10.366-6.912l-3.702-3.618c-.522-.511-.913-1.036-1.172-1.575-.26-.54-.395-1.07-.406-1.591a3.34 3.34 0 01.274-1.288c.192-.434.465-.828.805-1.162l.024-.023a3.75 3.75 0 011.056-.766 3.382 3.382 0 012.273-.237c.397.095.78.245 1.134.447l.859-5.306 1.72 1.682-.808 4.87.024.023L35.917 108l2.856-2.869 1.448 1.415-8.193 8.23zm.471-7.589c-.524-.512-1.064-.795-1.62-.849-.555-.054-1.045.131-1.469.556l-.023.023c-.446.449-.635.937-.565 1.463.07.527.38 1.058.927 1.594l2.132 2.083 2.762-2.776-2.144-2.094zm-9.764-2.28l-4.633-7.218 1.56-.984 3.543 5.518 2.531-1.597-3.14-4.89 1.56-.985 3.14 4.89 2.63-1.657-3.588-5.587 1.56-.984 4.679 7.287-9.842 6.207zm-6.384-10.852l-2.957-8.036 1.739-.628 2.26 6.145 2.819-1.018-2.006-5.448 1.739-.627 2.005 5.445 2.928-1.057-2.288-6.221 1.738-.628 2.986 8.115-10.963 3.958z" fill="#fff"/><path d="M108.895 70.31c0 21.286-17.414 38.541-38.896 38.541-21.481 0-38.894-17.255-38.894-38.54C31.105 49.024 48.521 31.77 70 31.77c21.479 0 38.896 17.255 38.896 38.54z" stroke="#fff" stroke-width="1.195" stroke-miterlimit="10"/><path d="M20.272 71.11c0 .534-.16 1.056-.46 1.5-.3.445-.725.791-1.223.996a2.75 2.75 0 01-2.973-.585 2.68 2.68 0 01-.591-2.945 2.708 2.708 0 011.004-1.213 2.745 2.745 0 013.444.336 2.69 2.69 0 01.799 1.91zm106.061 0c0 .534-.16 1.056-.46 1.5a2.716 2.716 0 01-1.224.996 2.747 2.747 0 01-2.972-.585 2.677 2.677 0 01-.591-2.945 2.707 2.707 0 011.004-1.213 2.746 2.746 0 013.444.336c.511.506.798 1.194.799 1.91z" fill="#fff"/></svg>