<svg width="52" height="52" viewBox="0 0 52 52" fill="none" xmlns="http://www.w3.org/2000/svg"><path d="M26 50.751A24.83 24.83 0 011.17 25.947 24.856 24.856 0 0126 1.117a24.856 24.856 0 0124.804 24.83A24.83 24.83 0 0126 50.751zM26 .077a26 26 0 00-25.87 26A26 26 0 0026 51.947a26 26 0 0026-25.87 26 26 0 00-26-26z" fill="#fff"/><path d="M26 1.326A24.648 24.648 0 001.378 25.948 24.648 24.648 0 0026 50.57a24.648 24.648 0 0024.622-24.622A24.648 24.648 0 0026 1.326zm0 49.634A25.038 25.038 0 01.988 25.948 25.038 25.038 0 0126 .936a25.038 25.038 0 0124.986 25.012A25.038 25.038 0 0126 50.96zm0-50.7A25.714 25.714 0 00.312 25.948 25.714 25.714 0 0026 51.636a25.714 25.714 0 0025.662-25.688A25.714 25.714 0 0026 .26zM26 52a26 26 0 110-52 26 26 0 010 52z" fill="#fff"/><path d="M29.302 41.729a34.072 34.072 0 01-3.848-2.834c-2.392-2.054-4.42-4.03-6.682-6.266-.676-.676-.65-.65 0-1.352.312-.312.78-.468.936-.988a20.645 20.645 0 01-2.6-.26l-4.16-.416c-.364 0-.442 0-.416.442v6.76c.598-.52 1.17-.962 1.716-1.456s.234-.208.39 0c.65.702 1.014 1.17 1.69 1.82 2.912 2.86 6.006 5.564 9.178 8.138a.417.417 0 00.598 0l3.25-2.6c.494-.416.468-.442 0-.806" fill="#fff"/><path d="M14.482 34.815a.598.598 0 01.416.234c.26.26.468.52.676.754l.988 1.04c2.808 2.756 5.824 5.407 9.178 8.137h.182l3.25-2.6.182-.156-.208-.13a36.01 36.01 0 01-3.9-2.886c-2.366-2.027-4.316-3.925-6.578-6.161-.39-.364-.598-.572-.598-.884 0-.312.208-.494.598-.858l.364-.287.208-.155h-.91a7.546 7.546 0 00-1.04-.13l-4.186-.416V36.4l1.17-1.014a.625.625 0 01.442-.233l-.234-.338zm11.544 11.154a.702.702 0 01-.468-.183c-3.354-2.6-6.37-5.381-9.204-8.137-.416-.416-.702-.755-1.014-1.093l-.65-.701c-.364.364-.754.676-1.17 1.04l-1.04.857v-7.435a.832.832 0 01.208-.624.806.806 0 01.598 0l4.108.415c.384.016.767.059 1.144.13.458.052.92.052 1.378 0h.442l-.13.442a1.483 1.483 0 01-.728.884l-.286.235c-.148.13-.28.278-.39.441l.416.416c2.262 2.21 4.186 4.109 6.552 6.137a34.427 34.427 0 003.822 2.807c.338.209.546.364.572.624.026.26-.182.443-.468.703l-3.276 2.6a.702.702 0 01-.52.208m-11.309-30.89a12.4 12.4 0 014.42 1.508 8.619 8.619 0 012.027 1.352c.208.182.39.364 0 .65-.39.286-.65.65-.988.988-.338.338-.364.234-.312.416.052.182.364 0 .546.156 2.054 0 4.108 0 6.162.156.416 0 .364-.182.364-.442 0-1.612-.234-6.058-.26-6.812l-1.43 1.43c-.207.234-.337.312-.65 0a9.647 9.647 0 00-3.9-2.184c-.623-.182-1.274-.208-1.898-.364a8.423 8.423 0 00-4.472.26 9.204 9.204 0 00-3.328 1.612 7.358 7.358 0 00-2.366 2.6h.208a9.1 9.1 0 015.85-1.456" fill="#fff"/><path d="M20.306 19.604h6.163c0-.988 0-3.146-.235-6.136l-.91.936a.676.676 0 01-1.091 0 9.412 9.412 0 00-3.77-2.106 6.048 6.048 0 00-.988-.208l-.91-.182a8.918 8.918 0 00-4.317.26 9.751 9.751 0 00-3.223 1.56 7.54 7.54 0 00-1.768 1.768 9.283 9.283 0 015.2-1.092 11.86 11.86 0 014.16 1.351l.364.183a8.732 8.732 0 012.105 1.404.753.753 0 01.339.598.756.756 0 01-.312.545 5.65 5.65 0 00-.703.677l-.26.26.157.182zm6.24.78h-6.162c-.181 0-.598 0-.727-.364a.65.65 0 01.285-.676l.235-.26c.247-.265.507-.517.78-.755a8.788 8.788 0 00-1.95-1.3l-.39-.181a11.283 11.283 0 00-3.926-1.3 8.892 8.892 0 00-5.668 1.404H8.19l.26-.468a7.8 7.8 0 012.444-2.782 10.114 10.114 0 013.458-1.664 8.995 8.995 0 014.653-.26c.275.067.553.119.832.156l1.066.234a9.776 9.776 0 014.005 2.236h.13l1.014-1.04.91-.91v.701c.208 3.432.311 5.825.285 6.839a.91.91 0 01-.181.598.597.597 0 01-.468.156m15.366-5.798a9.412 9.412 0 01-.39 6.837 14.352 14.352 0 01-3.38 5.044c-.208.208-.338.234-.572 0-.234-.234-.936-.91-1.378-1.326-.156 0-.156.182-.156.312v6.552c0 .286 0 .312.364.338a12.92 12.92 0 002.236-.234 27.954 27.954 0 004.602-.39c-.468-.468-.91-.91-1.378-1.326-.468-.416-.286-.442 0-.702a8.428 8.428 0 001.456-1.872 10.401 10.401 0 001.43-4.316c.26-1.954.047-3.943-.624-5.798a10.79 10.79 0 00-2.158-3.406c.006.096.006.191 0 .286" fill="#fff"/><path d="M36.35 32.395c.413.065.834.065 1.247 0h1.586a29.135 29.135 0 003.328-.26l-.936-.884a.754.754 0 01-.312-.572.78.78 0 01.26-.572 8.166 8.166 0 001.43-1.846 9.985 9.985 0 001.378-4.16c.27-1.9.065-3.84-.598-5.642a12.849 12.849 0 00-1.196-2.236 10.01 10.01 0 01-.702 5.928 14.612 14.612 0 01-3.458 5.2c-.156.156-.312.312-.52.26a.728.728 0 01-.52-.26 10.938 10.938 0 00-.962-.935v6.291l-.026-.312zm.285.65h-.286a.598.598 0 01-.65-.676v-6.526a.65.65 0 01.312-.598h.208l.572.52c.338.313.676.625.988.962a13.935 13.935 0 003.328-4.94 9.152 9.152 0 00.39-6.604 1.165 1.165 0 010-.208l-.234-1.196.754.78a10.765 10.765 0 012.21 3.536c.708 1.891.931 3.93.65 5.928a10.244 10.244 0 01-1.482 4.446 7.8 7.8 0 01-1.508 1.95v.13c.338.286.65.599.962.91l.884.832-.598.13c-1.332.221-2.68.343-4.03.364h-.65a5.208 5.208 0 00-.858 0 7.81 7.81 0 01-1.118.13" fill="#fff"/><path d="M28.652 19.213h.182c.182 0 .494-.312.91-.728a6.292 6.292 0 012.938-1.742 6.552 6.552 0 014.16.338 4.239 4.239 0 012.288 1.534c.494.795.83 1.678.988 2.6a.598.598 0 00.286-.416 9.494 9.494 0 00.546-2.132 5.563 5.563 0 00-2.6-6.058 9.179 9.179 0 00-3.302-.806c-2.26-.19-4.52.377-6.422 1.612a.806.806 0 00-.442.806c.13 1.768.234 3.198.338 4.992v.208" fill="#fff"/><path d="M34.321 16.197a6.942 6.942 0 012.6.52c.968.288 1.822.87 2.444 1.664.362.564.642 1.177.832 1.82a8.395 8.395 0 00.416-1.768 5.2 5.2 0 00-2.392-5.72 8.813 8.813 0 00-3.198-.78 9.932 9.932 0 00-6.24 1.586.442.442 0 00-.286.494c.13 1.69.234 3.068.338 4.706l.234-.156a1.97 1.97 0 00.416-.338 6.474 6.474 0 013.094-1.846 7.797 7.797 0 011.716-.182h.026zm5.564 5.2v-.364a6.917 6.917 0 00-.936-2.366 4.186 4.186 0 00-2.158-1.43 6.423 6.423 0 00-3.978-.312 5.85 5.85 0 00-2.782 1.664c-.156.16-.33.3-.52.416l-.39.312a.468.468 0 01-.442.156s-.39 0-.364-.494v-.156c0-1.716-.208-3.12-.338-4.836a1.04 1.04 0 01.598-1.092 10.4 10.4 0 016.604-1.664 9.543 9.543 0 013.406.832 5.955 5.955 0 012.756 6.396 8.422 8.422 0 01-.572 2.184.857.857 0 01-.416.598l-.468.156zm-25.689 6.396a16.024 16.024 0 01-1.846-2.314 5.98 5.98 0 01-.676-4.316 5.8 5.8 0 013.952-4.628h-1.144a7.8 7.8 0 00-5.59 1.508 5.199 5.199 0 00-2.158 3.355 10.4 10.4 0 00.624 4.887 13.286 13.286 0 003.692 5.2c.052-.935.052-1.872 0-2.808 0-.415 0-.598.546-.546 1.02.044 2.037.157 3.042.338l-.52-.598" fill="#fff"/><path d="M13.7 16.821a7.254 7.254 0 00-4.627 1.456 5.2 5.2 0 00-2.054 3.146 10.4 10.4 0 00.65 4.758 11.44 11.44 0 003.12 4.524v-2.08a.832.832 0 01.208-.728.806.806 0 01.676-.156h.754l1.456.13-.52-.598a9.404 9.404 0 01-1.3-1.69 6.214 6.214 0 01-.728-4.55 5.642 5.642 0 012.938-4.238h-.598l.026.026zm-2.417 15.262l-.494-.468a13.26 13.26 0 01-3.744-5.2 10.894 10.894 0 01-.676-5.044 5.616 5.616 0 012.288-3.562 8.112 8.112 0 015.798-1.56H16.3l-.442.52a2 2 0 01-.676.39 4.913 4.913 0 00-3.224 4.082 5.564 5.564 0 00.65 4.108 8.637 8.637 0 001.222 1.586l.598.676.494.598.598.702-.91-.182a13.852 13.852 0 00-2.236-.286h-.962v.234c.054.944.054 1.89 0 2.834l-.13.572zM37.7 34.268c-.931.033-1.86.12-2.781.26-.364 0-.468 0-.442-.468.026-.468 0-1.274 0-1.924a2.391 2.391 0 000-1.04l-.208.156c-1.352 1.404-2.6 2.808-4.16 4.134-.936.858-1.509 1.248-2.47 2.106-.287.26-.468.442 0 .78 1.066.754 2.105 1.534 3.172 2.262a.572.572 0 00.858 0c2.34-2.08 4.186-3.822 6.448-6.188h-.364" fill="#fff"/><path d="M27.612 37.908h.156l1.352.988 1.82 1.274c.234.156.26 0 .468 0 2.262-2.028 3.978-3.64 5.928-5.642a5.717 5.717 0 00-1.144.13c-.433.027-.867.027-1.3 0a.727.727 0 01-.572-.208.7.7 0 01-.156-.572v-2.21a.182.182 0 000-.13c-1.378 1.43-2.6 2.6-3.952 3.9-.468.442-.858.754-1.248 1.092-.39.338-.754.598-1.196 1.014a1.169 1.169 0 00-.182.182l.026.182zm3.536 2.912a.91.91 0 01-.572-.208l-1.846-1.3-1.352-.962a.885.885 0 01-.442-.598c0-.286.208-.494.39-.65.182-.156.858-.754 1.222-1.066.364-.312.78-.624 1.248-1.066 1.378-1.274 2.6-2.6 4.16-4.108h.13l.416-.312.156.364c.115.289.16.6.13.91v2.21h.13c.39.026.78.026 1.17 0a5.669 5.669 0 011.638-.13h1.092l-.52.546c-2.184 2.236-3.978 3.978-6.474 6.188a.91.91 0 01-.65.312" fill="#fff"/></svg>