<svg width="123" height="140" viewBox="0 0 123 140" fill="none" xmlns="http://www.w3.org/2000/svg"><path d="M115.518 75.739C107.017 22.215 87.386-2.632 64.661 1.8 39-3.926 13.494 19.138 7.826 72.9c-2.11 20.01-9.244 25.311-6.54 38.474 6.535 31.847 40.703 3.152 62.267 28.299.098 0-.38-.435.098 0h.248c14.24-22.062 50.53 2.894 57.941-28.289 3.109-13.075-3.154-15.771-6.322-35.645z" fill="#8B888E"/><path d="M46.684 65.019a6.747 6.747 0 00-2.165-.065c.029 1.797 2.022 1.897 2.165.065zm.731-1.961s.296.09.76.286l.095-.3a4.367 4.367 0 00-.855.014zm2.853-.275c.088-.195.184-.391.284-.584a19.146 19.146 0 01-1.55-.716c-.075.33-.142.651-.201.954.497.08.987.195 1.467.346zm-1.673.752c.389.184.767.389 1.133.613.07-.2.155-.437.258-.694a5.469 5.469 0 00-1.31-.366l-.08.447z" fill="#F2F0F5"/><path d="M66.494 111.551c-2.674-1.432-3.317.267-6.523-.213-3.508-.527-7.646-3.967-6.152-5.189 1.096-.902 3.4.527 5.562.938 2.1.4 4.48.164 6.042 0 2.368-.239 3.728-3.541 1.365-4.364-1.912-.666-2.077.043-4.377.043-2.342 0-3.002-1.406-6.452-.239-1.17.394-3.557.511-4.011.36-.454-.15-1.434-.045-2.096.406-1.304-.701-.803-2.808 1.307-2.147 1.166.36 1.806-.351 3.312-1.553 1.505-1.203 3.565-1.757 5.323-1.153 1.759.604 2.258 1.002 4.017.3 1.758-.7 3.715-1.605 6.023-1.004 2.308.602 2.963 1.205 5.474.654s4.898-10.841 9.065-13.36c5.106-3.083 8.826-12.228 1.955-11.878-2.15.11-4.841 0-6.69-.596-2.266-.737-2.629-2.804-.39-2.603 2.084.188 2.774-.124 3.312-.53.774-.59.064-.752-.91-.575-.43.076-1.85.325-3.262-.217s-1.912-2.386-1.912-2.386-1.655.802-1.672 2.424c-.702.14-1.392.334-2.064.578-.581.255-2.309.033.798-2.568 1.123-.942-.146-1.52-1.016-.832-.87.687-1.69 1.484-2.52 3.285-1.96 4.254.439 10.247 1.983 13.673 1.543 3.427 2.487 5.805 1.433 7.817-.757 1.45-2.466 3.027-5.753 3.256-2.244.158-2.526 2.057-5.066 2.057-2.284 0-2.451-3.579-4.766-4.056-1.807-.38-3.145-1.34-3.632-2.57-.144-.365.136-.906 1.03-1.312.943-.427 2.088-.985 3.37-.699 1.284.286 2.536.954 4.142.926 1.605-.029 4.061-2.148 3.854-3.992-.822-6.945-1.252-13.537-.643-18.049 1.498-11.116 17.726-8.15 16.89-16.288-1.22-11.87-9.753-21.154-18.9-23.55-11.882 24.762-26.47 25.446-35.307 34.541.848 11.188-.896 30.85 11.691 45.311 10.212 11.733 17.748 13.933 24.08 13.239 3.778-.413 5.182-6.215 2.086-7.885zM43.946 72.377a8.518 8.518 0 01-5.383-2.715 5.311 5.311 0 00-1.365 1.233c.228-.595.61-1.12 1.106-1.52-.107-.124-.21-.238-.308-.37-.69.275-1.33.66-1.897 1.141a4.11 4.11 0 011.613-1.508c-.117-.157-.225-.31-.327-.456a6.936 6.936 0 00-2.39 1.04 5 5 0 012.11-1.445l-.294-.444a5.545 5.545 0 01-3.744-.66c1.355.302 2.334.405 3.381.159-.153-.186-.33-.403-.511-.635-1.07-.016-2.461-.238-3.546-1.057 1.207.382 2.2.65 3.228.635-.167-.239-.332-.465-.478-.699a5.33 5.33 0 01-2.93-1.62c.82.45 1.691.796 2.596 1.03-.33-.655-.433-1.226 0-1.464.042-.024.086-.044.131-.062a11.751 11.751 0 01-1.548-2.08 12.84 12.84 0 002.112 1.908 7.537 7.537 0 011.367-.095 7.274 7.274 0 01-1.195-2.408c.545.895 1.21 1.713 1.976 2.429.5.024.939.057 1.216.057.165-.004.329-.016.492-.038-.478-.573-1.17-1.556-1.292-2.624a12.322 12.322 0 001.882 2.545l1.119-.16a8.047 8.047 0 01-.925-2.676c.387.918.871 1.792 1.445 2.607.385-.05.787-.098 1.195-.136a7.478 7.478 0 01-.341-2.818c.207.952.511 1.879.907 2.768.44-.03.882-.052 1.31-.052h.076a7.793 7.793 0 01.218-2.625c.025.881.12 1.759.284 2.625.43 0 .86 0 1.288.026a8.728 8.728 0 01.478-1.818c-2.784-1.572-5.783-3.402-7.324-3.371-1.495.033-5.94 1.832-5.94 1.832 1.255-1.735 4.923-3.624 6.232-3.712 3.524-.239 11.35 2.46 15.793 4.92 1.835 1.013-.239 4.029-5.075 2.185-.062.214-.121.42-.174.613.275.097.543.209.805.336 1.47.716.858 1.852.141 1.193a5.098 5.098 0 00-1.147-.79c-.08.32-.145.59-.193.795a8.66 8.66 0 013.132 3.579c.227.513-.05.675-.291.675-.242 0-2.511-.239-2.511-.239.917-.238.821-.675.434-1.157a6.378 6.378 0 00-1.73-1.362c.043.274.163 1.594-1.216 2.713-1.22.267-2.475.347-3.72.238a3.361 3.361 0 01-1.541-2.579c-1.316.239-1.29 1.42-1.109 2.193-.676-.194-1.488.176-.59.756 3.426 2.207 7.916.785 8.98.58.9-.177 1.275.515.84 1.093-.434.577-2.098 2.061-6.852 1.49z" fill="#F2F0F5"/><path d="M48.849 61.401a58.88 58.88 0 01-1.795-.978 82.348 82.348 0 00-.122 1.811 18.44 18.44 0 011.558.146c.11-.31.23-.642.359-.979zm29.556 4.346c-.113.064.363.687 1.015.65.652-.035 1.195-.832.834-1.085-.36-.252-.906-.107-1.85.435zm-57.282-5.584C58.616 39.93 62.227 17.24 64.167 11c-9.591 18.288-22.482 34.996-43.044 49.163zm41.249-56.18c-7.932.41-14.99 2.563-21.131 6.375-15.42 9.575-25.045 29.628-28.118 58.932 7.28-31.27 21.397-57.553 49.25-65.307zM79.9 117.751c-5.135 1.908-9.59 4.443-12.34 9.378 1.313-1.269 2.871-2.441 4.642-3.494 13.595-8.081 35.001-6.704 38.357-23.67-7.635 12.677-20.487 14.004-30.66 17.786zM22.707 94.707c-5.726 23.319 21.495 20.974 38.711 35.927-12.221-16.424-39.234-14.078-38.711-35.926z" fill="#F2F0F5"/><path d="M102.864 90.132c3.771 6.862 8.86 12.047 16.58 14.077-7.109-3.729-11.629-10.531-15.041-18.689C94.518 61.9 93.93 26.897 66.761 22.225c25.38 9.353 24.434 46.668 36.103 67.907zm-93.762 10.16a24.397 24.397 0 01-4.449 3.917 26.207 26.207 0 004.466-1.978c15.31-8.696 5.653-27.826 16.649-39.818-13.66 11.23-6.736 26.61-16.666 37.879z" fill="#F2F0F5"/></svg>