<svg width="178" height="144" viewBox="0 0 178 144" fill="none" xmlns="http://www.w3.org/2000/svg"><path fill-rule="evenodd" clip-rule="evenodd" d="M115.334 132.853c7.994-3.521 14.988-8.778 20.196-13.948 11.097-11.012 16.56-28.21 16.56-45.015a60.43 60.43 0 00-4.667-23.289 60.817 60.817 0 00-13.292-19.743 61.344 61.344 0 00-19.893-13.192 61.718 61.718 0 00-23.465-4.632c-6.08.093-6.226-8.51 0-8.433a70.206 70.206 0 0142.704 14.436c12.235 9.366 20.996 22.494 24.912 37.328a68.854 68.854 0 01-3.268 44.656c-6.036 14.117-16.616 25.851-30.086 33.364a70.323 70.323 0 01-44.359 8.159c-15.288-2.224-29.403-9.415-40.135-20.448-10.731-11.033-17.475-25.285-19.175-40.528a68.914 68.914 0 019.779-43.709c-3.782 9.569-7.77 19.833-8.484 29.469-.641 8.626.445 18.433 3.689 27.855 12.417 36.078 54.034 53.064 88.984 37.67z" fill="#8B888E"/><path fill-rule="evenodd" clip-rule="evenodd" d="M54.032 9.884c-14.24.743-23.897 9.89-21.43 25.467 14.826-1.004 22.365-9.107 21.43-25.467zM48.95 50.18c-14.047-2.43-25.518 4.348-26.618 20.078 14.683 2.305 23.85-3.922 26.618-20.079zm5.91 33.821c-14.215-1.098-24.988 6.728-24.58 22.491 14.832.916 23.368-6.148 24.58-22.49zM.443 43.278c14.129 1.924 22.977 11.842 19.202 27.16C4.96 68.204-1.876 59.502.443 43.277zm.294 42.66c14.216-1.098 24.989 6.727 24.581 22.489-14.838.915-23.374-6.147-24.58-22.489z" fill="#8B888E"/><path fill-rule="evenodd" clip-rule="evenodd" d="M84.487 116.819l11.898-2.584 3.065-3.204c10.404-31.629 28.211-59.652 54.156-83.604.615-.569 1.645-.625 1.845.235.133 2.554.268 5.108.404 7.662.135 1.878 1.46 1.757 2.647.168 6.353-8.516 11.7-17.533 15.109-27.793.901-2.709.348-3.397-2.844-3.013-10.489 1.262-20.693 3.677-30.507 8.44-2.358 1.247-2.098 2.267.1 2.87 2.198.602 4.458 1.014 6.676 1.525 1.476.365 1.522 1.197.461 2.388-20.351 12.19-44.96 37.166-53.956 59.415-1.27 3.137-2.742 2.594-3.438-.291-2.128-8.841-4.555-19.656-9.531-27.239-2.66-4.047-7.071-6.523-12.814-6.692-5.217-.153-5.314-.383-10.375.962 13.458 16.134 25.464 50.158 27.104 70.755z" fill="#8B888E" stroke="#F2F0F5" stroke-width="7.874" stroke-linecap="round" stroke-linejoin="round"/><path fill-rule="evenodd" clip-rule="evenodd" d="M83.757 118.045l12.628-3.852c1.519-.457 2.478-1.396 3.065-3.204 10.3-31.66 28.685-60.205 54.63-84.151.614-.57 1.809-.318 1.758.541.135 2.554-.123 5.354.012 7.908.136 1.878 1.461 1.757 2.647.168 6.354-8.516 11.7-17.533 15.11-27.793.9-2.71.347-3.397-2.844-3.013-10.49 1.262-20.694 3.677-30.508 8.44-2.358 1.246-2.098 2.267.1 2.87 2.199.602 4.458 1.014 6.676 1.525 1.476.365 1.522 1.196.462 2.388-20.038 12.5-42.458 39.489-52.428 59.597-1.504 3.032-2.743 2.593-3.438-.292C89.5 70.33 85.54 59.344 80.56 51.757c-2.66-4.047-7.072-6.523-12.814-6.693-5.218-.152-5.315-.383-10.375.965 14.712 16.019 24.746 51.42 26.386 72.016z" fill="#8B888E"/></svg>