<svg width="154" height="140" viewBox="0 0 154 140" fill="none" xmlns="http://www.w3.org/2000/svg"><path d="M69.647.55a70.623 70.623 0 00-14.22 1.44c6.48.106 12.925 1.867 17.52 6.011 11.498-3.22 16.87 2.852 19.653 8.114 3.741-.95 7.923-.072 11.03 4 2.328 3.053-1.929 6.323-6.986 12.085l.822 1.043c2.202 3.074 3.309 6.337 4.471 10.262 2.158 7.287 2.563 9.002 1.506 14.045-.099.483-.256 1.526.065 3.038a15.388 15.388 0 003.46-1.426s-.777 1.478-3.071 2.777c.675 1.892 2.062 4.292 4.85 7.109 3.469 3.509 5.889 3.797 4.562 7.201-.654 1.677-4.016 2.828-5.743 4.64-.754 1.99.888 4.227 1.944 6.323 0 0-.41 1.962-2.614 3.485 0 0 3.165-.095 2.107 4.382 0 0-2.107.95-2.303 3.715 0 0 1.439 3.975.837 7.298-.437 2.41-1.342 5.135-6.234 5.135-9.712 0-13.018-.908-16.569 4.903-3.244 5.311-9.938 17.156-13.04 23.147 37.644-1.075 67.829-31.71 67.829-69.346 0-38.32-31.284-69.38-69.876-69.38z" fill="#15161A"/><path d="M85.185 63.136c-2.135-1.54-3.428-4.602-3.759-6.821 0 0 5.68-17.562-6.04-28.71 0 0 1.06-3.015-1.573-6.28-1.613-2-4.536-4.363-10.082-5.635-9.509-2.184-20.496.871-30.592-4.714C13.257 23.181 0 45.014 0 69.93c0 33.881 24.508 62.062 56.873 68.067 2.63-6.527 4.023-10.65 3.553-14.128-1.029-7.617-4.492-6.036-2.378-17.841 1.722-9.604 1.601-12.734 10.21-12.659 10.66.093 12.689-1.157 11.747-9.094 0 0 4.238-.964 1.352-4.165 0 0 3.491-1.122 2.434-3.543-1.292-2.956-.059-5.227-.059-5.227s2.95-1.883 3.984-3.574c1.033-1.69-.29-3.015-2.53-4.63z" fill="#8B888E"/><path d="M150.173 79.116c-2.061-3.84-4.842-5.2-5.317-8.293-.006-.036-.027-.095.008-.105 5.934-2.11 1.686-29.29-8.339-39.915a.252.252 0 01-.066-.239c.213-.755 1.051-4.552-2.236-8.628-2.251-2.792-6.332-6.09-14.072-7.867-13.262-3.047-37.972-13.178-13.996-.22a.243.243 0 01.082.072c11.345 15.805 19.399 10.996 19.399 45.736 0 45.756-8.172 48.585-23.177 65.757-.206.236-.571-.056-.38-.304 4.042-5.221 10.978 2.879 10.383-1.52-1.436-10.631-28.476 24.978-25.525 8.501 2.402-13.404 27.517-9.716 39.532-9.61 14.784.129 17.673-1.594 16.418-12.485a.242.242 0 01.04-.161.238.238 0 01.135-.099c.975-.28 6.672 1.478 1.914-5.5-.093-.136-.057-.317.096-.38 1.064-.423 4.316-1.982 3.074-4.825-1.659-3.792-.336-6.775-.112-7.231a.235.235 0 01.085-.096c.488-.316 4.16-2.752 5.505-4.953 1.449-2.357-1.633-4.25-3.451-7.635z" fill="#15161A"/></svg>