<svg width="550" height="102" viewBox="0 0 550 102" fill="none" xmlns="http://www.w3.org/2000/svg"><path d="M339.306 97.297c1.939.276 3.97.368 6.001.368 12.649 0 23.267-4.703 30.653-12.819 7.479-8.115 11.726-19.828 11.726-33.57 0-13.649-4.339-25.361-11.818-33.477-7.386-8.115-18.004-12.819-30.653-12.819-12.649 0-23.175 4.704-30.561 12.82-7.478 8.207-11.818 19.827-11.818 33.477 0 9.775 2.124 18.445 6.094 25.638 3.97 7.194 9.787 12.911 17.081 16.416l.646.369-1.662 4.519-.739-.277c-10.894-3.597-20.127-9.868-26.59-18.168-6.186-7.931-9.787-17.707-9.787-28.59 0-14.018 6.371-26.56 16.619-35.506 10.341-9.038 24.744-14.48 40.625-14.48 15.972 0 30.283 5.442 40.624 14.48 10.341 8.946 16.619 21.396 16.619 35.506 0 14.295-6.278 26.746-16.434 35.599-10.341 9.038-24.837 14.387-40.809 14.387-2.216 0-4.34-.092-6.463-.277-2.124-.184-4.248-.461-6.279-.922l-1.015-.184 1.385-3.874.738.185c2.031.553 3.878.922 5.817 1.199zm80.418 1.199L436.066.092c17.358 29.512 34.716 59.024 51.981 88.628L480.661 102l-44.964-76.177-12.188 73.595h-3.97l.185-.922zm69.339-19.829L533.38 0c5.54 33.2 11.08 66.31 16.619 99.51h-14.311l-12.279-73.78-32.131 57.272-2.4-3.966.185-.369zM147.633 95.36v2.767h-35.362v-3.69h35.362v.923zm-42.102 2.767H92.698V1.844h13.664v96.283h-.831zm101.654-2.214c1.939.277 3.97.37 6.001.37 12.649 0 23.267-4.704 30.653-12.82 7.479-8.116 11.726-19.828 11.726-33.57 0-13.649-4.339-25.361-11.818-33.477-7.294-8.024-17.912-12.727-30.561-12.727-12.649 0-23.174 4.703-30.56 12.82-7.479 8.207-11.818 19.827-11.818 33.477 0 9.775 2.123 18.444 6.093 25.638 3.97 7.193 9.787 12.911 17.081 16.508l.646.369-1.662 4.519-.738-.277c-10.895-3.596-20.128-9.868-26.591-18.168-6.186-7.931-9.787-17.707-9.787-28.59 0-14.017 6.371-26.56 16.62-35.506C182.903 5.441 197.306 0 213.186 0c15.973 0 30.284 5.441 40.625 14.48 10.341 8.945 16.619 21.395 16.619 35.506 0 14.294-6.278 26.745-16.434 35.598-10.341 9.038-24.837 14.387-40.81 14.387-2.216 0-4.339-.092-6.555-.277-2.123-.184-4.247-.46-6.278-.922l-1.016-.184 1.385-3.874.739.185c1.939.46 3.785.83 5.724 1.014zM22.99 5.441h-9.325v92.686H0V1.844h21.697c9.88 0 19.02 1.66 25.39 5.534 5.725 3.412 9.233 8.577 9.233 15.678 0 5.35-2.03 9.684-5.355 13.004-2.862 2.859-6.74 4.98-11.264 6.548 8.033 1.383 15.327 4.334 20.682 8.669 5.724 4.703 9.325 10.974 9.325 18.721 0 8.67-4.432 15.494-11.449 20.29-7.663 5.164-18.373 7.93-29.545 7.93h-9.233V94.53h7.756c9.048 0 15.788-2.49 20.405-6.548 4.985-4.427 7.478-10.79 7.478-17.984 0-7.193-2.493-13.649-7.478-18.076-4.617-4.058-11.357-6.548-20.405-6.548H19.48v-3.689h3.97c6.833 0 11.726-1.752 14.958-4.703 3.693-3.32 5.262-8.116 5.262-13.465s-1.57-10.144-5.355-13.372C35.085 7.193 30.1 5.44 22.99 5.44z" fill="#15161A"/></svg>