<svg width="54" height="65" viewBox="0 0 54 65" fill="none" xmlns="http://www.w3.org/2000/svg"><path d="M22.857 10.854c.22.546.41 1.066.602 1.503h.3c0-.464-.136-.984-.218-1.558h-.684" fill="#fff"/><path d="M28.873 10.608c0 .547-.137 1.066-.192 1.558a25.483 25.483 0 0123.788 25.4 25.51 25.51 0 01-25.455 25.456A25.482 25.482 0 011.558 37.567 25.483 25.483 0 0117.444 13.97c-.273-.465-.52-.93-.738-1.367A27.041 27.041 0 000 37.567 27.041 27.041 0 0027.014 64.58 27.04 27.04 0 0054 37.567a27.04 27.04 0 00-25.127-26.96z" fill="#fff"/><path d="M17.334 52.633a.82.82 0 01.63.3 10.385 10.385 0 001.859 2.079 6.726 6.726 0 003.69.93l7.274-.165h5.468c3.008 0 3.172-.465 3.254-.71.3-.794.218-1.258-.957-1.696-3.53-.29-7.079-.29-10.609 0a.739.739 0 01-.738-.71.71.71 0 01.71-.766 7.135 7.135 0 001.997-.41 4.375 4.375 0 002.734-3.2 16.898 16.898 0 00-.246-5.468.738.738 0 01.492-.847.711.711 0 01.902.355 17.854 17.854 0 002.324 3.664.548.548 0 00.465 0 1.094 1.094 0 00.465-.766 9.626 9.626 0 00-1.094-3.773c-.465-1.148-1.011-2.46-1.449-3.855-1.094-3.554-2.187-8.94-2.242-9.16a.74.74 0 01.164-.628.684.684 0 01.574-.274h.192a15.992 15.992 0 003.417-.328 4.456 4.456 0 003.063-3.527c.218-1.176-.52-1.777-1.532-2.46l-.3-.22a20.94 20.94 0 01-1.531-1.476 18.32 18.32 0 00-3.336-3.035 11.374 11.374 0 00-4.566-.71.875.875 0 01-.602-.274.793.793 0 01-.164-.602s.739-4.511.875-7.956a7.054 7.054 0 00-1.394-4.894 1.422 1.422 0 00-.902-.493c-1.067 0-2.051 2.434-2.133 5.168a41.69 41.69 0 00.82 7.218.738.738 0 01-.52.875.712.712 0 01-.902-.465s-1.34-3.745-2.734-6.288-2.87-3.281-3.582-2.926c-.191 0-.52.438-.71 1.367a10.936 10.936 0 002.734 8.832 48.402 48.402 0 003.117 3.28c1.668 1.641 2.734 2.735 2.734 4.293 0 2.434-3.309 6.371-6.18 9.242l-.382.383c-2.926 2.898-5.96 5.933-5.96 10.28a10.934 10.934 0 001.585 6.535.683.683 0 01.137.602.765.765 0 01-.328.492 23.588 23.588 0 00-2.297 1.613 1.15 1.15 0 00-.465.902 2.243 2.243 0 00.957 1.613 2.734 2.734 0 003.035.383 3.363 3.363 0 001.285-1.695.711.711 0 01.574-.547h.137l.191-.082zm6.016 4.894a8.202 8.202 0 01-4.566-1.203 8.2 8.2 0 01-1.45-1.449 4.62 4.62 0 01-1.367 1.367 4.347 4.347 0 01-4.784-.492 3.664 3.664 0 01-1.504-2.734 2.734 2.734 0 011.011-2.078c.575-.465 1.313-.957 1.805-1.285a14.355 14.355 0 01-1.45-6.781c0-4.976 3.391-8.367 6.399-11.347l.383-.383c3.581-3.609 5.796-6.698 5.741-8.202-.054-1.504-.902-1.86-2.378-3.309-.875-.875-1.969-1.94-3.2-3.363a12.469 12.469 0 01-3.17-10.143 3.337 3.337 0 011.531-2.407c1.723-.792 4.183.793 5.468 3.61l.41.847V6.644C22.229 3.336 23.597 0 25.866 0a2.734 2.734 0 011.969.957 8.421 8.421 0 011.832 5.988c0 2.734-.547 5.796-.766 7.273a11.81 11.81 0 014.43.875 19.47 19.47 0 013.718 3.335c.416.468.863.907 1.34 1.313l.273.191a3.882 3.882 0 012.133 3.992 5.96 5.96 0 01-4.156 4.676 15.724 15.724 0 01-3.063.355c.356 1.723 1.203 5.468 2.024 8.203.41 1.34.93 2.734 1.394 3.745a9.023 9.023 0 011.176 4.703 2.489 2.489 0 01-1.34 1.75 2.024 2.024 0 01-1.804 0 5.198 5.198 0 01-1.094-1.176 9.651 9.651 0 01-.191 2.57 5.933 5.933 0 01-1.778 3.063 32.905 32.905 0 016.808.218 2.57 2.57 0 011.832 3.637c-.492 1.367-1.94 1.668-4.62 1.695h-5.469c-2.925 0-5.933.164-7.273.164" fill="#fff"/></svg>