<svg width="55" height="55" viewBox="0 0 55 55" fill="none" xmlns="http://www.w3.org/2000/svg"><path d="M46.314 7.837l-.583 1.025c1.2 1.15 2.287 2.41 3.247 3.766a25.94 25.94 0 014.773 14.816 26.117 26.117 0 01-7.673 18.431 26.222 26.222 0 01-18.468 7.657 26.222 26.222 0 01-18.467-7.657 26.117 26.117 0 01-7.673-18.43 26.089 26.089 0 017.665-18.44A26.194 26.194 0 0127.61 1.358a25.925 25.925 0 0115.43 5.068l.61-.914A27.064 27.064 0 0027.61.249 27.306 27.306 0 008.35 8.223 27.195 27.195 0 00.36 27.444a27.223 27.223 0 007.998 19.214A27.333 27.333 0 0027.61 54.64a27.306 27.306 0 0019.261-7.974 27.195 27.195 0 005.832-29.873 27.167 27.167 0 00-6.167-8.956" fill="#fff"/><path d="M27.472.47A27.084 27.084 0 008.368 8.38 26.974 26.974 0 00.444 27.444 26.974 26.974 0 008.368 46.51a27.084 27.084 0 0019.104 7.908 27.084 27.084 0 0019.104-7.908A26.975 26.975 0 0054.5 27.445a26.729 26.729 0 00-2.107-10.448 26.777 26.777 0 00-6.023-8.8c0 .166-.194.388-.333.61a26.107 26.107 0 013.136 3.683 26.161 26.161 0 014.69 14.955 26.338 26.338 0 01-7.748 18.597 26.445 26.445 0 01-18.643 7.712A26.417 26.417 0 018.84 46.04a26.31 26.31 0 01-7.73-18.595A26.338 26.338 0 018.838 8.839a26.445 26.445 0 0118.634-7.731 26.12 26.12 0 0115.374 4.985l.36-.527A26.87 26.87 0 0027.472.471zm0 54.392a27.528 27.528 0 01-19.417-8.039A27.417 27.417 0 010 27.445 27.444 27.444 0 018.053 8.056 27.556 27.556 0 0127.473 0 27.342 27.342 0 0143.65 5.317l.194.139-.888 1.301-.194-.138a25.675 25.675 0 00-15.29-5.04A25.972 25.972 0 009.153 9.163a25.867 25.867 0 00-7.599 18.282 25.84 25.84 0 007.601 18.272 25.945 25.945 0 0018.317 7.566 25.94 25.94 0 0018.317-7.566 25.84 25.84 0 007.601-18.272 25.637 25.637 0 00-4.606-14.678 25.49 25.49 0 00-3.219-3.739V8.89l.555-1.025.166-.277.222.222a27.166 27.166 0 016.29 9.012A27.12 27.12 0 0155 27.583a27.445 27.445 0 01-8.072 19.38A27.556 27.556 0 0127.5 55" fill="#fff"/><path d="M37.102 24.344a18.116 18.116 0 012.775 7.81c0 3.307-1.314 6.48-3.656 8.822a12.527 12.527 0 01-8.831 3.668 12.528 12.528 0 01-8.832-3.668 12.477 12.477 0 01-3.655-8.822 16.594 16.594 0 012.247-6.868c-.194-.333-.388-.665-.555-.998a19.36 19.36 0 00-2.775 8.309 13.64 13.64 0 004.017 9.636 13.695 13.695 0 009.664 3.99 13.694 13.694 0 009.646-4 13.64 13.64 0 004.007-9.626 21.49 21.49 0 00-3.386-9.084l-.527.97M26.778 11.356l.555-.693.583.693a111.441 111.441 0 016.105 8.059l.61-.887a122.859 122.859 0 00-7.104-9.416h-.166a.25.25 0 00-.194 0 123.244 123.244 0 00-8.797 12.02c.275.191.526.414.75.664a102.138 102.138 0 017.658-10.44z" fill="#fff"/><path d="M45.011 5.954l-.25.305-.666.969-7.63 11.077-.445.665-.444.665-.61.886-.444.665-.472.692-5.855 8.557a1.803 1.803 0 01-1.304.748 3.97 3.97 0 01-1.748-1.135s-3.802-4.127-5.55-6.065l-.555-.554-.278-.277a1.303 1.303 0 00-.277-.277l-.722-.692-.555-.444c.083.279.194.548.333.804l.555.997.416.72.444.747 7.326 12.269c.21.446.536.829.944 1.107 0 0 .25 0 .832-.914l7.465-13.348.444-.775.416-.748.527-.97.417-.747.416-.72c3.025-5.539 5.883-10.524 7.02-12.6.306-.527.472-.86.528-.97a6.9 6.9 0 00.666-1.856c-.305.305-.666.804-.833.997" fill="#fff"/></svg>