<svg width="53" height="60" viewBox="0 0 53 60" fill="none" xmlns="http://www.w3.org/2000/svg"><g clip-path="url(#clip0_266_2460)"><path d="M26.119 58.422c-7.374 0-13.986-3.286-18.487-8.453a25.448 25.448 0 01-1.384-1.742 24.41 24.41 0 01-4.67-14.35c0-13.533 11.008-24.54 24.54-24.54 1.365 0 2.727.112 4.072.337-.05.045-.1.085-.153.13l-.149.131c-2.916 2.486-7.639 6.54-15.3 13.126l-.06.044c-.222.16-.796.57-.447 1.49-.067.08-.183.202-.271.295-.423.45-.595.653-.6.827a1.653 1.653 0 00.47 1.197l5.14 5.309c.31.324.738.512 1.188.522h.023a1.78 1.78 0 00.87-.277c.086-.053.181-.11.273-.163.13-.07.222-.13.29-.174l.179.024c.367.028.733-.073 1.033-.287 1.928-1.721 5.391-4.984 8.86-8.305.548.259 1.145.4 1.752.413a3.05 3.05 0 001.046-.188c1.094 1.626 4.24 7.32-.93 12.81-3.71 3.935-11.556 4.182-15.208 1.568a.882.882 0 00-.261-.36L9.382 30.12a.944.944 0 00-1.307.156l-1.183 2.126a.888.888 0 00-.078 1.012c.06.105.141.196.238.269l9.093 6.37a.934.934 0 00.957.115.945.945 0 00.35-.269l.202-.253c1.8 1.143 4.313 1.759 6.927 1.759 3.64 0 7.488-1.176 9.919-3.764 5.855-6.226 2.272-12.856 1.045-14.728.795-.994.731-2.467.32-3.54l.114-.11c4.9 3.224 7.29 7.931 7.29 14.341a22.484 22.484 0 01-2.008 9.366c-.32.641-.685 1.26-1.092 1.85H10.175c-.997 0-1.81.376-1.81.837v.766h-.094c-1.115 0-2.023.538-2.023 1.199v.112c.564.8 1.175 1.565 1.83 2.291.064 0 .13.01.192.01h35.88a24.01 24.01 0 001.997-2.511c-.083-.615-.946-1.101-2.006-1.101h-.094v-.766c0-.461-.81-.836-1.81-.836h-.334c.304-.497.573-1.015.804-1.55 1.387-3.424 1.902-5.93 1.902-9.252 0-7.423-2.431-12.45-7.618-15.74a358.35 358.35 0 003.53-3.504c.035-.034.067-.069.102-.104l.106-.109c6.5 4.522 9.934 11.181 9.934 19.314 0 5.059-1.572 9.992-4.5 14.117a24.912 24.912 0 01-1.59 2.013 24.466 24.466 0 01-18.457 8.415l.003.001zM39.85 4.488l3.574 3.722-2.57 2.398-3.57-3.72 2.566-2.4zm-4.538 2.867l5.135 5.296-5.592 5.42a.983.983 0 00-.764.01c-.7.316-1.511.904-2.281 1.654l-.392.375c-.86.822-1.428 1.36-1.362 2.075.017.146.061.286.13.415l-9.018 8.738c-.864-.84-5.545-5.658-6.339-6.592L35.313 7.355zm-.64 13.594c0 .337-.05.808-.363 1.11-.453.441-1.026.471-1.568.338a2.921 2.921 0 01-.251-.076 2.379 2.379 0 01-.233-.086 4.487 4.487 0 01-.55-.274c.183-.213.494-.509.757-.759l.405-.392a8.188 8.188 0 011.483-1.166c.064.131.118.267.161.405a3.31 3.31 0 01.124.507c.02.13.032.261.036.393zM52.24 33.876c0-8.593-3.606-15.651-10.425-20.473.03-.037.06-.076.086-.116 0-.008.017-.021.02-.027a.643.643 0 01.056-.1l.018-.033a.86.86 0 00.16-.429 1.64 1.64 0 00-.211-.794.255.255 0 00.025-.013l2.69-2.52a1.573 1.573 0 00.504-1.117c0-.257-.063-.51-.185-.737l2.576-1.569a1.431 1.431 0 00.052-2.046s-1.022-.915-2.211-1.95C44.1.823 43.213.085 42.923.026a1.808 1.808 0 00-.268-.03c-.297 0-1.467 1.99-2.021 2.97a1.612 1.612 0 00-.45-.164 1.632 1.632 0 00-1.45.403l-2.695 2.518c-.024.025-.034.058-.06.084a1.762 1.762 0 00-.626-.139h-.02a1.28 1.28 0 00-.628.212l-.122.066v.011c-.13.092-.605.476-2.586 2.162l-.143.122c-.044.04-.091.08-.141.119a26.367 26.367 0 00-5.601-.608C11.721 7.756 0 19.474 0 33.876S11.72 60 26.119 60C40.516 60 52.24 48.28 52.24 33.876z" fill="#fff"/></g><defs><clipPath id="clip0_266_2460"><path fill="#fff" d="M0 0h52.241v60H0z"/></clipPath></defs></svg>