<svg width="55" height="55" viewBox="0 0 55 55" fill="none" xmlns="http://www.w3.org/2000/svg"><path d="M27.5 53.679A26.262 26.262 0 011.238 27.444 26.29 26.29 0 0127.5 1.181a26.29 26.29 0 0126.235 26.263A26.262 26.262 0 0127.5 53.679zm0-53.597a27.5 27.5 0 00-27.362 27.5A27.5 27.5 0 0027.5 54.944 27.5 27.5 0 0055 27.58 27.5 27.5 0 0027.5.081z" fill="#fff"/><path d="M27.5 1.403A26.07 26.07 0 001.457 27.445 26.07 26.07 0 0027.5 53.487a26.07 26.07 0 0026.042-26.042A26.07 26.07 0 0027.5 1.403zm0 52.497A26.483 26.483 0 011.045 27.445 26.483 26.483 0 0127.5.99a26.482 26.482 0 0126.427 26.455A26.482 26.482 0 0127.5 53.9zm0-53.625A27.197 27.197 0 00.33 27.445a27.197 27.197 0 0027.17 27.17 27.197 27.197 0 0027.142-27.17A27.197 27.197 0 0027.5.275zM27.5 55a27.5 27.5 0 110-55 27.5 27.5 0 010 55z" fill="#fff"/><path d="M30.992 44.136a36.062 36.062 0 01-4.07-2.997c-2.53-2.173-4.675-4.263-7.067-6.628-.715-.715-.688-.687 0-1.43.33-.33.825-.495.99-1.045a21.808 21.808 0 01-2.75-.275l-4.4-.44c-.385 0-.468 0-.44.468v7.15c.632-.55 1.237-1.018 1.815-1.54.577-.523.247-.22.412 0 .688.742 1.073 1.237 1.788 1.925 3.08 3.025 6.352 5.885 9.707 8.607a.441.441 0 00.633 0l3.437-2.75c.523-.44.495-.467 0-.852" fill="#fff"/><path d="M15.318 36.823a.633.633 0 01.44.248c.275.275.495.55.715.797l1.045 1.1c2.97 2.915 6.16 5.72 9.707 8.607h.193l3.437-2.75.193-.165-.22-.137a38.09 38.09 0 01-4.125-3.053c-2.503-2.145-4.565-4.152-6.958-6.517-.412-.385-.632-.605-.632-.935 0-.33.22-.523.632-.907l.385-.303.22-.165h-.962a7.994 7.994 0 00-1.1-.138l-4.428-.44V38.5l1.238-1.072a.66.66 0 01.467-.247l-.247-.358zm12.21 11.797a.743.743 0 01-.495-.192c-3.548-2.75-6.738-5.692-9.735-8.607-.44-.44-.743-.798-1.073-1.156l-.687-.742c-.385.385-.798.715-1.238 1.1l-1.1.907v-7.864a.88.88 0 01.22-.66.853.853 0 01.633 0l4.345.44c.406.015.81.061 1.21.137a6.54 6.54 0 001.457 0h.468l-.138.467a1.568 1.568 0 01-.77.935l-.302.248a2.42 2.42 0 00-.413.467l.44.44c2.393 2.338 4.428 4.346 6.93 6.49A36.4 36.4 0 0031.323 44c.357.22.577.385.605.66.027.275-.193.468-.495.743l-3.465 2.75a.743.743 0 01-.55.22M15.456 15.701c1.645.231 3.231.773 4.675 1.596a9.131 9.131 0 012.145 1.43c.22.192.412.384 0 .687-.413.302-.688.687-1.046 1.045-.357.357-.384.247-.33.44.056.192.386 0 .578.165 2.172 0 4.345 0 6.517.165.44 0 .386-.193.386-.468 0-1.705-.248-6.407-.276-7.205l-1.512 1.513c-.22.247-.358.33-.688 0a10.203 10.203 0 00-4.125-2.31c-.66-.193-1.347-.22-2.007-.385a8.91 8.91 0 00-4.73.275 9.736 9.736 0 00-3.52 1.705 7.782 7.782 0 00-2.502 2.75h.22a9.625 9.625 0 016.187-1.54" fill="#fff"/><path d="M21.478 20.735h6.517c0-1.045 0-3.328-.247-6.49l-.963.99a.714.714 0 01-1.154 0 9.955 9.955 0 00-3.988-2.228 6.403 6.403 0 00-1.045-.22l-.962-.193a9.432 9.432 0 00-4.566.276 10.31 10.31 0 00-3.41 1.65 7.975 7.975 0 00-1.87 1.87 9.817 9.817 0 015.5-1.155c1.543.2 3.035.684 4.4 1.43l.386.192c.81.384 1.56.885 2.227 1.485a.797.797 0 01.357.633.798.798 0 01-.33.577 5.968 5.968 0 00-.742.715l-.275.275.165.193zm6.6.825h-6.517c-.193 0-.633 0-.77-.386a.687.687 0 01.302-.715l.247-.274c.262-.28.537-.546.826-.798a9.297 9.297 0 00-2.063-1.375l-.413-.192a11.935 11.935 0 00-4.152-1.375 9.405 9.405 0 00-5.995 1.485h-.88l.275-.495a8.25 8.25 0 012.585-2.943 10.698 10.698 0 013.658-1.76 9.514 9.514 0 014.922-.275c.29.071.584.126.88.165l1.127.248c1.58.44 3.031 1.252 4.236 2.365h.137l1.072-1.1.963-.963v.742c.22 3.63.33 6.16.302 7.233a.963.963 0 01-.192.633.634.634 0 01-.495.165m16.252-6.133a9.955 9.955 0 01-.413 7.232 15.18 15.18 0 01-3.575 5.335c-.22.22-.357.248-.605 0a97.43 97.43 0 00-1.457-1.402c-.165 0-.165.192-.165.33v6.93c0 .302 0 .33.385.357a13.748 13.748 0 002.365-.247 29.498 29.498 0 004.867-.413c-.495-.495-.962-.962-1.457-1.402-.495-.44-.302-.468 0-.743a8.911 8.911 0 001.54-1.98 11.002 11.002 0 001.512-4.565 12.98 12.98 0 00-.66-6.132 11.412 11.412 0 00-2.282-3.603c.006.101.006.202 0 .303" fill="#fff"/><path d="M38.446 34.264a4.29 4.29 0 001.32 0h1.678a30.85 30.85 0 003.52-.275l-.99-.935a.799.799 0 01-.33-.605.824.824 0 01.275-.605 8.637 8.637 0 001.512-1.952 10.56 10.56 0 001.458-4.4 12.295 12.295 0 00-.633-5.968 13.582 13.582 0 00-1.265-2.365 10.588 10.588 0 01-.742 6.27 15.455 15.455 0 01-3.658 5.5c-.165.165-.33.33-.55.275a.77.77 0 01-.55-.275 11.58 11.58 0 00-1.017-.99v6.655l-.028-.33zm.303.688h-.303a.634.634 0 01-.687-.715v-6.903a.688.688 0 01.33-.632h.22l.605.55c.357.33.715.66 1.045 1.017a14.74 14.74 0 003.52-5.225 9.68 9.68 0 00.412-6.985 1.243 1.243 0 010-.22l-.247-1.265.797.825a11.383 11.383 0 012.338 3.74c.748 2 .984 4.156.687 6.27a10.835 10.835 0 01-1.567 4.703 8.249 8.249 0 01-1.595 2.062v.138c.357.302.687.632 1.017.962l.935.88-.632.138c-1.41.233-2.834.362-4.263.385h-.687a5.499 5.499 0 00-.908 0 8.26 8.26 0 01-1.182.137" fill="#fff"/><path d="M30.305 20.321h.193c.192 0 .522-.33.962-.77a6.655 6.655 0 013.108-1.842 6.93 6.93 0 014.4.357 4.483 4.483 0 012.42 1.623c.522.84.877 1.774 1.045 2.75a.631.631 0 00.302-.44c.28-.727.474-1.484.578-2.255a5.885 5.885 0 00-2.75-6.408 9.71 9.71 0 00-3.493-.852c-2.39-.201-4.78.398-6.792 1.705a.852.852 0 00-.468.852c.138 1.87.248 3.383.358 5.28v.22" fill="#fff"/><path d="M36.3 17.132a7.344 7.344 0 012.75.55 5.143 5.143 0 012.586 1.76c.383.596.68 1.245.88 1.925a8.89 8.89 0 00.44-1.87 5.5 5.5 0 00-2.53-6.05 9.323 9.323 0 00-3.383-.825 10.505 10.505 0 00-6.6 1.677.468.468 0 00-.302.523c.138 1.787.247 3.245.357 4.977l.248-.165c.162-.098.31-.219.44-.357a6.848 6.848 0 013.272-1.953 8.254 8.254 0 011.815-.192h.028zm5.886 5.5v-.385a7.315 7.315 0 00-.99-2.503 4.428 4.428 0 00-2.282-1.512 6.793 6.793 0 00-4.208-.33 6.187 6.187 0 00-2.943 1.76 2.888 2.888 0 01-.55.44l-.412.33a.496.496 0 01-.468.165s-.412 0-.384-.523v-.165c0-1.815-.22-3.3-.358-5.115a1.1 1.1 0 01.633-1.155 11 11 0 016.984-1.76c1.245.069 2.467.367 3.603.88a6.298 6.298 0 012.915 6.765c-.097.794-.3 1.57-.605 2.31a.91.91 0 01-.44.633l-.495.165zm-27.171 6.765a16.943 16.943 0 01-1.952-2.448 6.325 6.325 0 01-.715-4.565 6.133 6.133 0 014.18-4.895h-1.21a8.25 8.25 0 00-5.913 1.595 5.5 5.5 0 00-2.282 3.548 11 11 0 00.66 5.17 14.052 14.052 0 003.905 5.5c.055-.99.055-1.98 0-2.97 0-.44 0-.633.577-.578 1.08.047 2.155.166 3.218.358l-.55-.633" fill="#fff"/><path d="M14.491 17.791a7.673 7.673 0 00-4.895 1.54 5.5 5.5 0 00-2.172 3.328 11 11 0 00.687 5.032 12.1 12.1 0 003.3 4.785v-2.2a.88.88 0 01.22-.77.851.851 0 01.715-.165h.798l1.54.138-.55-.633a9.95 9.95 0 01-1.375-1.787 6.572 6.572 0 01-.77-4.813 5.967 5.967 0 013.107-4.482h-.632l.027.027zm-2.557 16.143l-.523-.495a14.025 14.025 0 01-3.96-5.5 11.522 11.522 0 01-.715-5.335 5.94 5.94 0 012.42-3.767 8.58 8.58 0 016.133-1.65h1.952l-.467.55a2.117 2.117 0 01-.715.412 5.198 5.198 0 00-3.41 4.317 5.884 5.884 0 00.687 4.345c.365.608.798 1.17 1.293 1.678l.632.715.523.632.632.743-.962-.193a14.663 14.663 0 00-2.365-.302H12.07v.247c.057.999.057 2 0 2.998l-.137.605zm27.941 2.311a25.97 25.97 0 00-2.942.275c-.385 0-.495 0-.468-.495.028-.495 0-1.348 0-2.035a2.52 2.52 0 000-1.1l-.22.165c-1.43 1.485-2.75 2.97-4.4 4.372-.99.907-1.595 1.32-2.612 2.228-.303.275-.495.467 0 .825 1.127.797 2.227 1.622 3.355 2.392a.605.605 0 00.907 0c2.476-2.2 4.428-4.042 6.82-6.545h-.384" fill="#fff"/><path d="M29.205 40.095h.165l1.43 1.045 1.925 1.347c.248.166.275 0 .495 0 2.393-2.145 4.208-3.85 6.27-5.967a6.05 6.05 0 00-1.21.137 10.99 10.99 0 01-1.375 0 .769.769 0 01-.605-.22.742.742 0 01-.165-.604v-2.338a.193.193 0 000-.137c-1.457 1.512-2.75 2.75-4.18 4.125-.495.467-.907.797-1.32 1.155-.412.357-.797.632-1.265 1.072a1.239 1.239 0 00-.192.193l.027.192zm3.74 3.08a.962.962 0 01-.605-.22l-1.952-1.375-1.43-1.017a.937.937 0 01-.468-.633c0-.303.22-.523.413-.688.192-.164.907-.797 1.292-1.127.385-.33.825-.66 1.32-1.128 1.458-1.347 2.75-2.75 4.4-4.345h.138l.44-.33.165.386c.12.305.168.635.137.962v2.338h.138c.412.027.825.027 1.237 0a5.992 5.992 0 011.733-.138h1.155l-.55.578c-2.31 2.364-4.208 4.207-6.848 6.544a.963.963 0 01-.687.33" fill="#fff"/></svg>