<svg width="55" height="60" viewBox="0 0 55 60" fill="none" xmlns="http://www.w3.org/2000/svg"><path d="M51.2 18.722c-.063-.106-.118-.214-.183-.32-.032-.048-.054-.102-.087-.15l-.244 2.919c.049.103.092.203.139.3.046.097.097.214.146.32.049.104.092.191.136.288a25.207 25.207 0 012.275 10.463A25.674 25.674 0 0145.81 50.7a25.894 25.894 0 01-18.24 7.532 25.675 25.675 0 01-4.634-.43l-.179-.024c-.057-.014-.12-.017-.18-.03-.216-.044-.43-.095-.645-.146-.06 0-.12-.03-.18-.044l-.179-.045a25.706 25.706 0 01-8.924-4.04l-.19-.14-.19-.143c-.244-.179-.491-.354-.728-.541-.065-.049-.133-.092-.192-.143-.06-.052-.133-.095-.196-.143a25.651 25.651 0 01-8.336-12.56 25.555 25.555 0 01.174-15.054 25.658 25.658 0 018.623-12.365 25.832 25.832 0 0114.105-5.42c.084 0 .168-.02.253-.022.084-.003.157-.02.238-.022.082-.003.166-.019.25-.022.24-.27.84-.994 1.39-1.662h-.776a27.573 27.573 0 00-16.6 5.876A27.374 27.374 0 00.862 25.815a27.275 27.275 0 001.32 17.494 27.422 27.422 0 0011.713 13.105 27.599 27.599 0 0017.295 3.338 27.544 27.544 0 0015.781-7.798 27.34 27.34 0 007.79-15.735 27.286 27.286 0 00-3.399-17.213c-.052-.098-.108-.192-.163-.287" fill="#fff"/><path d="M47.915 27.548c-3.044 4.823-9.356 4.704-12.76 4.234 2.687-1.255 6.564-3.647 8.297-7.489l2.033-.351a.669.669 0 00.264-1.21.675.675 0 00-.503-.11l-1.268.22c.244-.881.367-1.79.367-2.704a11.864 11.864 0 00-.133-1.714l2.313-.397a.679.679 0 00.544-.516.67.67 0 00-.27-.699.678.678 0 00-.505-.113l-2.356.406c-.093-.381-.207-.76-.326-1.138l3.106-5.224a.673.673 0 00.07-.51.66.66 0 00-.31-.414.681.681 0 00-.928.238l-2.535 4.269a31.296 31.296 0 00-2.759-5.096 56.897 56.897 0 018.416-2.625c.641 2.806 3.09 14.869-.746 20.949l-.011-.006zm-10.073-5.034a.657.657 0 00.08-.256 2.288 2.288 0 00-1.31-2.301 3.905 3.905 0 00-3.005-.105l2.875-2.864a.674.674 0 10-.953-.954l-2.641 2.628v-4.08L35.3 12.18a.673.673 0 00-.48-1.15.678.678 0 00-.478.198l-1.455 1.45V6.369a.674.674 0 00-.68-.676.68.68 0 00-.678.676v6.405l-1.553-1.546a.677.677 0 00-.745-.158.68.68 0 00-.422.631.672.672 0 00.206.48l2.514 2.499v4.082l-2.74-2.728a.68.68 0 00-1.13.485.674.674 0 00.172.47l3.684 3.665v.514c-.57.54-1.156 1.157-1.748 1.822l-2.215-2.195a.674.674 0 00-.956 0 .663.663 0 00-.198.478.667.667 0 00.198.476l2.28 2.271a54.34 54.34 0 00-3.08 4.085c-2.9-2.276-4.391-4.955-4.391-7.972 0-7.34 8.704-16.45 10.787-18.524 2.082 2.07 10.783 11.176 10.783 18.524 0 6.08-6.027 9.43-9.182 10.768 1.5-3.426 3.166-6.76 4.032-8.381l.016-.006zm13.532-4.071a1.564 1.564 0 000-.338c.04-6.167-1.455-12.076-1.556-12.466a.674.674 0 00-.793-.489 58.556 58.556 0 00-9.555 2.94A57.326 57.326 0 0032.657.184a.678.678 0 00-.929 0 56.526 56.526 0 00-4.4 4.763L25.483 7.3c-2.544 3.455-4.958 7.708-5.349 11.736 0 .014-.024.019-.035.032-.315.409-.673.866-1.056 1.352-2.387 3.055-5.547 7.591-6.902 9.908-2.4 4.104-1.694 13.06-1.085 20.963.018.216.035.424.051.64.068.057.128.122.196.176.067.054.13.1.195.152.233.19.489.362.73.54l.193.144.19.14c-.038-.586-.073-1.162-.114-1.776-.472-7.353-1.067-16.51.864-20.422 1.256-2.557 5.476-8.026 6.74-9.64v-.016c.327 3.006 2.013 5.744 4.92 8.007-.17.27-.342.52-.507.784a.66.66 0 00-.087.508.667.667 0 00.814.506.654.654 0 00.424-.3c2.237-3.555 4.824-6.802 7.094-8.895 1.173-1 2.482-1.054 3.198-.689a.979.979 0 01.587.863c-1.114 2.097-4.575 9.024-6.245 14.036-2.43 6.123-7.156 6.629-7.355 6.648a.683.683 0 00-.619.662l-.746 13.847.182.046c.06 0 .116.035.176.049.217.046.426.105.646.149l.182.026.18.027.724-13.565c1.447-.314 5.631-1.704 7.9-7.43a59.491 59.491 0 011.418-3.736c1.707.39 3.453.59 5.205.595 3.483 0 8.199-.887 10.86-5.101.993-1.58 1.601-3.493 1.946-5.532v-.106c.095-.68.244-3.408.353-4.19" fill="#fff"/></svg>