<svg width="108" height="112" viewBox="0 0 108 112" fill="none" xmlns="http://www.w3.org/2000/svg"><path d="M37.021 53.285a6.375 6.375 0 01-4.631-1.87 6.372 6.372 0 01-1.806-4.588 6.375 6.375 0 011.806-4.61 6.373 6.373 0 014.631-1.848 6.373 6.373 0 013.123.786 5.714 5.714 0 012.23 2.124L40.25 44.49a3.23 3.23 0 00-1.317-1.296 3.76 3.76 0 00-1.912-.467 3.951 3.951 0 00-2.91 1.126 4.036 4.036 0 00-1.105 2.953 3.931 3.931 0 001.105 2.91 3.887 3.887 0 002.91 1.148 4.122 4.122 0 001.933-.468A3.166 3.166 0 0040.25 49.1l2.125 1.232a5.651 5.651 0 01-2.23 2.125 6.225 6.225 0 01-3.124.807m9.178-13.193h-2.295V53.01H46.2V40.071zm3.994 7.691h4.525a2.125 2.125 0 00-.807-1.339 2.337 2.337 0 00-1.402-.446 2.38 2.38 0 00-1.53.468 2.124 2.124 0 00-.786 1.317zm0 1.763a2.274 2.274 0 002.507 1.678 2.38 2.38 0 001.997-.892l1.827 1.062a4.355 4.355 0 01-3.867 1.912 4.759 4.759 0 01-3.526-1.338 4.589 4.589 0 01-1.317-3.357 4.567 4.567 0 011.296-3.335 4.546 4.546 0 013.378-1.338 4.248 4.248 0 013.229 1.338 4.78 4.78 0 011.253 3.335c.03.311.03.624 0 .935h-6.777zm10.834.871a2.401 2.401 0 001.763.701 2.4 2.4 0 001.764-.7 2.442 2.442 0 00.7-1.807 2.464 2.464 0 00-.7-1.806 2.402 2.402 0 00-1.764-.7 2.4 2.4 0 00-1.763.7 2.55 2.55 0 00-.68 1.806 2.507 2.507 0 00.68 1.806zm4.249-6.246h2.294v8.88h-2.294v-1.04a3.483 3.483 0 01-2.89 1.295 4.058 4.058 0 01-3.037-1.36 4.716 4.716 0 01-1.275-3.335 4.61 4.61 0 011.275-3.314 3.974 3.974 0 013.038-1.36 3.441 3.441 0 012.889 1.297V44.15zm9.285-.233a3.207 3.207 0 012.4.977c.655.741.99 1.71.936 2.698v5.439h-2.274v-5.163a1.826 1.826 0 00-.488-1.36 1.72 1.72 0 00-1.275-.467 1.911 1.911 0 00-1.423.553 2.358 2.358 0 00-.531 1.657v4.78H69.61v-8.86h2.295v.978a2.953 2.953 0 012.655-1.232M33.58 65.395h4.737v2.337h-7.18V55.325h2.443v10.07zm8.37-.277a2.402 2.402 0 001.764.701 2.4 2.4 0 001.764-.7 2.463 2.463 0 00.7-1.807 2.443 2.443 0 00-.7-1.805 2.403 2.403 0 00-1.764-.701 2.401 2.401 0 00-1.763.7 2.507 2.507 0 00-.68 1.806 2.55 2.55 0 00.68 1.806zm4.25-6.246h2.294v8.88H46.2V66.69a3.464 3.464 0 01-2.89 1.296 3.952 3.952 0 01-3.037-1.36 4.61 4.61 0 01-1.275-3.314 4.716 4.716 0 011.275-3.335 3.994 3.994 0 013.037-1.338 3.462 3.462 0 012.89 1.296v-1.063zm7.328 6.246a2.317 2.317 0 001.742.7 2.378 2.378 0 002.299-1.531c.12-.31.177-.642.166-.975a2.444 2.444 0 00-.702-1.806 2.38 2.38 0 00-1.763-.701 2.316 2.316 0 00-1.742.701 2.443 2.443 0 00-.7 1.806 2.464 2.464 0 00.7 1.806zm2.125-6.48a4.08 4.08 0 013.059 1.339 4.716 4.716 0 011.274 3.335 4.609 4.609 0 01-1.274 3.314 4.016 4.016 0 01-3.06 1.36 3.42 3.42 0 01-2.867-1.296v1.062H50.49v-12.45h2.295v4.59a3.464 3.464 0 012.868-1.275m7.882 3.867h4.482a2.125 2.125 0 00-.807-1.36 2.273 2.273 0 00-1.381-.446 2.4 2.4 0 00-1.53.49 2.124 2.124 0 00-.807 1.316h.043zm-.043 1.763A2.294 2.294 0 0066 65.926a2.317 2.317 0 001.976-.892l1.848 1.062a4.376 4.376 0 01-3.866 1.89 4.823 4.823 0 01-3.527-1.317 4.568 4.568 0 01-1.338-3.356 4.588 4.588 0 011.317-3.336 4.504 4.504 0 013.378-1.338 4.247 4.247 0 013.207 1.338c.85.9 1.308 2.099 1.275 3.336.02.311.02.623 0 .934h-6.777zm10.75-9.453h-2.295v12.938h2.295V54.794zM32.158 99.003a3.846 3.846 0 01-2.125-.595 2.72 2.72 0 01-1.104-1.594l1.593-.828a1.657 1.657 0 001.848 1.317c.379.022.755-.066 1.084-.255a.955.955 0 00.488-.658.66.66 0 00-.276-.744 4.461 4.461 0 00-1.296-.573 4.715 4.715 0 01-1.87-1.063 1.955 1.955 0 01-.424-1.805 2.7 2.7 0 011.126-1.806 3.76 3.76 0 012.124-.616 3.25 3.25 0 011.849.51c.521.356.915.87 1.126 1.465l-1.53.808a1.657 1.657 0 00-1.593-1.105 1.615 1.615 0 00-.871.234.999.999 0 00-.447.616.68.68 0 00.277.743c.38.257.794.457 1.232.595l.382.128.383.148.36.17.34.213c.114.067.22.146.32.233l.254.277a.999.999 0 01.213.34l.127.382a3.17 3.17 0 010 .467c.01.177.01.354 0 .531a2.7 2.7 0 01-1.168 1.828 4.037 4.037 0 01-2.337.637m10.876-6.523l-3.038 3.123 1.997 3.208h-1.763l-1.806-2.974-.531 2.974h-1.615l1.551-8.859h1.636l-.914 5.205 2.55-2.677h1.933zm2.614-1.062c-.21.19-.482.296-.765.298a.85.85 0 01-.659-.298.912.912 0 01-.17-.7c.038-.284.183-.542.404-.723a1.19 1.19 0 01.765-.298.85.85 0 01.835.637.87.87 0 01.015.383 1.21 1.21 0 01-.425.701zm-2.826 7.372l1.105-6.373h1.636l-1.105 6.373h-1.636zm7.69-6.478a2.125 2.125 0 011.657.7 2.295 2.295 0 01.361 1.913l-.68 3.888H50.3l.638-3.676a1.105 1.105 0 00-.17-.977 1.083 1.083 0 00-.85-.319 1.594 1.594 0 00-1.02.34 1.87 1.87 0 00-.616 1.02l-.616 3.612H46.03l1.105-6.374h1.636l-.128.701a2.485 2.485 0 011.955-.87m7.965 4.863h3.378l-.298 1.678h-5.12l.298-1.678 1.275-7.18h1.742l-1.275 7.18zm7.011.277c.474-.014.93-.186 1.296-.49.376-.329.624-.78.7-1.274a1.36 1.36 0 00-.254-1.254 1.403 1.403 0 00-1.126-.488c-.47.004-.922.178-1.275.489-.38.32-.636.763-.722 1.253a1.487 1.487 0 00.276 1.275 1.34 1.34 0 001.105.488zm-.128 1.593a2.783 2.783 0 01-2.358-1.063 2.974 2.974 0 01-.51-2.485 3.781 3.781 0 011.317-2.252 3.675 3.675 0 012.486-.892 2.698 2.698 0 012.273 1.062 3.06 3.06 0 01.531 2.443 3.612 3.612 0 01-1.296 2.252 3.654 3.654 0 01-2.443.934m8.838-6.522h1.827l-3.42 6.331h-1.679l-1.168-6.33H71.5l.658 4.312 2.125-4.313zm4.356-1.062a1.19 1.19 0 01-.765.298.85.85 0 01-.659-.298.915.915 0 01-.17-.7c.039-.284.183-.542.404-.723a1.19 1.19 0 01.765-.298.85.85 0 01.836.637.872.872 0 01.014.383 1.21 1.21 0 01-.425.701zm-2.826 7.372l1.105-6.373h1.636l-1.126 6.373h-1.615zm7.647-6.48a2.124 2.124 0 011.657.701 2.294 2.294 0 01.361 1.912l-.68 3.888h-1.635l.637-3.675a1.104 1.104 0 00-.17-.978 1.083 1.083 0 00-.85-.318 1.593 1.593 0 00-1.02.34 1.87 1.87 0 00-.616 1.02l-.616 3.61h-1.635l1.104-6.372h1.636l-.127.7a2.465 2.465 0 011.954-.87m6.056 4.993c.487.002.959-.163 1.338-.467.376-.288.633-.704.723-1.169v-.127a1.318 1.318 0 00-.319-1.211 1.593 1.593 0 00-1.19-.446 2.124 2.124 0 00-1.338.467 1.95 1.95 0 00-.701 1.232 1.446 1.446 0 00.276 1.232 1.53 1.53 0 001.19.489h.021zm2.592-4.78h1.593l-1.062 6.033a3.392 3.392 0 01-1.254 2.273 3.927 3.927 0 01-2.4.744 3.964 3.964 0 01-1.806-.404 2.122 2.122 0 01-1.083-1.147l1.444-.765a1.53 1.53 0 001.551.85 2.12 2.12 0 001.317-.403c.356-.284.585-.696.638-1.148v-.552a2.848 2.848 0 01-2.125.828 2.486 2.486 0 01-2.124-.998 3.038 3.038 0 01-.468-2.38 3.702 3.702 0 011.169-2.124 3.249 3.249 0 012.315-.913 2.124 2.124 0 012.125 1.083l.17-.977zM33.07 109.54a3.65 3.65 0 01-2.124-.659 3.545 3.545 0 01-1.317-1.72 4.848 4.848 0 01-.192-2.359 5.373 5.373 0 011.721-3.207 4.734 4.734 0 013.272-1.275 3.834 3.834 0 012.124.552c.583.37 1.036.912 1.296 1.551l-1.508.829a2.125 2.125 0 00-2.018-1.233 3.063 3.063 0 00-2.125.808 3.483 3.483 0 00-1.083 2.124 2.594 2.594 0 00.382 2.125 2.129 2.129 0 001.763.807 2.777 2.777 0 002.444-1.275l1.36.914a5.181 5.181 0 01-1.722 1.529 4.586 4.586 0 01-2.124.553m4.377-.255l.658-3.973.893-5.269h1.53l-.872 5.333-.658 3.909h-1.551zm4.929-3.762h3.038a1.231 1.231 0 00-.361-.956 1.295 1.295 0 00-.914-.318c-.38.005-.75.123-1.062.34-.317.24-.56.563-.701.934zm-.489-1.805a3.418 3.418 0 012.358-.935 2.565 2.565 0 012.125.977 2.843 2.843 0 01.51 2.38 2.509 2.509 0 01-.17.658h-4.547a1.212 1.212 0 00.447.892c.288.212.64.317.998.298a1.9 1.9 0 001.487-.638l1.084.914a3.293 3.293 0 01-2.677 1.211 2.714 2.714 0 01-2.273-.999 3.114 3.114 0 01-.553-2.464 3.717 3.717 0 011.232-2.294m8.39 4.186a1.87 1.87 0 001.233-.446c.367-.319.615-.754.7-1.232v-.192a1.546 1.546 0 00-.297-1.232A1.402 1.402 0 0051 104.42a1.809 1.809 0 00-1.254.468 2.122 2.122 0 00-.68 1.295 1.635 1.635 0 00.256 1.296 1.277 1.277 0 001.104.489h.021zm2.465-4.929h1.55l-1.062 6.373h-1.55v-.573a2.725 2.725 0 01-1.997.765 2.256 2.256 0 01-2.019-1.063 3.377 3.377 0 01-.403-2.443 4.123 4.123 0 011.168-2.273 3.12 3.12 0 012.125-.913 1.929 1.929 0 011.848 1.041l.34-.914zm6.161-.191a1.87 1.87 0 011.572.723 2.399 2.399 0 01.34 1.912l-.637 3.866h-1.551l.595-3.675a1.188 1.188 0 00-.15-.977 1.023 1.023 0 00-.806-.319 1.446 1.446 0 00-.978.34 1.85 1.85 0 00-.573 1.02l-.616 3.611h-1.551l1.062-6.373h1.55l-.127.68a2.332 2.332 0 011.87-.871m15.127-2.296l-1.487 8.859h-1.636l.956-5.757-3.102 4.121h-.191l-1.636-4.164-.956 5.8H64.47l1.487-8.859h1.7l1.572 4.249 3.122-4.249H74.2zm3.037 7.479c.457.004.901-.154 1.253-.446a2.13 2.13 0 00.701-1.232v-.192a1.486 1.486 0 00-.319-1.232 1.364 1.364 0 00-1.083-.446 1.849 1.849 0 00-1.253.468 2.122 2.122 0 00-.659 1.295 1.551 1.551 0 00.234 1.296 1.295 1.295 0 001.104.489h.022zm2.464-4.929h1.55l-1.061 6.373h-1.551l.106-.573a2.762 2.762 0 01-1.997.765 2.121 2.121 0 01-2.018-1.063 3.271 3.271 0 01-.404-2.443 4.1 4.1 0 011.147-2.273 3.115 3.115 0 012.231-.913 1.929 1.929 0 011.848 1.041l.149-.914zm8.244-.022l-2.89 3.123 1.913 3.208H85.29l-1.721-2.974-.489 2.974h-1.55l1.465-8.859h1.551l-.871 5.205 2.443-2.677h1.827z" fill="#fff"/><path d="M89.133 105.587h3.06a1.315 1.315 0 00-.383-.956 1.27 1.27 0 00-.892-.318 1.8 1.8 0 00-1.062.34 2.126 2.126 0 00-.723.934zm-.488-1.805a3.418 3.418 0 012.358-.935 2.565 2.565 0 012.124.977 2.926 2.926 0 01.532 2.38 3.786 3.786 0 01-.17.658h-4.547a1.087 1.087 0 00.446.892c.287.215.641.32.999.298a1.896 1.896 0 001.466-.638l1.104.914a3.332 3.332 0 01-2.698 1.211 2.743 2.743 0 01-2.273-.999 3.032 3.032 0 01-.53-2.464 3.589 3.589 0 011.21-2.294m10.412-.743h1.55l-1.062 6.373h-1.55l.127-.679a2.29 2.29 0 01-1.87.871 1.83 1.83 0 01-1.55-.723 2.313 2.313 0 01-.34-1.912l.637-3.866h1.55l-.615 3.675a1.19 1.19 0 00.17.977.971.971 0 00.807.319c.356.007.703-.113.977-.34a1.85 1.85 0 00.574-1.02l.594-3.675zm7.18 3.249a1.629 1.629 0 00-.255-1.295 1.227 1.227 0 00-1.084-.489 1.974 1.974 0 00-1.232.425 2.126 2.126 0 00-.701 1.168v.319a1.502 1.502 0 00.34 1.211 1.384 1.384 0 001.083.446 1.81 1.81 0 001.233-.489c.349-.347.567-.805.616-1.296zm-.893-3.356a2.28 2.28 0 011.976 1.041 3.4 3.4 0 01.468 2.443 3.97 3.97 0 01-1.105 2.273 3.005 3.005 0 01-2.125.935 2.12 2.12 0 01-1.933-1.062l-.552 3.399h-1.551l1.466-8.838h1.551l-.107.659a2.585 2.585 0 011.997-.85" fill="#fff"/><path fill-rule="evenodd" clip-rule="evenodd" d="M24.253.79l.37-.53-.371-.26-.371.26.372.53zM82.887 24.5c.638-.116.638-.115.638-.114v.002l.002.01.007.038.024.143c.02.125.05.31.084.548.069.478.16 1.175.252 2.059.182 1.767.364 4.283.36 7.288-.01 6.004-.758 13.987-3.735 21.85-2.98 7.872-8.198 15.632-17.139 21.148-8.814 5.438-21.188 8.658-38.48 7.72v.772l-.034-.03.035 24.2-1.296.002-.036-25.338C10.39 73.196 3.73 62.122 1.218 51.998c-2.53-10.196-.84-19.359 2.525-27.026 3.362-7.659 8.397-13.833 12.58-18.087a69.549 69.549 0 015.34-4.903A50.42 50.42 0 0123.72.375l.117-.084.03-.022.01-.006.002-.002.373.53.371-.531h.001l.003.003.01.007.038.027.144.103c.125.091.309.227.543.404.468.356 1.14.882 1.963 1.57a70.606 70.606 0 016.313 6.003c4.7 5.05 10.071 12.299 12.9 21.201 8.26-4.488 17.24-5.934 24.198-6.254a70.337 70.337 0 018.805.143c1.082.087 1.942.185 2.533.261a32.61 32.61 0 01.857.122l.046.008.013.002h.004l-.108.64zm0 0l.109-.64.448.077.08.447-.637.116zM25.164 70.787l-.016.004v-5c0-.127.057-.355.163-.672.884-6.315 2.519-11.665 4.678-16.188 3.63-7.605 8.76-12.905 14.36-16.543l-.041.072c1.622-1.21 2.897-1.893 3.523-2.1 7.838-4.082 16.307-5.435 22.966-5.742 3.518-.162 6.52-.03 8.64.14a52.39 52.39 0 012.886.312l.036.243c.067.462.157 1.14.246 2.006.179 1.73.357 4.2.352 7.153-.008 5.91-.746 13.725-3.65 21.394-2.9 7.66-7.957 15.167-16.607 20.503-8.551 5.276-20.674 8.468-37.824 7.524l.288-13.106zM32.69 9.26c4.672 5.02 9.968 12.197 12.696 20.968-6.453 3.758-12.457 9.445-16.58 17.981-4.11 8.509-6.332 19.81-5.315 34.785-12.412-11.168-18.64-21.74-21.015-31.31-2.449-9.864-.82-18.732 2.454-26.191 3.277-7.467 8.2-13.513 12.316-17.7a68.252 68.252 0 015.24-4.81 49.021 49.021 0 011.768-1.39l.325.243c.453.345 1.11.859 1.915 1.533a69.291 69.291 0 016.196 5.89z" fill="#fff"/></svg>