<svg width="55" height="55" viewBox="0 0 55 55" fill="none" xmlns="http://www.w3.org/2000/svg"><path d="M.586 27.89a5.6 5.6 0 012.792.223 22.317 22.317 0 006.254 5.26c.68.381 1.39.707 2.122.975a26.148 26.148 0 0012.814 1.726 28.64 28.64 0 0013.425-5.14A28.523 28.523 0 0047.21 19.93c2.202-4.6 2.8-9.801 1.703-14.78.697 4.63.088 9.362-1.758 13.667a27.855 27.855 0 01-9.437 11.272 26.974 26.974 0 01-18.51 5.01 23.255 23.255 0 01-7.93-2.282c1.983-1.53 5.585-.556 7.092-3.535 1.145.863-.502 3.257-.586 3.257a18.29 18.29 0 006.477-1.976 41.45 41.45 0 006.17-5.372c-.475 1.391.586 4.537-.195 5.928 0-.139 1.787-1.837 3.518-4.064a23.726 23.726 0 003.154-8.016c-.195 1.81 2.457 4.12 2.625 5.901.279-3.451-.67-9.24 1.451-13.917.252 1.893 2.01 4.12 2.792 3.674a8.582 8.582 0 01-.418-7.71c1.954-3.702 4.104-5.567 5.165-5.567 1.842.53 2.791 2.784 3.713 4.62a6.634 6.634 0 01-1.257 7.266c1.34.278 2.792-1.114 3.518-2.422a17.817 17.817 0 01-3.015 13.527 17.039 17.039 0 01-4.865 4.674 17.09 17.09 0 01-6.303 2.424c1.843.89 8.153-2.255 7.538-.863a20.37 20.37 0 01-11.53 9.241 7.84 7.84 0 01-7.706-1.949 8.365 8.365 0 003.714 3.452 17.32 17.32 0 01-2.932.668c-7.65 1.364-14.099-1.893-15.02-4.843a3.388 3.388 0 001.508 3.59 10.51 10.51 0 01-4.58-2.27 10.466 10.466 0 01-2.959-4.16 24.048 24.048 0 01-7.761-6.54" fill="#fff"/><path d="M52.572 19.29a26.092 26.092 0 011.284 8.127 26.207 26.207 0 01-7.701 18.522 26.368 26.368 0 01-18.57 7.697 26.369 26.369 0 01-18.59-7.687 26.207 26.207 0 01-7.71-18.532 26.18 26.18 0 017.703-18.54 26.34 26.34 0 0118.596-7.68c3.644.004 7.247.766 10.578 2.238a26.185 26.185 0 018.77 6.307l.586-1.03a27.36 27.36 0 00-9.07-6.372A27.432 27.432 0 0027.583.084c-3.6 0-7.165.707-10.491 2.08A27.423 27.423 0 008.198 8.09a27.327 27.327 0 00-5.943 8.867 27.26 27.26 0 00-2.087 10.46 27.319 27.319 0 008.038 19.32 27.487 27.487 0 0019.378 8.013 27.486 27.486 0 0019.36-8.024 27.318 27.318 0 008.029-19.309 27.175 27.175 0 00-1.62-9.185l-.782 1.057z" fill="#fff"/><path d="M27.584.25a27.319 27.319 0 00-19.26 7.966 27.152 27.152 0 00-7.989 19.2 27.152 27.152 0 007.99 19.202 27.319 27.319 0 0019.259 7.965 27.29 27.29 0 0019.25-7.967 27.124 27.124 0 007.97-19.2 26.76 26.76 0 00-1.507-8.823l-.558.724a26.039 26.039 0 011.312 8.1 26.401 26.401 0 01-7.769 18.641 26.563 26.563 0 01-18.698 7.745 26.536 26.536 0 01-18.707-7.736 26.374 26.374 0 01-7.76-18.65 26.374 26.374 0 017.76-18.65A26.536 26.536 0 0127.584 1.03a26.62 26.62 0 0110.525 2.184 26.55 26.55 0 018.795 6.166l.39-.696a26.86 26.86 0 00-8.984-6.218A26.93 26.93 0 0027.584.334V.251zm0 54.75a27.655 27.655 0 01-19.497-8.063A27.486 27.486 0 010 27.5 27.486 27.486 0 018.087 8.063 27.655 27.655 0 0127.584 0a27.348 27.348 0 0110.933 2.253 27.276 27.276 0 019.112 6.431l-.753 1.336-.14-.167a26.186 26.186 0 00-8.725-6.255A26.256 26.256 0 0027.5 1.364 26.2 26.2 0 009.03 9.003a26.04 26.04 0 00-7.662 18.414A26.04 26.04 0 009.03 45.83a26.2 26.2 0 0018.47 7.64 26.172 26.172 0 0018.46-7.641 26.012 26.012 0 007.644-18.412 25.703 25.703 0 00-1.284-8.072l1.033-1.364v.278A27.231 27.231 0 0155 27.5a27.486 27.486 0 01-8.087 19.437A27.655 27.655 0 0127.416 55" fill="#fff"/></svg>