<svg width="62" height="56" viewBox="0 0 62 56" fill="none" xmlns="http://www.w3.org/2000/svg"><path d="M10.118 10.553a.761.761 0 000 .244.679.679 0 010 .218v.898a4.732 4.732 0 001.904 3.1 4.162 4.162 0 000 3.182 3.998 3.998 0 001.93 2.23 3.346 3.346 0 002.72.218c.327 0 .49 0 .98.272.394.257.84.424 1.305.49.136.979.272 1.985.354 3.046a11.966 11.966 0 00-6.174 2.964 10.415 10.415 0 00-3.21 7.942 9.927 9.927 0 003.427 6.772 22.19 22.19 0 006.256 4.025 2.72 2.72 0 011.278 1.523c.245.463.517 1.034 1.142 1.034.599 0 .898-.544 1.17-1.115l.462-.762a2.259 2.259 0 00.789 1.66c.358.274.8.417 1.251.407h.218a7.724 7.724 0 003.372-1.36 47.849 47.849 0 006.636-5.14 126.909 126.909 0 0013.98-15.013c.952-1.278 1.795-2.42 2.475-3.481l.136-.218a1.164 1.164 0 000-.19c.183 1.333.256 2.68.218 4.025v.625A25.103 25.103 0 0127.66 53.227 25.104 25.104 0 012.611 28.15a23.009 23.009 0 017.344-17.57l.163-.027zm9.356-7.045c3.034-1.259 6.26-2.368 9.546-2.366a24.831 24.831 0 0117.95 7.589c.273.271.953 1.169 1.578 1.93v.164h-.408a3.862 3.862 0 00-1.441.163c-2.258.625-4.923 3.046-8.459 7.588a117.276 117.276 0 00-7.044 10.417 11.234 11.234 0 00-7.561-4.515c0-.218 0-.435.136-.653a3.211 3.211 0 001.333-.38c.517-.245.707-.327 1.006-.164.534.25 1.126.354 1.713.3a3.67 3.67 0 00.925-.164 4.242 4.242 0 002.34-2.121 4.082 4.082 0 00.19-3.182 4.652 4.652 0 002.203-2.91 4.516 4.516 0 00-.164-2.557 3.548 3.548 0 00-.68-1.088 3.55 3.55 0 00.49-.762 3.78 3.78 0 00-1.523-5.113 3.4 3.4 0 00-2.72-.136 3.972 3.972 0 00-2.312 2.095 2.99 2.99 0 00-.326.897 4.215 4.215 0 00-3.508 1.85c-.319.411-.55.883-.68 1.387l-.463-.272a4.351 4.351 0 00-.49-3.291 4.27 4.27 0 00-2.72-2.067 3.67 3.67 0 00-.76 0 5.148 5.148 0 00-.245-.925 6.95 6.95 0 00-.3-.653l2.394-1.06zM10.96 35.82a9.818 9.818 0 012.72-7.153 11.45 11.45 0 017.588-2.72h.435a10.417 10.417 0 018.92 4.434 119.094 119.094 0 00-3.236 5.82 45.963 45.963 0 00-3.318 7.724c-.155.491-.282.99-.38 1.496a5.93 5.93 0 00-1.768 2.04 5.93 5.93 0 00-2.72-2.42c-1.21-.424-2.362-1-3.427-1.714a15.724 15.724 0 01-2.72-2.448 8.16 8.16 0 01-2.067-5.195l-.027.136zM16.1 5.494c.136.383.192.79.164 1.197a.761.761 0 00.407.707.68.68 0 00.599 0 3.019 3.019 0 012.91 1.523c.107.2.198.41.272.625a2.175 2.175 0 01-.19 1.931.844.844 0 00-.164.79.76.76 0 00.653.489 2.72 2.72 0 011.605.924c.079.09.143.19.19.3v.163c0 .245.136.516.218.816.081.299 0 .217 0 .299v.19c.013.136.013.273 0 .408v.164a4.086 4.086 0 01-.19.516 2.174 2.174 0 01-1.252 1.197 1.822 1.822 0 00-.925.707l-.217.435a.38.38 0 000 .163v.218c-.064.28-.195.542-.38.761v-.244a35.357 35.357 0 00-3.129-9.574c-.19-.353-.516-.897-.897-.707a.707.707 0 00-.354.435.706.706 0 000 .571 35.358 35.358 0 013.237 9.764l-.49-.245a2.42 2.42 0 00-1.441-.49 2.28 2.28 0 00-.544 0 2.285 2.285 0 01-1.877-.162 2.72 2.72 0 01-1.36-1.605 2.964 2.964 0 01-.163-1.523 2.12 2.12 0 01.49-.952.762.762 0 00.163-.49.68.68 0 000-.326.381.381 0 00-.245-.217.761.761 0 00-.462-.245.818.818 0 01-.3 0 3.345 3.345 0 01-1.25-2.149 2.91 2.91 0 01.516-2.23 2.43 2.43 0 01.599-.598h.163a.435.435 0 00.272-.3.38.38 0 000-.408l-.245-.299c-.136-.272-.326-.544-.435-.788a2.719 2.719 0 011.305-3.427 2.257 2.257 0 011.578 0c.588.34 1.048.866 1.305 1.496l-.136.19zm16.59 8.132a2.79 2.79 0 010 .517c.026.253.026.508 0 .761a2.884 2.884 0 01-1.957 2.149.788.788 0 00-.68.435.87.87 0 000 .816 2.556 2.556 0 01.163 2.72 3.074 3.074 0 01-1.578 1.414 2.394 2.394 0 01-1.74 0 1.767 1.767 0 00-.925-.19 2.72 2.72 0 00-1.115.353l-.49.19a35.603 35.603 0 014.162-9.41.761.761 0 00-.245-1.033c-.245 0-.435 0-.626.272h-.136a37.793 37.793 0 00-2.393 4.514 36.218 36.218 0 00-1.904 5.14l-.163-.298v-.136l-.163-.626a1.986 1.986 0 00-1.061-1.387 2.473 2.473 0 01-.435-.3c.04-.149.095-.295.163-.434.48-.19.915-.477 1.278-.843.396-.334.712-.753.925-1.224a4.08 4.08 0 000-3.1 5.21 5.21 0 00-.435-.871c.02-.657.238-1.292.625-1.822a2.91 2.91 0 012.91-1.224.843.843 0 00.68 0 .76.76 0 00.381-.653 2.937 2.937 0 011.305-2.312l.3-.163a2.393 2.393 0 011.74 0 2.42 2.42 0 011.279 1.985 2.72 2.72 0 01-.272 1.197 3.18 3.18 0 01-.762.952.79.79 0 00-.272.762.733.733 0 00.408.516c.28.19.513.44.68.735l.163.353a2.719 2.719 0 000 .381l.19-.136zm-11.993 7.235l.462.19c.3 0 .38.326.49.898a2.45 2.45 0 001.088 1.74c0 .3-.164.599-.218.898h-2.23c0-1.061-.218-2.095-.381-3.1.31-.141.581-.356.789-.626zM56.055 5.984a12.563 12.563 0 012.502-1.524 13.896 13.896 0 01-1.007 3.155 7.642 7.642 0 01-1.033 1.823c-.296.363-.614.708-.952 1.033a8.875 8.875 0 01-1.006.762c-.327.217-.68.407-.98.57l-.843.381v-.271a1.596 1.596 0 000-.354 1.778 1.778 0 010-.19v-.354a.79.79 0 010-.245 2.019 2.019 0 010-.38c-.01-.09-.01-.182 0-.273a1.865 1.865 0 000-.353c.012-.1.012-.2 0-.3l.164-.38.136-.272.217-.435c.052-.069.097-.141.136-.218l.435-.625.436-.49c.44-.431.904-.84 1.387-1.224l.408.164zm-2.829 11.15a20.18 20.18 0 01-4.895 9.574 51.656 51.656 0 01-1.687 2.094l-2.883-2.23c-.19 0-.788-.299-1.033 0a.816.816 0 00.136 1.142l2.72 2.176a219.818 219.818 0 01-5.44 6.12l-2.883-2.258c-.354-.245-.843-.353-1.115 0a.816.816 0 00-.163.599.843.843 0 00.299.544l2.72 2.175a97.18 97.18 0 01-4.597 4.406l-1.196 1.061-.3.245-2.855-2.203a.734.734 0 00-1.061 0 .816.816 0 00.163 1.115l2.72 2.013a15.667 15.667 0 01-6.8 3.943.79.79 0 01-.38 0 .926.926 0 01-.245-.462 19.5 19.5 0 012.72-8.812c.272-.571.544-1.142.87-1.768l.68-1.305 2.72 2.012c.139.11.312.168.49.163a.898.898 0 00.57-.299.654.654 0 00-.136-1.006L29.51 33.97c1.305-2.312 2.72-4.732 4.27-7.072l2.72 2.15a.898.898 0 001.115 0 .844.844 0 000-1.007l-3.02-2.34a110.401 110.401 0 014.407-6.227 43.513 43.513 0 013.644-4.162l2.856 2.203c.139.114.31.181.49.19a.708.708 0 00.67-.536.709.709 0 00-.317-.769l-2.72-2.067a9.546 9.546 0 013.264-2.013c.226-.026.454-.026.68 0h.68a4.91 4.91 0 011.414.626c-.011.09-.011.182 0 .272a.706.706 0 00.49.462c.049.13.134.243.245.327.123.082.262.138.407.163a.817.817 0 00.572.354h.272c.492.43.874.97 1.115 1.577.088.31.134.63.136.952l.326.081zm7.425-9.301a10.88 10.88 0 01-3.29 4.052 10.662 10.662 0 01-4.842 1.306l.789-.38h.163c.356-.18.701-.38 1.033-.6h.164a9.76 9.76 0 001.033-.815 9.06 9.06 0 00.98-1.06c.185-.19.35-.4.489-.626.352-.417.653-.873.897-1.36.815-.157 1.646-.22 2.475-.19l.11-.327zm-6.8-3.291a.408.408 0 010 .19 5.47 5.47 0 010 .68l-.434.408-.354.3c-.268.267-.522.549-.762.843l-.49.707s0 .19-.135.272a4.4 4.4 0 00-.272.49c-.05.097-.096.197-.136.299a2.1 2.1 0 00-.19.435c-.04.102-.086.201-.137.299V9.9a.381.381 0 000 .19c-.175.453-.32.916-.435 1.387a9.275 9.275 0 010-4.569 10.689 10.689 0 013.128-4.215c.162.598.28 1.207.354 1.822l-.136.027zm-27.197 51.05c7.074-.007 14.128-3.256 19.13-8.258a26.708 26.708 0 007.823-18.858 34.707 34.707 0 00-.626-6.663v-.218a1.612 1.612 0 000-.218 9.111 9.111 0 001.088-3.753 4.433 4.433 0 00-.843-2.72 9.873 9.873 0 004.624-1.441 11.07 11.07 0 004.08-5.44.788.788 0 000-.652.818.818 0 00-.572-.354 10.28 10.28 0 00-2.91 0c.354-1.059.591-2.153.707-3.264a.816.816 0 00-.299-.625.87.87 0 00-.68-.136 13.605 13.605 0 00-2.992 1.577c-.1-.995-.33-1.973-.68-2.91a.816.816 0 00-.49-.462.761.761 0 00-.68 0 11.206 11.206 0 00-4.27 5.44 9.086 9.086 0 00-.407 2.719v.272c-.013.1-.013.2 0 .299a16.313 16.313 0 00-1.278-1.768 26.789 26.789 0 00-29.374-6.174l-3.1 1.36h-.354a3.373 3.373 0 00-2.72 0 3.726 3.726 0 00-2.067 4.651v.299A26.408 26.408 0 000 28.911a26.708 26.708 0 0026.654 26.681z" fill="#fff"/><path d="M19.092 29.836c.19 0 .626-.462.571-.626a.68.68 0 00-.38-.435.816.816 0 00-.572 0 7.126 7.126 0 00-5.031 7.126.68.68 0 00.245.517.79.79 0 00.49.19c.407 0 .407-.353.38-.761a6.23 6.23 0 014.243-5.957m24.803-9.981c-.19 0-.761-.354-1.06 0a.816.816 0 00.136 1.115l3.154 2.42a.761.761 0 00.812.083.706.706 0 00.25-.219.705.705 0 00-.218-1.033l-3.074-2.366z" fill="#fff"/></svg>