<svg width="318" height="177" viewBox="0 0 318 177" fill="none" xmlns="http://www.w3.org/2000/svg"><path d="M118.545 0h-10.159v72.196h10.159V0zm24.71 5.16h-9.087v13.49h-8.424v7.254h8.424v32.854c0 11.139 2.399 13.438 12.661 13.438h6.535v-7.562h-4.544c-5.105 0-5.565-1.38-5.565-7v-31.73h10.211V18.65h-10.211V5.16zm22.668 20.132l6.075-13.03V0h-11.487v11.445h4.901l-5.258 13.847h5.769zM191.5 40.927l-7.555-1.482c-5.106-1.124-8.169-3.015-8.169-7.255 0-4.241 5.871-6.592 11.232-6.592 2.83-.363 5.695.34 8.035 1.974a11.494 11.494 0 014.626 6.866h9.445a19.57 19.57 0 00-7.248-12.494 19.54 19.54 0 00-13.837-4.112c-11.844 0-21.391 5.467-21.391 14.92 0 9.452 7.913 13.233 15.316 14.868l7.964 1.584c5.769 1.277 10.823 3.372 10.823 8.84 0 5.466-5.565 7.97-12.457 7.97a12.652 12.652 0 01-9.001-2.738 12.674 12.674 0 01-4.63-8.196h-9.547a21.722 21.722 0 007.853 13.836 21.687 21.687 0 0015.172 4.762c12.202 0 21.749-5.978 21.749-16.606 0-10.627-8.628-14.357-18.38-16.145zM35.482 165.582c-11.18 0-21.646-9.554-21.646-28.561 0-19.008 10.21-27.643 21.646-27.643a19.086 19.086 0 0112.513 4.099 19.114 19.114 0 016.887 11.23h12.866a31.07 31.07 0 00-10.738-19.155 31.022 31.022 0 00-20.71-7.261c-22.158 0-36.3 16.606-36.3 38.985 0 22.379 13.427 39.291 35.074 39.291a33.47 33.47 0 0021.461-7.144 33.522 33.522 0 0012.03-19.169H55.443a20.028 20.028 0 01-7.273 11.196 19.999 19.999 0 01-12.689 4.132zm59.222-92.21H81.99V174.69h12.713V73.371zm154.027 69.743c0 17.73-11.283 23.197-23.178 23.197-9.037 0-14.499-4.752-14.499-11.905 0-10.219 14.652-13.847 37.677-16.044v4.752zm-103.638-34.131a20.768 20.768 0 0111.454 3.094 20.788 20.788 0 017.895 8.862 6.494 6.494 0 01-2.693 8.482 6.485 6.485 0 01-3.127.817h-36.146a21.277 21.277 0 016.7-15.539 21.233 21.233 0 0115.917-5.716zm114.41 37.299l.868-17.474c0-21.204-15.316-31.015-36.248-31.015a45.44 45.44 0 00-11.895 1.687c-17.154 4.496-22.208 17.423-28.028 32.393-1.379 3.475-2.757 7.102-4.442 10.934-7.403 17.27-18.43 18.956-18.89 19.007a75.938 75.938 0 01-11.283 1.584c-11.027.307-26.956-5.978-27.364-22.226h37.677a17.14 17.14 0 0014.563-8.15 17.173 17.173 0 00.753-16.681 32.95 32.95 0 00-12.538-13.528 32.912 32.912 0 00-17.838-4.662c-20.422 0-36.452 15.073-36.452 38.985a39.24 39.24 0 0025.324 36.783 39.173 39.173 0 0015.518 2.508 36.525 36.525 0 0021.673-5.276 36.574 36.574 0 0014.575-16.899 59.071 59.071 0 003.727-7.204c1.736-4.036 3.165-7.715 4.544-11.292 6.024-15.328 9.393-22.992 20.778-25.955a33.548 33.548 0 019.343-1.431c9.496 0 23.433 4.445 23.433 18.292v1.839c-30.632 3.321-51.053 8.635-51.053 26.416 0 13.795 11.691 21.664 25.833 21.664 14.142 0 21.085-4.343 25.527-12.161.121 3.423.445 6.835.97 10.219h12.865a128.39 128.39 0 01-1.94-28.357zm54.77-47.205a22.707 22.707 0 00-12.676 3.577 22.737 22.737 0 00-8.562 10.014V99.487h-12.457v75.21h12.712v-39.393c0-16.657 5.871-23.095 17.613-23.095 2.377.004 4.75.192 7.097.562v-13.54c-1.241-.07-2.486-.223-3.727-.153z" fill="#fff"/></svg>