<svg width="318" height="176" viewBox="0 0 318 176" fill="none" xmlns="http://www.w3.org/2000/svg"><path d="M118.409 0h-10.148v72.113h10.148V0zm24.681 4.66h-9.077v13.473h-8.414v7.247h8.414v32.815c0 11.126 2.396 13.422 12.646 13.422h6.528v-7.553h-4.539c-5.099 0-5.558-1.378-5.558-6.992V25.38h10.198v-7.246H143.09V4.659zm22.641 20.602l6.068-13.014V0h-11.473v11.432h4.895l-5.252 13.83h5.762zm25.547 15.618l-7.547-1.48c-5.099-1.123-8.159-3.012-8.159-7.248 0-4.236 5.864-6.583 11.218-6.583a11.47 11.47 0 018.027 1.971 11.484 11.484 0 014.62 6.858h9.434a19.548 19.548 0 00-7.239-12.479 19.521 19.521 0 00-13.822-4.108c-11.83 0-21.366 5.461-21.366 14.903 0 9.441 7.904 13.218 15.298 14.85l7.955 1.583c5.763 1.276 10.811 3.368 10.811 8.83 0 5.46-5.558 7.96-12.443 7.96a12.64 12.64 0 01-8.991-2.734 12.657 12.657 0 01-4.624-8.187h-9.536a21.692 21.692 0 007.844 13.82 21.663 21.663 0 0015.155 4.757c12.187 0 21.723-5.971 21.723-16.587 0-10.615-8.516-14.136-18.256-15.922M35.441 164.655c-11.168 0-21.622-9.238-21.622-28.223s10.2-27.61 21.622-27.61a19.067 19.067 0 0112.498 4.094 19.089 19.089 0 016.88 11.217h12.85A31.036 31.036 0 0056.945 105a30.988 30.988 0 00-20.688-7.252C14.126 97.748 0 114.334 0 136.686c0 22.354 13.412 39.247 35.033 39.247a33.434 33.434 0 0021.437-7.137 33.48 33.48 0 0012.015-19.147H55.38a20.01 20.01 0 01-7.265 11.184 19.98 19.98 0 01-12.674 4.127m59.154-92.168H81.897v101.203h12.698V72.792zm153.849 69.663c0 17.709-11.27 23.17-23.152 23.17-9.026 0-14.482-4.747-14.482-11.892 0-10.207 14.636-13.83 37.634-16.024v4.746zm-103.518-34.092a20.763 20.763 0 0119.326 11.942 6.484 6.484 0 01-5.813 9.289h-36.104a21.25 21.25 0 016.692-15.522 21.214 21.214 0 0115.899-5.709zm115.144 37.154v-17.352c0-21.18-15.298-30.978-36.205-30.978a45.381 45.381 0 00-11.882 1.684c-17.134 4.491-22.183 17.403-27.996 32.356-1.377 3.47-2.754 7.094-4.436 10.922-7.395 17.249-18.409 18.934-18.868 18.985a76.044 76.044 0 01-11.27 1.582c-11.015.306-26.925-5.971-27.333-22.201h37.634a17.135 17.135 0 0014.546-8.14 17.164 17.164 0 00.752-16.663 32.905 32.905 0 00-12.524-13.511 32.867 32.867 0 00-17.818-4.657c-20.397 0-36.409 15.055-36.409 38.94a39.203 39.203 0 0025.294 36.74 39.145 39.145 0 0015.501 2.506 36.483 36.483 0 0021.648-5.271 36.533 36.533 0 0014.558-16.879 58.862 58.862 0 003.722-7.196c1.734-4.031 3.162-7.706 4.539-11.278 6.017-15.311 9.383-22.966 20.755-25.926a33.537 33.537 0 019.332-1.429c9.485 0 23.406 4.44 23.406 18.27v1.838c-30.597 3.317-50.994 8.625-50.994 26.385 0 13.779 11.677 21.639 25.803 21.639 14.125 0 21.06-4.338 25.497-12.146.121 3.418.445 6.826.969 10.207h12.85a128.226 128.226 0 01-1.937-28.325m55.073-47.156a22.682 22.682 0 00-21.213 13.576V98.871h-12.443v75.124h12.698v-39.348c0-16.637 5.864-23.068 17.593-23.068 2.373.004 4.743.191 7.088.562V98.616a32.84 32.84 0 00-3.723 0" fill="#fff"/></svg>