<svg width="137" height="137" viewBox="0 0 137 137" fill="none" xmlns="http://www.w3.org/2000/svg"><g clip-path="url(#clip0_262_909)" fill-rule="evenodd" clip-rule="evenodd" fill="#D7955B"><path d="M60.4 61.96c.438.217.85.524 1.262.83 2.265 1.495 4.92 3.194 6.616 5.395 2.214 2.922 2.63 5.631 1.936 8.032-.979 3.378-4.445 6.16-8.465 7.347-3.99 1.196-8.487.906-11.538-1.384-2.097-1.544-3.554-4.063-3.702-7.755-.193-4.184 1.854-7.553 4.966-10.146 1.18-1.016 2.48-1.807 3.882-2.57-1.379-.672-2.77-1.348-4.184-2.029-4.67-2.068-9.739-3.67-14.721-4.768-6.568-1.539-13.151-1.928-19.846-1.101-.605.024-1.165-.42-1.244-1.019-.079-.598.358-1.149.987-1.262 6.957-.85 13.81-.482 20.632 1.128 5.1 1.227 10.341 2.781 15.13 4.978 1.976.934 3.914 1.857 5.804 2.863 3.213-1.315 6.596-2.104 9.366-2.39 18.437-1.595 38.67 12.775 51.571 25.01.455.414.483 1.095.054 1.552-.43.457-1.136.452-1.591.038-12.49-11.833-31.987-25.902-49.838-24.336-2.1.184-4.604.737-7.077 1.586zm-2.632 1.092a17.52 17.52 0 012.624 1.594c2.057 1.437 4.54 2.896 6.105 4.868 1.674 2.196 2.085 4.232 1.571 6.01-.823 2.845-3.716 4.922-6.957 5.845-3.297 1.005-7.035.925-9.538-1.02-1.62-1.219-2.7-3.153-2.827-5.974-.144-3.498 1.62-6.273 4.168-8.35 1.439-1.233 3.107-2.21 4.854-2.973z"/><path d="M118.72 84.233c-.191-.533-.537-1.11-.885-1.687-.659-1.144-1.397-2.214-1.705-3.068-1.928-5.148-4.176-11.345-4.398-16.882-.035-.586.451-1.123 1.071-1.143.62-.02 1.158.418 1.169 1.093.23 5.252 2.436 11.15 4.264 16.173.349.866 1.235 2.168 1.916 3.319.565 1.021.971 1.999.976 2.865.036.49-.366 1.243-1.518 1.499-1.622.317-5.747-.157-6.155-.175-4.123-.186-7.78-.243-11.17 2.464-.476.348-1.181.248-1.591-.154-.385-.492-.293-1.235.184-1.582 3.856-3.058 8.022-3.244 12.712-2.996.282.078 2.743.379 4.533.3.202-.04.398.014.597-.026z"/></g><defs><clipPath id="clip0_262_909"><path fill="#fff" transform="scale(1 -1) rotate(74.454 143.268 2.028)" d="M0 0h110.881v110.881H0z"/></clipPath></defs></svg>