<svg width="155" height="155" viewBox="0 0 155 155" fill="none" xmlns="http://www.w3.org/2000/svg"><g clip-path="url(#clip0_262_967)" fill-rule="evenodd" clip-rule="evenodd" fill="#75907C"><path d="M85.765 82.527c-.35-.34-.777-.628-1.203-.914-2.162-1.64-4.646-3.58-7.285-4.45-3.49-1.118-6.185-.611-8.219.84-2.861 2.045-4.335 6.239-4.12 10.425.196 4.16 1.963 8.306 5.136 10.423 2.153 1.467 5.012 2.004 8.544.919 4.01-1.208 6.51-4.257 7.922-8.053.567-1.451.881-2.94 1.136-4.515 1.09 1.077 2.19 2.166 3.302 3.272 3.501 3.72 6.695 7.969 9.385 12.304 3.632 5.684 6.185 11.765 7.628 18.355.177.578.783.959 1.373.835.591-.124.965-.719.863-1.35a58.217 58.217 0 00-7.913-19.087c-2.85-4.404-6.057-8.832-9.718-12.619-1.538-1.554-3.052-3.076-4.629-4.525.174-3.468-.205-6.92-.854-9.628C82.497 56.838 62.225 42.523 46.4 34.415a1.075 1.075 0 00-1.482.465c-.289.556-.05 1.222.493 1.513 15.307 7.854 35.051 21.574 39.5 38.933.523 2.041.833 4.587.853 7.201zm-.157 2.846a17.431 17.431 0 00-2.375-1.946c-2.038-1.463-4.238-3.32-6.618-4.142-2.627-.851-4.684-.562-6.19.513-2.411 1.72-3.41 5.139-3.205 8.503.147 3.443 1.463 6.943 4.129 8.659 1.688 1.123 3.87 1.5 6.573.682 3.348-1.025 5.38-3.61 6.493-6.703.686-1.767 1.053-3.665 1.193-5.566z"/><path d="M45.394 34.91c.566.003 1.225.138 1.885.274 1.298.242 2.552.583 3.46.59 5.496.11 12.088.173 17.384-1.456.565-.16.91-.798.723-1.39-.187-.59-.779-.953-1.42-.739-5.03 1.527-11.325 1.403-16.67 1.347-.933-.042-2.456-.446-3.767-.706-1.151-.194-2.208-.252-3.026.031-.475.129-1.052.757-.91 1.93.238 1.634 2.056 5.368 2.207 5.747 1.545 3.827 2.813 7.259 1.384 11.354-.17.565.159 1.197.674 1.45.591.2 1.262-.133 1.431-.699 1.605-4.652.397-8.643-1.394-12.985-.167-.24-1.267-2.462-1.788-4.176-.03-.204-.145-.37-.173-.572z"/></g><defs><clipPath id="clip0_262_967"><path fill="#fff" transform="rotate(-34.935 100.891 31.748)" d="M0 0h110.881v110.881H0z"/></clipPath></defs></svg>