<svg width="137" height="137" viewBox="0 0 137 137" fill="none" xmlns="http://www.w3.org/2000/svg"><g clip-path="url(#clip0_266_2975)" fill-rule="evenodd" clip-rule="evenodd" fill="#C48379"><path d="M60.4 61.959c.439.218.85.524 1.262.831 2.266 1.495 4.92 3.194 6.616 5.395 2.214 2.921 2.63 5.63 1.937 8.032-.98 3.378-4.446 6.16-8.466 7.347-3.989 1.196-8.487.905-11.538-1.384-2.097-1.545-3.553-4.063-3.702-7.755-.193-4.184 1.854-7.553 4.966-10.146 1.18-1.016 2.48-1.807 3.882-2.57a1115.82 1115.82 0 00-4.184-2.029c-4.67-2.068-9.739-3.67-14.721-4.768-6.568-1.539-13.151-1.929-19.846-1.102-.605.024-1.165-.42-1.244-1.018-.079-.599.359-1.149.988-1.262 6.956-.85 13.808-.482 20.63 1.127 5.101 1.227 10.342 2.782 15.13 4.979 1.977.934 3.915 1.857 5.805 2.863 3.213-1.316 6.596-2.104 9.366-2.39 18.437-1.596 38.67 12.774 51.571 25.01.455.414.483 1.095.054 1.552-.429.457-1.136.452-1.591.037-12.49-11.832-31.987-25.902-49.838-24.335-2.1.184-4.604.737-7.077 1.586zm-2.632 1.093c.904.444 1.778.974 2.624 1.594 2.057 1.437 4.54 2.896 6.105 4.868 1.674 2.195 2.085 4.232 1.571 6.01-.823 2.845-3.716 4.922-6.957 5.845-3.297 1.004-7.035.925-9.538-1.02-1.62-1.22-2.7-3.153-2.827-5.974-.144-3.498 1.62-6.273 4.168-8.35 1.439-1.233 3.108-2.21 4.854-2.973z"/><path d="M118.72 84.233c-.191-.534-.537-1.11-.885-1.688-.659-1.143-1.397-2.213-1.705-3.068-1.928-5.147-4.176-11.344-4.398-16.881-.035-.587.451-1.124 1.071-1.143.62-.02 1.158.418 1.169 1.093.23 5.252 2.436 11.15 4.264 16.173.349.865 1.235 2.168 1.916 3.318.565 1.022.971 2 .976 2.865.036.49-.366 1.244-1.518 1.5-1.622.317-5.747-.158-6.155-.175-4.123-.186-7.78-.243-11.17 2.464-.476.348-1.181.248-1.591-.154-.385-.492-.293-1.235.184-1.583 3.856-3.058 8.022-3.243 12.712-2.995.282.078 2.743.378 4.533.3.202-.04.398.014.597-.026z"/></g><defs><clipPath id="clip0_266_2975"><path fill="#fff" transform="scale(1 -1) rotate(74.454 143.268 2.028)" d="M0 0h110.881v110.881H0z"/></clipPath></defs></svg>