<svg width="51" height="50" viewBox="0 0 51 50" fill="none" xmlns="http://www.w3.org/2000/svg"><path d="M25.375 48.844c13.462 0 24.375-10.71 24.375-23.922S38.837 1 25.375 1 1 11.71 1 24.922s10.913 23.922 24.375 23.922z" stroke="#6A8E77" stroke-width="2" stroke-miterlimit="10" stroke-linecap="round" stroke-linejoin="round"/><path d="M40 18.542c0-2.552-2.275-4.784-4.875-4.784s-4.875 2.232-4.875 4.784m-9.75 0c0-2.552-2.275-4.784-4.875-4.784s-4.875 2.232-4.875 4.784m1.625 12.76c2.275 4.784 7.475 7.973 13 7.973s10.725-3.19 13-7.973" stroke="#6A8E77" stroke-width="2" stroke-miterlimit="10" stroke-linecap="round" stroke-linejoin="round"/><path d="M17.25 36.724V31.3c0-2.552 2.275-4.784 4.875-4.784S27 28.749 27 31.3v7.974" stroke="#6A8E77" stroke-width="2" stroke-miterlimit="10" stroke-linecap="round" stroke-linejoin="round"/></svg>