<svg width="51" height="52" viewBox="0 0 51 52" fill="none" xmlns="http://www.w3.org/2000/svg"><g clip-path="url(#clip0_289_269)" fill="#6A8E77"><path d="M22.984 38.807a1.791 1.791 0 001.263-.548c.333-.345.52-.81.52-1.294a1.823 1.823 0 00-.523-1.301 1.755 1.755 0 00-1.284-.516c-.475 0-.931.19-1.27.53a1.86 1.86 0 00-.538 1.287c.007.49.203.96.546 1.304.342.345.805.538 1.286.538zm0-2.614a.748.748 0 01.414.142.786.786 0 01.088 1.184.752.752 0 01-.821.156.761.761 0 01-.336-.284.783.783 0 01.104-.98.755.755 0 01.551-.218zm6.839 3.137a1.633 1.633 0 00-.474-1.128 1.572 1.572 0 00-1.114-.465c-.417.006-.814.18-1.107.482-.292.303-.456.71-.456 1.136.048.391.234.751.524 1.012a1.57 1.57 0 002.102 0c.29-.26.477-.62.525-1.012v-.025zm-2.125.025a.553.553 0 01.165-.372.532.532 0 01.372-.151.505.505 0 01.379.144.523.523 0 01.158.379c0 .147-.055.29-.155.396a.557.557 0 01-.382.176.608.608 0 01-.37-.188.628.628 0 01-.167-.384zm-1.661 2.837a1.189 1.189 0 00-.336-.827 1.146 1.146 0 00-.812-.343 1.105 1.105 0 00-.826.318 1.146 1.146 0 00-.346.827c.04.285.18.544.393.732a1.16 1.16 0 001.534 0c.213-.188.353-.447.393-.732v.025zm-1.172-.149h.024-.122a.254.254 0 010-.124"/><path d="M42.182 27.133a.513.513 0 00-.366-.175h-3.468a7.775 7.775 0 00-1.857.274l-.83.274a.268.268 0 00-.171.2v-.15l-.391.174a7.54 7.54 0 00-3.322 3.286 9.197 9.197 0 00-.66 1.518 6.69 6.69 0 00-.22.946v.349a4.59 4.59 0 000 1.145c.006.68.096 1.358.27 2.016.146.523.268 1.045.39 1.543a5.402 5.402 0 010 2.166 6.113 6.113 0 01-.781 1.942 5.868 5.868 0 01-1.755 1.785 5.744 5.744 0 01-2.324.878c-.26.024-.522.024-.782 0a3.91 3.91 0 01-.757 0 5.717 5.717 0 01-2.343-.833 5.84 5.84 0 01-1.785-1.756 6.115 6.115 0 01-.782-1.941 5.858 5.858 0 010-2.166c0-.498.27-1.02.391-1.543a8.16 8.16 0 00.269-2.017c.036-.38.036-.764 0-1.145a1.72 1.72 0 000-.348 6.622 6.622 0 00-.22-.946 9.197 9.197 0 00-.66-1.519 7.538 7.538 0 00-3.297-3.21l-.366-.175c-.01.05-.01.1 0 .15a.25.25 0 00-.171-.2l-.83-.274a7.775 7.775 0 00-1.857-.273h-3.468a.506.506 0 00-.367.174.46.46 0 00-.253.123.475.475 0 00-.138.25c-.02.122 0 .247.057.355.058.109.15.194.261.243h3.737c.443.013.884.063 1.319.15a6.025 6.025 0 012.614 1.144 6.713 6.713 0 012.1 2.49l.366.82v.15l.147.647v.498c.012.108.012.216 0 .324a6.358 6.358 0 01-.293 2.34 12.932 12.932 0 00-.464 1.667 6.973 6.973 0 000 2.49 7.152 7.152 0 002.858 4.356 6.611 6.611 0 003.321 1.17h1.173a6.611 6.611 0 003.322-1.17 6.919 6.919 0 002.125-2.34 6.65 6.65 0 00.733-2.016 6.991 6.991 0 000-2.49 12.948 12.948 0 00-.465-1.667 6.358 6.358 0 01-.293-2.34v-.822a6.023 6.023 0 010-.647v-.15c.147-.273.245-.547.367-.82a6.711 6.711 0 012.1-2.49 5.998 5.998 0 012.638-1.145 7.36 7.36 0 011.295-.15h3.761a.557.557 0 00.293-.598.474.474 0 00-.39-.372"/><path d="M29.823 29.199a1.633 1.633 0 00-.474-1.128 1.573 1.573 0 00-1.114-.466 1.543 1.543 0 00-.862.281c-.253.178-.45.428-.565.72a1.621 1.621 0 00.355 1.728 1.536 1.536 0 001.7.334 1.57 1.57 0 00.698-.587c.17-.261.262-.568.262-.882zm-2.125 0a.552.552 0 01.165-.372.532.532 0 01.372-.151.505.505 0 01.379.144.525.525 0 01.158.379.553.553 0 01-.157.387.532.532 0 01-.38.16.557.557 0 01-.373-.167.578.578 0 01-.164-.38zm-1.661 2.862c0-.31-.12-.608-.336-.827a1.137 1.137 0 00-.812-.343 1.105 1.105 0 00-.826.318 1.146 1.146 0 00-.346.827c.04.285.18.544.393.732a1.16 1.16 0 001.534 0 1.2 1.2 0 00.393-.732v.025zm-1.172-.15h.024-.122a.255.255 0 010-.124M26.6 24.22h-1.246V7.17l-3.396 3.958-.928-.822 4.959-5.75 4.958 5.75-.928.822-3.42-3.958v17.05zm3.956 1.593l-.88-.87 8.452-8.614-5.178.349-.074-1.27 7.499-.473-.489 7.617-1.22-.074.317-5.253-8.427 8.588zm-9.012 0l-8.427-8.587.317 5.252-1.22.074-.49-7.617 7.5.473-.074 1.27-5.154-.349 8.427 8.613-.88.871z"/><path d="M25.5 50.73a23.94 23.94 0 01-13.475-4.165 24.623 24.623 0 01-8.933-11.093 25.157 25.157 0 01-1.38-14.282A24.867 24.867 0 018.349 8.534 24.118 24.118 0 0120.77 1.77a23.832 23.832 0 0114.013 1.407 24.36 24.36 0 0110.885 9.104 25.055 25.055 0 014.087 13.732c-.013 6.552-2.572 12.831-7.118 17.464-4.546 4.633-10.707 7.241-17.136 7.255zm0-50.506a24.968 24.968 0 00-14.056 4.344 25.69 25.69 0 00-9.32 11.57A26.247 26.247 0 00.68 31.034 25.945 25.945 0 007.598 44.24a25.162 25.162 0 0012.95 7.063c4.907.998 9.994.491 14.619-1.457a25.414 25.414 0 0011.361-9.487 26.14 26.14 0 004.276-14.32c-.006-6.838-2.674-13.394-7.418-18.229C38.642 2.975 32.209.256 25.5.25"/><path d="M25.5 1.494a23.74 23.74 0 00-13.366 4.132A24.424 24.424 0 003.273 16.63a24.955 24.955 0 00-1.37 14.166A24.668 24.668 0 008.488 43.35a23.924 23.924 0 0012.318 6.71 23.64 23.64 0 0013.901-1.395 24.162 24.162 0 0010.797-9.03 24.853 24.853 0 004.055-13.623c0-6.502-2.535-12.739-7.047-17.337C38 4.077 31.881 1.494 25.5 1.494zm0 49.46a24.1 24.1 0 01-13.57-4.195 24.797 24.797 0 01-8.996-11.171 25.334 25.334 0 01-1.39-14.382A25.043 25.043 0 018.23 8.46a24.287 24.287 0 0112.506-6.813 24 24 0 0114.112 1.417 24.531 24.531 0 0110.962 9.168 25.232 25.232 0 014.116 13.83c0 6.601-2.573 12.933-7.154 17.6-4.58 4.669-10.793 7.292-17.27 7.292zm0-50.506a24.75 24.75 0 00-13.934 4.307 25.466 25.466 0 00-9.239 11.469A26.019 26.019 0 00.895 30.99a25.72 25.72 0 006.859 13.09 24.943 24.943 0 0012.837 7.002c4.865.989 9.908.486 14.492-1.445a25.193 25.193 0 0011.262-9.405c2.76-4.2 4.235-9.14 4.24-14.196-.007-6.778-2.652-13.276-7.355-18.07C38.529 3.176 32.151.48 25.5.474V.448zm0 51.577a25.185 25.185 0 01-14.19-4.374A25.912 25.912 0 011.9 35.978 26.474 26.474 0 01.44 20.944 26.17 26.17 0 017.427 7.619 25.38 25.38 0 0120.502.499a25.08 25.08 0 0114.753 1.486 25.636 25.636 0 0111.453 9.591A26.369 26.369 0 0151 26.037c-.006 6.89-2.695 13.497-7.476 18.369-4.78 4.872-11.263 7.612-18.024 7.619z"/></g><defs><clipPath id="clip0_289_269"><path fill="#fff" d="M0 0h51v52H0z"/></clipPath></defs></svg>